<?xml version="1.0" standalone="no"?>
<!DOCTYPE svg PUBLIC "-//W3C//DTD SVG 1.1//EN" "http://www.w3.org/Graphics/SVG/1.1/DTD/svg11.dtd" >
<svg xmlns="http://www.w3.org/2000/svg" xmlns:xlink="http://www.w3.org/1999/xlink" version="1.1">
<metadata></metadata>
<defs>
<font id="decimalight" horiz-adv-x="927" >
<font-face units-per-em="2048" ascent="1536" descent="-512" />
<missing-glyph horiz-adv-x="430" />
<glyph horiz-adv-x="0" />
<glyph horiz-adv-x="682" />
<glyph unicode=" "  horiz-adv-x="430" />
<glyph unicode="&#x09;" horiz-adv-x="430" />
<glyph unicode="&#xa0;" horiz-adv-x="430" />
<glyph unicode="!" horiz-adv-x="471" d="M164 0v143h143v-143h-143zM180 307v1127h107v-1127h-107z" />
<glyph unicode="&#x22;" horiz-adv-x="704" d="M143 989v465h140l-68 -465h-72zM432 989v465h139l-69 -465h-70z" />
<glyph unicode="#" horiz-adv-x="1269" d="M143 422v92h215l58 418h-203v92h213l61 410h97l-58 -410h305l60 410h94l-59 -410h200v-92h-213l-57 -418h201v-92h-213l-60 -422h-94l58 422h-308l-59 -422h-92l55 422h-201zM455 514h305l57 418h-305z" />
<glyph unicode="$" horiz-adv-x="1009" d="M133 358v50h109v-50q0 -112 70.5 -188t179.5 -76h26q108 0 179 73t71 175q0 68 -21 122t-56.5 91t-81.5 68t-96.5 56l-101 50t-96.5 57t-81.5 70.5t-56.5 95t-21 127.5q0 135 84 234.5t217 122.5v102h94v-102q137 -22 221.5 -118.5t87.5 -240.5h-104q-5 112 -73 185 t-175 73q-106 0 -176 -69.5t-70 -175.5q0 -55 21 -100t56.5 -76t82 -58t97.5 -51.5t101.5 -51.5t97 -62.5t82 -79.5t56.5 -109t21 -144q0 -142 -92.5 -244t-233.5 -116v-102h-94v102q-141 15 -232.5 117t-91.5 243z" />
<glyph unicode="%" horiz-adv-x="1755" d="M123 891v285q0 120 80 199t194 79h17q114 0 194 -79t80 -199v-285q0 -121 -80.5 -206t-193.5 -85h-17q-113 0 -193.5 85.5t-80.5 205.5zM219 887q0 -84 54 -141.5t135 -57.5q75 0 128.5 57.5t53.5 139.5v282q0 83 -54.5 141t-132.5 58t-131 -57.5t-53 -141.5v-280zM469 0 l717 1434h104l-719 -1434h-102zM1069 268v273q0 121 79.5 205.5t192.5 84.5h19q113 0 192.5 -84.5t79.5 -205.5v-273q0 -122 -79.5 -206.5t-192.5 -84.5h-19q-113 0 -192.5 85t-79.5 206zM1165 264q0 -85 53.5 -141.5t135.5 -56.5q76 0 129 56.5t53 139.5v283q0 82 -54 139 t-132 57t-131.5 -57t-53.5 -139v-281z" />
<glyph unicode="&#x26;" horiz-adv-x="1013" d="M143 344v311q0 95 57.5 173.5t143.5 115.5l-137 311v179h594v-101h-486v-43l439 -1038q20 67 20 110v279h107v-299q0 -129 -68 -221q37 -81 53 -121h-116l-19 49q-104 -69 -213 -69h-12q-150 0 -256.5 107t-106.5 257zM252 342q0 -111 75 -187.5t185 -76.5q96 0 174 63 l-303 709q-60 -29 -95.5 -83t-35.5 -114v-311z" />
<glyph unicode="'" horiz-adv-x="415" d="M143 989v465h140l-68 -465h-72z" />
<glyph unicode="(" horiz-adv-x="604" d="M164 -35v1139q0 141 103.5 246t244.5 116v-102q-105 -4 -172.5 -79t-67.5 -183v-1141q0 -107 67.5 -182.5t172.5 -79.5v-98q-147 3 -247.5 108.5t-100.5 255.5z" />
<glyph unicode=")" horiz-adv-x="604" d="M92 -301q105 4 173.5 79.5t68.5 182.5v1141q0 108 -68.5 183t-173.5 79v102q147 -3 247.5 -107.5t100.5 -254.5v-1139q0 -141 -103.5 -247t-244.5 -117v98z" />
<glyph unicode="*" horiz-adv-x="694" d="M123 1260l20 67l168 -47v174h72v-174l170 55l18 -63l-170 -66l103 -139l-53 -41l-105 141l-94 -141l-59 41l94 143z" />
<glyph unicode="+" horiz-adv-x="1161" d="M133 528v103h395v395h105v-395h395v-103h-395v-397h-105v397h-395z" />
<glyph unicode="," horiz-adv-x="407" d="M125 -246l74 246h-66v143h141v-153l-75 -236h-74z" />
<glyph unicode="-" horiz-adv-x="722" d="M133 528v103h457v-103h-457z" />
<glyph unicode="." horiz-adv-x="409" d="M133 0v143h143v-143h-143z" />
<glyph unicode="/" horiz-adv-x="698" d="M20 0l558 1434h100l-555 -1434h-103z" />
<glyph unicode="0" horiz-adv-x="968" d="M133 344v748q0 150 100.5 256t241.5 106h17q143 0 243.5 -105.5t100.5 -256.5v-750q0 -151 -100.5 -256.5t-243.5 -105.5h-17q-141 0 -241.5 106.5t-100.5 257.5zM238 342q0 -111 70.5 -187.5t176.5 -76.5q103 0 174.5 76t71.5 186v750q0 111 -72.5 188.5t-177.5 77.5 q-103 0 -173 -77.5t-70 -188.5v-748z" />
<glyph unicode="1" horiz-adv-x="505" d="M31 1333v101h301v-1434h-107v1333h-194z" />
<glyph unicode="2" horiz-adv-x="919" d="M92 0v123q0 99 35 186.5t91.5 153.5t124 126.5t135.5 117.5t124.5 115t91.5 131t35 153q0 105 -75 177.5t-181 72.5q-107 0 -180 -76t-78 -188h-106q3 159 110 260.5t258 101.5q152 0 256.5 -103t104.5 -257q0 -89 -35 -169t-91.5 -141.5t-124 -120t-135.5 -116 t-124.5 -117t-91.5 -135.5t-35 -160v-37h637v-98h-746z" />
<glyph unicode="3" horiz-adv-x="911" d="M51 342v8h107v-10q0 -110 76 -186t186 -76t186 77t76 187v291q0 84 -59.5 146.5t-143.5 62.5h-125v112l281 379h-504v101h623v-113l-287 -381q122 0 221.5 -89.5t99.5 -215.5v-291q0 -151 -105.5 -257.5t-256.5 -106.5h-12q-151 0 -257 105.5t-106 256.5z" />
<glyph unicode="4" horiz-adv-x="946" d="M72 322v127l463 985h114l-469 -1008h443v389h108v-389h123v-104h-123v-322h-108v322h-551z" />
<glyph unicode="5" horiz-adv-x="983" d="M113 342v8h108v-10q0 -110 75 -186t185 -76t186 77t76 187v246q0 111 -76 188.5t-186 77.5h-12q-68 0 -121 -32t-78 -74l-108 30l59 658h580v-105h-482l-36 -457q31 31 85 54.5t107 23.5h12q151 0 257 -105.5t106 -256.5v-246q0 -151 -106 -257.5t-257 -106.5h-12 q-150 0 -256 106t-106 256z" />
<glyph unicode="6" horiz-adv-x="1005" d="M133 342v748q0 151 102.5 257.5t251.5 106.5h13q140 0 242.5 -103.5t113.5 -246.5h-106q-5 107 -77.5 178.5t-178.5 71.5q-109 0 -180.5 -77.5t-71.5 -189.5v-294q29 54 100.5 105.5t153.5 51.5h14q150 0 256 -106t106 -256v-244q0 -151 -106.5 -257.5t-255.5 -106.5h-14 q-150 0 -256.5 106t-106.5 256zM242 340q0 -110 75 -186t185 -76q112 0 187 76.5t75 187.5v244q0 111 -75 188.5t-187 77.5h-13q-92 0 -169.5 -79.5t-77.5 -186.5v-246z" />
<glyph unicode="7" horiz-adv-x="774" d="M31 1333v101h671v-123q0 -64 -33.5 -181t-81.5 -254.5t-96.5 -284t-83 -306t-36.5 -285.5h-111q2 139 37 304.5t84 311.5t98 281t83 251.5t34 184.5h-565z" />
<glyph unicode="8" horiz-adv-x="1005" d="M133 344v84q0 94 49 177t135 138q-76 55 -119.5 132.5t-43.5 162.5v72q0 143 99.5 243.5t240.5 100.5h18q141 0 240.5 -100.5t99.5 -243.5v-74q0 -85 -43.5 -161.5t-118.5 -131.5q85 -54 133.5 -137t48.5 -178v-86q0 -151 -104.5 -256.5t-253.5 -105.5h-18 q-150 0 -256.5 107t-106.5 257zM244 342q0 -111 75.5 -187.5t188.5 -76.5q107 0 181.5 76t74.5 186v86q0 111 -75 188.5t-187 77.5q-108 0 -183 -77.5t-75 -188.5v-84zM258 1036q0 -99 67 -172t171 -73h18q95 0 163 70t68 173v68q0 107 -70 180.5t-175 73.5q-102 0 -172 -74 t-70 -180v-66z" />
<glyph unicode="9" horiz-adv-x="1005" d="M133 844v246q0 150 106.5 257t256.5 107h14q150 0 256 -106t106 -256v-748q0 -151 -102.5 -257.5t-251.5 -106.5h-12q-140 0 -242.5 103t-113.5 245h106q5 -105 77.5 -177.5t178.5 -72.5q109 0 180.5 78t71.5 190v293q-33 -56 -103.5 -107t-150.5 -51h-14 q-150 0 -256.5 106.5t-106.5 256.5zM242 846q0 -111 75 -188.5t185 -77.5h14q92 0 170 79.5t78 186.5v248q0 111 -75 185.5t-187 74.5q-110 0 -185 -76t-75 -186v-246z" />
<glyph unicode=":" horiz-adv-x="409" d="M133 0v143h143v-143h-143zM133 881v143h143v-143h-143z" />
<glyph unicode=";" horiz-adv-x="409" d="M125 -246l74 246h-66v143h141v-153l-75 -236h-74zM133 881v143h143v-143h-143z" />
<glyph unicode="&#x3c;" horiz-adv-x="1091" d="M123 543v119l835 376v-112l-729 -320v-8l729 -317v-115z" />
<glyph unicode="=" horiz-adv-x="1163" d="M133 367v102h897v-102h-897zM133 692v105h897v-105h-897z" />
<glyph unicode="&#x3e;" horiz-adv-x="1091" d="M133 166v115l729 317v8l-729 320v112l836 -376v-119z" />
<glyph unicode="?" horiz-adv-x="911" d="M82 1092q3 160 107.5 261t256.5 101q156 0 260.5 -99t104.5 -261q0 -77 -18.5 -139.5t-48.5 -106.5t-66 -84.5t-72.5 -83.5t-67 -92t-49.5 -121t-20 -160h-104q1 99 20 179t48.5 133.5t65.5 98.5t71.5 84.5t65 80.5t48 97t18.5 124q0 105 -74.5 176.5t-181.5 71.5 q-108 0 -180.5 -74.5t-77.5 -185.5h-106zM346 0v143h143v-143h-143z" />
<glyph unicode="@" horiz-adv-x="1271" d="M143 113v858q0 131 65 242t176.5 176t242.5 65h24q195 0 336 -142t141 -341v-971h-94v102q-49 -54 -114.5 -88t-135.5 -34q-149 0 -243.5 92t-94.5 225v408q0 133 94.5 225t243.5 92q148 0 250 -123v72q0 161 -113 275t-270 114h-24q-161 0 -274 -114t-113 -275v-858 q0 -161 112 -274t271 -113v-95q-130 1 -240.5 66.5t-175 176t-64.5 239.5zM541 309q0 -98 71.5 -169.5t171.5 -71.5q102 0 176 72t74 169v381q0 98 -72.5 171t-175.5 73q-101 0 -173 -73t-72 -171v-381z" />
<glyph unicode="A" horiz-adv-x="1019" d="M143 0v561l256 873h222l256 -873v-561h-107v489h-520v-489h-107zM256 588h508l-215 747h-78z" />
<glyph unicode="B" horiz-adv-x="968" d="M164 0v1434h348q132 0 220.5 -87.5t88.5 -211.5v-119q0 -73 -39.5 -141.5t-103.5 -114.5q158 -119 158 -279v-155q0 -139 -99 -232.5t-233 -93.5h-340zM270 98h234q98 0 162.5 67.5t64.5 160.5v155q0 34 -13 71.5t-39 73.5t-72 59.5t-103 23.5h-234v-611zM270 803h248 q85 0 145 60t60 145v118q0 85 -60 145t-145 60h-248v-528z" />
<glyph unicode="C" horiz-adv-x="997" d="M143 340v756q0 149 105.5 253.5t253.5 104.5h14q149 0 253.5 -104.5t104.5 -253.5h-106q-2 107 -76.5 181.5t-181.5 74.5q-110 0 -185 -74.5t-75 -183.5v-756q0 -109 75 -184.5t185 -75.5q109 0 183.5 74.5t74.5 183.5v10h106v-8q0 -149 -104.5 -253.5t-253.5 -104.5h-14 q-148 0 -253.5 105.5t-105.5 254.5z" />
<glyph unicode="D" horiz-adv-x="1017" d="M164 0v1434h350q149 0 254.5 -106t105.5 -255v-713q0 -149 -105.5 -254.5t-254.5 -105.5h-350zM270 98h238q110 0 185 74.5t75 183.5v715q0 110 -75 185t-185 75h-238v-1233z" />
<glyph unicode="E" d="M164 0v1434h643v-99h-537v-528h488v-98h-488v-611h555v-98h-661z" />
<glyph unicode="F" horiz-adv-x="878" d="M164 0v1434h643v-99h-537v-528h488v-98h-488v-709h-106z" />
<glyph unicode="G" horiz-adv-x="1042" d="M143 340v756q0 149 105 253.5t254 104.5h39q149 0 253.5 -104.5t104.5 -253.5h-106q-2 107 -76.5 181.5t-181.5 74.5h-27q-109 0 -183.5 -74.5t-74.5 -183.5v-756q0 -109 74.5 -184.5t183.5 -75.5h27q109 0 183.5 74.5t74.5 183.5v268h-213v98h319v-364 q0 -149 -104.5 -253.5t-253.5 -104.5h-39q-149 0 -254 105.5t-105 254.5z" />
<glyph unicode="H" horiz-adv-x="1060" d="M164 0v1434h106v-627h521v627h106v-1434h-106v709h-521v-709h-106z" />
<glyph unicode="I" horiz-adv-x="436" d="M164 0v1434h108v-1434h-108z" />
<glyph unicode="J" horiz-adv-x="878" d="M92 291v223h107v-233q0 -84 59 -143.5t141 -59.5q87 0 147 59t60 144v1153h109v-1143q0 -129 -91.5 -220t-220.5 -91t-220 91t-91 220z" />
<glyph unicode="K" horiz-adv-x="972" d="M164 0v1434h106v-1434h-106zM276 760l500 674h131l-501 -672l534 -762h-135z" />
<glyph unicode="L" horiz-adv-x="794" d="M164 0v1434h106v-1336h473v-98h-579z" />
<glyph unicode="M" horiz-adv-x="1253" d="M164 0v1434h137l305 -633l17 -47h8l16 47l305 633h138v-1434h-105v1167l8 121l-6 4l-45 -112l-260 -535h-111l-260 535l-45 112l-6 -2l8 -123v-1167h-104z" />
<glyph unicode="N" horiz-adv-x="1060" d="M164 0v1434h133l465 -1153l31 -91l8 3l-8 90v1151h104v-1434h-133l-463 1145l-33 98l-8 -2l8 -104v-1137h-104z" />
<glyph unicode="O" horiz-adv-x="1042" d="M143 340v756q0 149 105 253.5t254 104.5h39q149 0 253.5 -104.5t104.5 -253.5v-758q0 -149 -104.5 -253.5t-253.5 -104.5h-39q-149 0 -254 105.5t-105 254.5zM250 338q0 -109 74.5 -184.5t183.5 -75.5h27q109 0 183.5 74.5t74.5 183.5v758q0 109 -74.5 183.5t-183.5 74.5 h-27q-109 0 -183.5 -74.5t-74.5 -183.5v-756z" />
<glyph unicode="P" horiz-adv-x="919" d="M164 0v1434h364q123 0 211 -87.5t88 -211.5v-312q0 -125 -87.5 -213t-211.5 -88h-258v-522h-106zM270 621h252q82 0 140.5 57.5t58.5 138.5v316q0 82 -58.5 140t-140.5 58h-252v-710z" />
<glyph unicode="Q" horiz-adv-x="1044" d="M143 340v756q0 149 105 253.5t254 104.5h39q149 0 253.5 -104.5t104.5 -253.5v-758q0 -113 -68 -213l107 -109l-68 -63l-104 106q-101 -79 -225 -79h-39q-149 0 -254 105.5t-105 254.5zM250 338q0 -71 29 -119q21 59 86.5 100t132.5 41q107 0 188 -84l72 -73 q35 60 35 133v758q0 109 -74.5 183.5t-183.5 74.5h-27q-109 0 -183.5 -74.5t-74.5 -183.5v-756zM334 143q78 -65 174 -65h27q88 0 159 53l-82 84q-51 51 -118 51q-52 0 -99.5 -34t-60.5 -89z" />
<glyph unicode="R" horiz-adv-x="960" d="M164 0v1434h364q123 0 211 -87.5t88 -211.5v-287q0 -94 -56.5 -174t-145.5 -111l233 -563h-115l-227 547h-246v-547h-106zM270 645h252q82 0 140.5 57.5t58.5 139.5v291q0 82 -58.5 140t-140.5 58h-252v-686z" />
<glyph unicode="S" horiz-adv-x="1001" d="M123 338v49h106v-49q0 -109 74.5 -184.5t183.5 -75.5h27q108 0 183 72.5t75 171.5q0 67 -21.5 122.5t-58 95t-83.5 73t-99 61.5t-104.5 57t-99.5 63.5t-83.5 75.5t-58 99t-21.5 129q0 151 105 253.5t254 102.5q151 0 255 -100t107 -258h-104q-5 110 -77.5 183t-180.5 73 q-105 0 -178.5 -70.5t-73.5 -173.5q0 -55 21.5 -100.5t58 -79t83.5 -63.5t99 -58.5t104.5 -58.5t99.5 -69t83.5 -85.5t58 -112t21.5 -143.5q0 -149 -104.5 -253.5t-252.5 -104.5h-41q-149 0 -253.5 104.5t-104.5 253.5z" />
<glyph unicode="T" horiz-adv-x="815" d="M41 1333v101h733v-101h-311v-1333h-109v1333h-313z" />
<glyph unicode="U" horiz-adv-x="1062" d="M154 340v1094h106v-1096q0 -109 75 -184.5t185 -75.5h25q109 0 183.5 74.5t74.5 183.5v1098h106v-1096q0 -149 -104.5 -253.5t-253.5 -104.5h-39q-148 0 -253 105.5t-105 254.5z" />
<glyph unicode="V" horiz-adv-x="1019" d="M143 868v566h107v-560l223 -776h74l223 776v560h107v-566l-256 -868h-222z" />
<glyph unicode="W" horiz-adv-x="1370" d="M154 864v570h106v-564l111 -772h28l211 723h150l211 -723h28l111 772v564h107v-570l-127 -864h-197l-199 688h-18l-199 -688h-196z" />
<glyph unicode="X" horiz-adv-x="993" d="M72 0l360 745l-328 689h121l271 -580l272 580h121l-330 -689l363 -745h-125l-301 639l-299 -639h-125z" />
<glyph unicode="Y" horiz-adv-x="933" d="M51 1434h119l297 -609l299 609h117l-361 -752v-682h-108v682z" />
<glyph unicode="Z" horiz-adv-x="942" d="M102 0v111l621 1224h-590v99h707v-111l-621 -1225h619v-98h-736z" />
<glyph unicode="[" horiz-adv-x="614" d="M174 -369v1803h348v-105h-239v-1599h239v-99h-348z" />
<glyph unicode="\" horiz-adv-x="696" d="M20 1434h103l553 -1434h-103z" />
<glyph unicode="]" horiz-adv-x="614" d="M92 -270h242v1599h-242v105h348v-1803h-348v99z" />
<glyph unicode="^" horiz-adv-x="911" d="M141 717l273 717h96l272 -717h-82l-233 600h-10l-234 -600h-82z" />
<glyph unicode="_" horiz-adv-x="937" d="M-2 -188h940v-76h-940v76z" />
<glyph unicode="`" horiz-adv-x="362" d="M0 1413h143l219 -250h-110z" />
<glyph unicode="a" horiz-adv-x="905" d="M92 285q0 129 88.5 219.5t220.5 99.5l275 21v90q0 101 -59 171t-160 70q-82 0 -136.5 -48.5t-74.5 -127.5h-96q18 117 100 190.5t207 73.5q149 0 232 -90t83 -227v-727h-96v96q-122 -116 -273 -116q-128 0 -219.5 87t-91.5 218zM188 287q0 -93 66.5 -157t159.5 -64 q112 0 187 64.5t75 152.5v252l-270 -17q-93 -6 -155.5 -72t-62.5 -159z" />
<glyph unicode="b" horiz-adv-x="952" d="M143 0v1434h97v-510q45 55 111.5 87.5t137.5 32.5q151 0 245.5 -91.5t94.5 -225.5v-430q0 -134 -94.5 -225.5t-245.5 -91.5q-76 0 -140 35t-109 94v-109h-97zM240 309q0 -97 73.5 -169t175.5 -72t173 71.5t71 169.5v406q0 98 -71.5 169.5t-174.5 71.5t-175 -71.5 t-72 -169.5v-406z" />
<glyph unicode="c" horiz-adv-x="907" d="M123 299v428q0 134 94.5 225.5t247.5 91.5q139 0 231.5 -90.5t100.5 -222.5h-97q-5 99 -70.5 162t-164.5 63q-103 0 -175.5 -71.5t-72.5 -169.5v-406q0 -98 72 -169.5t176 -71.5q100 0 171 66.5t75 164.5h94q-8 -138 -101.5 -228.5t-238.5 -90.5q-153 0 -247.5 92 t-94.5 227z" />
<glyph unicode="d" horiz-adv-x="952" d="M123 297v430q0 134 94.5 225.5t245.5 91.5q71 0 138 -32.5t112 -87.5v510h96v-1434h-96v109q-45 -59 -109.5 -94t-140.5 -35q-151 0 -245.5 91.5t-94.5 225.5zM219 309q0 -98 71 -169.5t173 -71.5t176 72t74 169v406q0 98 -72.5 169.5t-175.5 71.5t-174.5 -71.5 t-71.5 -169.5v-406z" />
<glyph unicode="e" d="M123 297v430q0 134 94.5 225.5t247.5 91.5q151 0 245.5 -91.5t94.5 -225.5v-244h-588v-174q0 -98 71.5 -169.5t174.5 -71.5q101 0 172 66.5t76 164.5h94q-8 -140 -101 -229.5t-239 -89.5q-153 0 -247.5 91.5t-94.5 225.5zM217 571h494v144q0 98 -72.5 169.5t-175.5 71.5 t-174.5 -71.5t-71.5 -169.5v-144z" />
<glyph unicode="f" horiz-adv-x="643" d="M51 936v88h150v168q0 110 76.5 187t185.5 77q63 0 139 -37l-51 -73q-44 22 -88 22q-70 0 -118 -49t-48 -119v-176h268v-88h-268v-936h-96v936h-150z" />
<glyph unicode="g" horiz-adv-x="890" d="M61 -141h101v-17q0 -60 79 -100.5t193 -40.5q132 0 215.5 38.5t83.5 108.5q0 60 -65 103l-234 155q-33 21 -54.5 59.5t-21.5 82.5v67q-106 20 -176.5 103t-70.5 188v142q0 122 91 209t218 87q99 0 174 -59l78 107q19 26 52 39.5t64 13.5v-88q-47 0 -77 -45l-54 -78 q68 -89 68 -186v-142q0 -106 -74.5 -191t-181.5 -102v-65q0 -31 13.5 -50t39.5 -34l185 -125q122 -82 122 -193q0 -62 -36.5 -109.5t-96 -73.5t-126 -39t-136.5 -13q-96 0 -179.5 25.5t-138.5 79.5t-55 126v17zM211 606q0 -88 60.5 -148.5t148.5 -60.5q83 0 145 62t62 147 v139q0 89 -62 150t-145 61q-88 0 -148.5 -60.5t-60.5 -150.5v-139z" />
<glyph unicode="h" horiz-adv-x="960" d="M143 0v1434h97v-510q47 54 111.5 87t133.5 33q151 0 246.5 -92t95.5 -225v-727h-96v715q0 98 -72.5 169.5t-175.5 71.5q-102 0 -172.5 -70.5t-70.5 -166.5v-719h-97z" />
<glyph unicode="i" horiz-adv-x="413" d="M143 1270v143h127v-143h-127zM158 0v1024h98v-1024h-98z" />
<glyph unicode="j" horiz-adv-x="415" d="M-143 -352l49 73q42 -22 88 -22q71 0 119.5 49t48.5 119v1157h96v-1151q0 -110 -77.5 -186t-186.5 -76q-65 0 -137 37zM147 1270v143h125v-143h-125z" />
<glyph unicode="k" horiz-adv-x="847" d="M143 0v1434h95v-1434h-95zM238 545l403 479h125l-401 -479l432 -545h-125z" />
<glyph unicode="l" horiz-adv-x="385" d="M143 0v1434h99v-1434h-99z" />
<glyph unicode="m" horiz-adv-x="1409" d="M143 0v1024h95v-106q99 126 247 126q86 0 148.5 -44t91.5 -95q114 139 274 139q116 0 196.5 -80.5t80.5 -197.5v-766h-94v752q0 85 -60.5 144.5t-146.5 59.5q-88 0 -150.5 -63t-62.5 -152v-741h-94v752q0 85 -60.5 144.5t-146.5 59.5q-93 0 -158 -62.5t-65 -152.5v-741 h-95z" />
<glyph unicode="n" horiz-adv-x="958" d="M143 0v1024h95v-106q42 53 119.5 89.5t154.5 36.5q128 0 220.5 -93.5t92.5 -223.5v-727h-94v711q0 100 -68.5 172.5t-164.5 72.5q-102 0 -181 -69.5t-79 -167.5v-719h-95z" />
<glyph unicode="o" d="M123 297v430q0 134 94.5 225.5t247.5 91.5q151 0 245.5 -91.5t94.5 -225.5v-430q0 -134 -94.5 -225.5t-245.5 -91.5q-153 0 -247.5 91.5t-94.5 225.5zM217 309q0 -98 72 -169.5t176 -71.5q102 0 174 71.5t72 169.5v406q0 98 -72.5 169.5t-175.5 71.5t-174.5 -71.5 t-71.5 -169.5v-406z" />
<glyph unicode="p" horiz-adv-x="948" d="M143 -369v1393h95v-102q49 54 113.5 88t133.5 34q151 0 245.5 -91.5t94.5 -225.5v-430q0 -134 -94.5 -225.5t-245.5 -91.5q-69 0 -134.5 33.5t-112.5 86.5v-469h-95zM238 309q0 -98 71 -169.5t174 -71.5t175.5 71.5t72.5 169.5v406q0 98 -72 169.5t-174 71.5 q-101 0 -174 -72t-73 -169v-406z" />
<glyph unicode="q" horiz-adv-x="948" d="M123 297v430q0 134 94.5 225.5t245.5 91.5q69 0 134 -34t114 -88v102h94v-1393h-94v469q-47 -53 -113 -86.5t-135 -33.5q-151 0 -245.5 91.5t-94.5 225.5zM217 309q0 -98 72.5 -169.5t175.5 -71.5t174.5 71.5t71.5 169.5v406q0 97 -73.5 169t-174.5 72q-102 0 -174 -71.5 t-72 -169.5v-406z" />
<glyph unicode="r" horiz-adv-x="575" d="M143 0v1024h95v-139q33 56 111 107.5t163 51.5q25 0 33 -2v-88q-27 2 -45 2q-103 0 -182.5 -76.5t-79.5 -168.5v-711h-95z" />
<glyph unicode="s" horiz-adv-x="839" d="M102 287h95q1 -91 66.5 -155t156.5 -64h12q87 0 148 55t61 139q0 54 -28 94.5t-72 66.5t-98 48.5t-108 47.5t-98 56.5t-72 83t-28 119.5q0 119 86 192.5t211 73.5q68 0 125 -26t92.5 -67t56 -87.5t23.5 -91.5h-98q-3 78 -63 131t-144 53q-75 0 -134 -47.5t-59 -117.5 q0 -51 28 -89.5t72 -62.5t98 -46t108 -49t98 -61t72 -91.5t28 -133.5q0 -115 -91 -196.5t-212 -81.5h-20q-135 0 -223.5 92.5t-88.5 214.5z" />
<glyph unicode="t" horiz-adv-x="739" d="M41 936v88h149v287h95v-287h346v-88h-346v-700q0 -70 48.5 -119t119.5 -49q65 0 111.5 44.5t47.5 108.5h86q-1 -99 -73.5 -170t-171.5 -71q-109 0 -186 76t-77 186v694h-149z" />
<glyph unicode="u" horiz-adv-x="958" d="M133 297v727h94v-711q0 -100 69 -172.5t165 -72.5q102 0 181 69.5t79 167.5v719h94v-1024h-94v106q-42 -53 -120 -89.5t-155 -36.5q-128 0 -220.5 93.5t-92.5 223.5z" />
<glyph unicode="v" horiz-adv-x="909" d="M123 643v381h96v-379l217 -559h37l215 559v379h98v-375l-245 -649h-172z" />
<glyph unicode="w" horiz-adv-x="1232" d="M123 641v383h94v-377l121 -561h27l182 573h139l182 -573h27l121 561v377h94v-383l-137 -641h-176l-172 555h-17l-172 -555h-176z" />
<glyph unicode="x" horiz-adv-x="825" d="M61 0l293 524l-280 500h112l228 -416l225 416h115l-283 -500l293 -524h-111l-239 438l-240 -438h-113z" />
<glyph unicode="y" horiz-adv-x="890" d="M41 1024h102l301 -866l301 866h105l-502 -1393h-96l137 383z" />
<glyph unicode="z" horiz-adv-x="806" d="M92 0v98l518 838h-487v88h586v-96l-519 -840h525v-88h-623z" />
<glyph unicode="{" horiz-adv-x="630" d="M84 496v98q49 3 82 41t33 90v367q0 141 103 246t243 116v-102q-105 -4 -172.5 -79t-67.5 -183v-349q0 -69 -40 -125t-85 -67v-8q45 -13 85 -69.5t40 -125.5v-375q0 -107 67.5 -182.5t172.5 -79.5v-98q-146 3 -246 108.5t-100 255.5v387q0 52 -32.5 91.5t-82.5 42.5z" />
<glyph unicode="|" horiz-adv-x="448" d="M180 -369v1803h94v-1803h-94z" />
<glyph unicode="}" horiz-adv-x="630" d="M86 -291q105 4 172.5 79.5t67.5 182.5v375q0 69 40 125.5t85 69.5v8q-45 11 -85 67t-40 125v349q0 108 -67.5 183t-172.5 79v102q140 -11 243 -116t103 -246v-367q0 -52 33 -90t82 -41v-98q-50 -3 -82.5 -42.5t-32.5 -91.5v-387q0 -150 -100 -255.5t-246 -108.5v98z" />
<glyph unicode="~" horiz-adv-x="1193" d="M133 512q14 82 83 141.5t167 59.5q50 0 111 -19t108.5 -42.5t103.5 -42.5t97 -19q55 0 94 32t57 74h95q-20 -80 -87.5 -140t-158.5 -60q-62 0 -143.5 30t-156 60t-120.5 30q-111 0 -158 -104h-92z" />
<glyph unicode="&#xa1;" horiz-adv-x="471" d="M164 881v143h143v-143h-143zM180 -408v1125h107v-1125h-107z" />
<glyph unicode="&#xa2;" d="M123 315v402q0 124 84.5 212t226.5 103v98h94v-102q114 -23 188.5 -109t80.5 -198h-95q-6 99 -72 162t-165 63q-103 0 -175.5 -72t-72.5 -169v-379q0 -97 72 -169.5t176 -72.5q99 0 170 67t76 164h94q-6 -121 -81 -207t-196 -108v-106h-94v102q-142 13 -226.5 102.5 t-84.5 216.5z" />
<glyph unicode="&#xa3;" horiz-adv-x="958" d="M102 606v105h127v430q0 129 92.5 221t221.5 92t221 -92t92 -221v-70h-106v80q0 85 -60 145t-143 60q-87 0 -148 -60t-61 -145v-440h264v-105h-264v-504h516v-102h-684v102h59v504h-127z" />
<glyph unicode="&#xa4;" horiz-adv-x="1122" d="M123 240l98 102q-88 124 -88 260q0 133 90 266l-100 101l74 73l100 -100q125 88 264 88t264 -88l101 100l73 -73l-100 -101q90 -133 90 -266q0 -132 -88 -260l98 -102l-73 -74l-101 100q-131 -92 -264 -92t-264 92l-100 -100zM233 604q0 -134 97 -231t231 -97 q132 0 229 98t97 230q0 133 -97 230.5t-229 97.5t-230 -97.5t-98 -230.5z" />
<glyph unicode="&#xa5;" horiz-adv-x="974" d="M82 1434h121l282 -629l287 629h121l-281 -609h260v-104h-309l-22 -49v-135h331v-103h-331v-434h-109v434h-332v103h332v135l-22 49h-310v104h262z" />
<glyph unicode="&#xa6;" horiz-adv-x="421" d="M164 340h94v-709h-94v709zM164 727v707h94v-707h-94z" />
<glyph unicode="&#xa7;" horiz-adv-x="1005" d="M133 795q0 71 34 133.5t91 105.5q-59 81 -59 166q0 108 80.5 181t222.5 73h16q146 0 220 -75t79 -203h-106q-7 176 -199 176h-10q-97 0 -144 -47t-47 -107q0 -49 31 -88t80.5 -67t109.5 -54.5t119.5 -57.5t109 -68t80.5 -94.5t31 -129.5q0 -143 -122 -242q57 -81 57 -164 q0 -109 -80.5 -181t-224.5 -72h-15q-148 0 -221 74.5t-78 203.5h107q7 -176 199 -176h8q98 0 145 46.5t47 107.5q0 48 -31 87t-80.5 67t-109.5 54.5t-119.5 57.5t-109 68t-80.5 95t-31 130zM242 811q0 -53 25.5 -93.5t73 -71t97.5 -54.5t118 -58.5t116 -68.5q92 61 92 156 q0 53 -26 94.5t-74 72.5t-98 55.5t-118 58.5t-114 65q-92 -59 -92 -156z" />
<glyph unicode="&#xa8;" horiz-adv-x="485" d="M0 1270v143h125v-143h-125zM360 1270v143h125v-143h-125z" />
<glyph unicode="&#xa9;" horiz-adv-x="1427" d="M133 541v350q0 153 75.5 282.5t205 205t282.5 75.5h35q152 0 281.5 -75.5t205.5 -205t76 -282.5v-350q0 -152 -76 -281.5t-205.5 -204.5t-281.5 -75h-35q-153 0 -282.5 75.5t-205 204.5t-75.5 281zM240 537q0 -123 61 -228t166 -166t229 -61h35q93 0 177 36t145 97.5 t97 145.5t36 176v358q0 189 -133 323t-322 134h-35q-189 0 -322.5 -134t-133.5 -323v-358zM451 559v326q0 106 75 179t195 73q108 0 180.5 -71.5t77.5 -176.5h-90q-3 72 -49 113.5t-119 41.5q-75 0 -127.5 -56t-52.5 -130v-274q0 -74 52.5 -130.5t127.5 -56.5q67 0 118 45.5 t60 112.5h88q-5 -109 -78 -179.5t-188 -70.5q-120 0 -195 73.5t-75 180.5z" />
<glyph unicode="&#xaa;" horiz-adv-x="651" d="M102 1004q0 80 59 136t144 62l144 10v35q0 49 -31.5 89t-81.5 40q-42 0 -73.5 -29.5t-39.5 -72.5h-92q11 81 66 130.5t139 49.5q95 0 149 -57t54 -144v-434h-90v39q-55 -51 -142 -51q-80 2 -142.5 59t-62.5 138zM121 614v82h418v-82h-418zM193 1006q0 -44 37 -80.5 t81 -36.5q56 0 97 32.5t41 73.5v135l-142 -8q-47 -3 -80.5 -36.5t-33.5 -79.5z" />
<glyph unicode="&#xab;" horiz-adv-x="952" d="M133 598l240 311h108l-241 -311l241 -311h-108zM469 598l242 311h108l-241 -311l241 -311h-108z" />
<glyph unicode="&#xac;" horiz-adv-x="1163" d="M133 739v105h897v-545h-102v440h-795z" />
<glyph unicode="&#xad;" horiz-adv-x="1705" />
<glyph unicode="&#xae;" horiz-adv-x="1427" d="M133 541v350q0 153 75.5 282.5t205 205t282.5 75.5h35q152 0 281.5 -75.5t205.5 -205t76 -282.5v-350q0 -152 -76 -281.5t-205.5 -204.5t-281.5 -75h-35q-153 0 -282.5 75.5t-205 204.5t-75.5 281zM240 537q0 -123 61 -228t166 -166t229 -61h35q93 0 177 36t145 97.5 t97 145.5t36 176v358q0 189 -133 323t-322 134h-35q-189 0 -322.5 -134t-133.5 -323v-358zM485 317v807h279q73 0 127.5 -55.5t54.5 -128.5v-129q0 -53 -31.5 -101.5t-78.5 -70.5l137 -322h-99l-133 308h-168v-308h-88zM573 705h189q39 0 68.5 29.5t29.5 70.5v137 q0 41 -29.5 69.5t-68.5 28.5h-189v-335z" />
<glyph unicode="&#xaf;" horiz-adv-x="571" d="M0 1276v90h571v-90h-571z" />
<glyph unicode="&#xb0;" horiz-adv-x="774" d="M102 1169q0 117 84 201t201 84t201 -84t84 -201t-84 -200.5t-201 -83.5t-201 83.5t-84 200.5zM184 1167q0 -82 59 -141t142 -59q82 0 141.5 59t59.5 141q0 83 -59.5 142t-141.5 59q-83 0 -142 -59t-59 -142z" />
<glyph unicode="&#xb1;" horiz-adv-x="1163" d="M133 154v104h897v-104h-897zM133 643v102h395v279h105v-279h395v-102h-395v-276h-105v276h-395z" />
<glyph unicode="&#xb2;" horiz-adv-x="690" d="M133 608v82q0 60 20 112.5t51.5 90.5t69.5 72t76.5 65t70 62.5t51.5 70.5t20 82q0 53 -35 90t-86 37q-57 0 -97 -42.5t-43 -106.5h-86q4 102 69.5 166.5t156.5 64.5q88 0 152.5 -62t64.5 -155q0 -51 -20 -95.5t-51.5 -78.5t-70.5 -66.5t-77.5 -64.5t-70 -66.5 t-51.5 -79.5t-20 -96h361v-82h-455z" />
<glyph unicode="&#xb3;" horiz-adv-x="694" d="M113 821v17h92v-17q0 -59 38 -99t95 -40q56 0 94.5 40.5t38.5 98.5v144q0 45 -29 76.5t-71 31.5h-84v82l149 197h-276v82h381v-78l-150 -199q70 -18 120 -71t50 -121v-144q0 -89 -64.5 -155t-152.5 -66h-12q-90 0 -154.5 64t-64.5 157z" />
<glyph unicode="&#xb4;" horiz-adv-x="362" d="M0 1163l219 250h143l-251 -250h-111z" />
<glyph unicode="&#xb5;" horiz-adv-x="976" d="M143 -369v1393h97v-711q0 -100 67.5 -172.5t163.5 -72.5q103 0 181.5 69.5t78.5 167.5v719h96v-840q0 -39 23.5 -69.5t58.5 -36.5v-88q-56 2 -101 37.5t-65 93.5q-60 -73 -120.5 -107t-157.5 -34q-131 0 -225 131v-480h-97z" />
<glyph unicode="&#xb6;" horiz-adv-x="894" d="M72 1044q0 161 112.5 275.5t272.5 114.5h295v-1803h-93v1712h-124v-1712h-93v1028q-157 14 -263.5 122t-106.5 263z" />
<glyph unicode="&#xb7;" horiz-adv-x="409" d="M133 528v144h143v-144h-143z" />
<glyph unicode="&#xb8;" horiz-adv-x="409" d="M100 -287h115q28 0 47 19t19 47q0 27 -19 45t-47 18h-92v158h82v-74h22q60 0 104 -43.5t44 -103.5q0 -61 -44 -104.5t-104 -43.5h-127v82z" />
<glyph unicode="&#xb9;" horiz-adv-x="471" d="M92 1352v82h240v-826h-96v744h-144z" />
<glyph unicode="&#xba;" horiz-adv-x="643" d="M102 1008v245q0 84 63 142.5t159 58.5q94 0 155.5 -58.5t61.5 -142.5v-245q0 -84 -61.5 -142.5t-155.5 -58.5q-96 0 -159 58.5t-63 142.5zM106 614v82h433v-82h-433zM195 1008q0 -46 38.5 -82.5t90.5 -36.5q51 0 89 36.5t38 82.5v245q0 46 -38.5 82.5t-90.5 36.5 q-51 0 -89 -36.5t-38 -82.5v-245z" />
<glyph unicode="&#xbb;" horiz-adv-x="952" d="M133 287l242 311l-242 311h109l241 -311l-241 -311h-109zM471 287l242 311l-242 311h109l239 -311l-239 -311h-109z" />
<glyph unicode="&#xbc;" horiz-adv-x="1505" d="M123 1352v82h239v-826h-96v744h-143zM301 0l719 1436h102l-719 -1436h-102zM868 184v86l256 555h99l-260 -555h258v222h92v-222h69v-86h-69v-184h-92v184h-353z" />
<glyph unicode="&#xbd;" horiz-adv-x="1546" d="M123 1352v82h239v-826h-96v744h-143zM301 0l719 1436h102l-719 -1436h-102zM969 0v82q0 60 19.5 112.5t51.5 90.5t70 72t76 65t70 62.5t51.5 70.5t19.5 82q0 53 -35 90t-86 37q-57 0 -96.5 -42.5t-42.5 -107.5h-86q4 102 69 167t156 65q88 0 152.5 -62t64.5 -155 q0 -51 -20 -95.5t-51.5 -78.5t-70 -66.5t-77 -64.5t-70 -66.5t-51.5 -79.5t-20 -96h360v-82h-454z" />
<glyph unicode="&#xbe;" horiz-adv-x="1644" d="M123 821v17h92v-17q0 -59 38 -99t95 -40q56 0 94.5 40.5t38.5 98.5v144q0 45 -29 76.5t-71 31.5h-84v82l149 197h-276v82h381v-78l-150 -199q70 -18 120 -71t50 -121v-144q0 -89 -64.5 -155t-152.5 -66h-12q-90 0 -154.5 64t-64.5 157zM440 0l719 1436h103l-719 -1436 h-103zM1008 184v86l256 555h98l-260 -555h258v222h92v-222h70v-86h-70v-184h-92v184h-352z" />
<glyph unicode="&#xbf;" horiz-adv-x="892" d="M82 -70q0 77 18.5 139.5t48.5 106.5t66 84.5t72.5 83.5t67 92t49.5 121t20 160h104q-1 -99 -20 -179t-49 -133.5t-66 -98.5t-71.5 -84.5t-65 -80.5t-48 -97t-18.5 -124q0 -105 74.5 -176.5t181.5 -71.5q108 0 181 74.5t78 185.5h106q-3 -160 -108 -261t-257 -101 q-156 0 -260 99t-104 261zM403 881v143h144v-143h-144z" />
<glyph unicode="&#xc0;" horiz-adv-x="1019" d="M143 0v561l256 873h222l256 -873v-561h-107v489h-520v-489h-107zM256 588h508l-215 747h-78zM264 1823h144l219 -250h-111z" />
<glyph unicode="&#xc1;" horiz-adv-x="1019" d="M143 0v561l256 873h222l256 -873v-561h-107v489h-520v-489h-107zM256 588h508l-215 747h-78zM389 1573l219 250h144l-252 -250h-111z" />
<glyph unicode="&#xc2;" horiz-adv-x="1019" d="M143 0v561l256 873h222l256 -873v-561h-107v489h-520v-489h-107zM254 1573l182 250h144l186 -250h-113l-145 178l-143 -178h-111zM256 588h508l-215 747h-78z" />
<glyph unicode="&#xc3;" horiz-adv-x="1019" d="M143 0v561l256 873h222l256 -873v-561h-107v489h-520v-489h-107zM205 1618q8 71 60 128.5t118 57.5q47 0 133.5 -51t126.5 -51q35 0 57 27.5t27 62.5h86q-8 -72 -57.5 -129t-112.5 -57q-40 0 -88.5 25.5t-94 51t-77.5 25.5q-36 0 -60.5 -26.5t-31.5 -63.5h-86zM256 588 h508l-215 747h-78z" />
<glyph unicode="&#xc4;" horiz-adv-x="1019" d="M143 0v561l256 873h222l256 -873v-561h-107v489h-520v-489h-107zM256 588h508l-215 747h-78zM266 1679v144h125v-144h-125zM627 1679v144h125v-144h-125z" />
<glyph unicode="&#xc5;" horiz-adv-x="1019" d="M143 0v561l256 873h222l256 -873v-561h-107v489h-520v-489h-107zM256 588h508l-215 747h-78zM358 1706q0 63 44 107.5t106 44.5t106.5 -44.5t44.5 -107.5q0 -61 -44.5 -105.5t-106.5 -44.5t-106 44t-44 106zM432 1706q0 -33 21.5 -54.5t54.5 -21.5q35 0 56.5 21.5 t21.5 54.5q0 35 -21.5 56.5t-56.5 21.5q-34 0 -55 -21.5t-21 -56.5z" />
<glyph unicode="&#xc6;" horiz-adv-x="1314" d="M143 0v569l256 865h795v-99h-436v-528h387v-98h-387v-611h454v-98h-561v489h-401v-489h-107zM252 588h399v747h-182z" />
<glyph unicode="&#xc7;" horiz-adv-x="997" d="M143 340v756q0 149 105.5 253.5t253.5 104.5h14q149 0 253.5 -104.5t104.5 -253.5h-106q-2 107 -76.5 181.5t-181.5 74.5q-110 0 -185 -74.5t-75 -183.5v-756q0 -109 75 -184.5t185 -75.5q109 0 183.5 74.5t74.5 183.5v10h106v-8q0 -147 -101 -250t-247 -108v-54h23 q60 0 103.5 -43.5t43.5 -103.5q0 -61 -43.5 -104.5t-103.5 -43.5h-127v82h115q28 0 46.5 19t18.5 47t-18.5 45.5t-46.5 17.5h-93v144q-129 20 -215 120t-86 234z" />
<glyph unicode="&#xc8;" d="M164 0v1434h643v-99h-537v-528h488v-98h-488v-611h555v-98h-661zM246 1823h143l219 -250h-110z" />
<glyph unicode="&#xc9;" d="M164 0v1434h643v-99h-537v-528h488v-98h-488v-611h555v-98h-661zM371 1573l219 250h143l-252 -250h-110z" />
<glyph unicode="&#xca;" d="M164 0v1434h643v-99h-537v-528h488v-98h-488v-611h555v-98h-661zM213 1573l182 250h144l186 -250h-113l-145 178l-143 -178h-111z" />
<glyph unicode="&#xcb;" d="M164 0v1434h643v-99h-537v-528h488v-98h-488v-611h555v-98h-661zM225 1679v144h125v-144h-125zM586 1679v144h125v-144h-125z" />
<glyph unicode="&#xcc;" horiz-adv-x="434" d="M-31 1823h144l219 -250h-111zM164 0v1434h106v-1434h-106z" />
<glyph unicode="&#xcd;" horiz-adv-x="434" d="M106 1573l220 250h143l-252 -250h-111zM164 0v1434h106v-1434h-106z" />
<glyph unicode="&#xce;" horiz-adv-x="434" d="M-39 1573l182 250h144l186 -250h-113l-145 178l-143 -178h-111zM164 0v1434h106v-1434h-106z" />
<glyph unicode="&#xcf;" horiz-adv-x="434" d="M-25 1679v144h125v-144h-125zM164 0v1434h106v-1434h-106zM336 1679v144h125v-144h-125z" />
<glyph unicode="&#xd0;" horiz-adv-x="1019" d="M41 709v98h125v627h352q149 0 254 -106t105 -255v-713q0 -149 -105 -254.5t-254 -105.5h-352v709h-125zM272 98h240q109 0 183.5 74.5t74.5 183.5v715q0 110 -74.5 185t-183.5 75h-240v-524h220v-98h-220v-611z" />
<glyph unicode="&#xd1;" horiz-adv-x="1060" d="M164 0v1434h133l465 -1153l31 -91l8 3l-8 90v1151h104v-1434h-133l-463 1145l-33 98l-8 -2l8 -104v-1137h-104zM225 1618q8 71 60 128.5t118 57.5q47 0 134 -51t127 -51q35 0 57 27.5t27 62.5h86q-8 -72 -57.5 -129t-112.5 -57q-40 0 -88.5 25.5t-94.5 51t-78 25.5 q-36 0 -60.5 -26.5t-31.5 -63.5h-86z" />
<glyph unicode="&#xd2;" horiz-adv-x="1042" d="M143 340v756q0 149 105 253.5t254 104.5h39q149 0 253.5 -104.5t104.5 -253.5v-758q0 -149 -104.5 -253.5t-253.5 -104.5h-39q-149 0 -254 105.5t-105 254.5zM250 338q0 -109 74.5 -184.5t183.5 -75.5h27q109 0 183.5 74.5t74.5 183.5v758q0 109 -74.5 183.5t-183.5 74.5 h-27q-109 0 -183.5 -74.5t-74.5 -183.5v-756zM276 1823h144l219 -250h-111z" />
<glyph unicode="&#xd3;" horiz-adv-x="1042" d="M143 340v756q0 149 105 253.5t254 104.5h39q149 0 253.5 -104.5t104.5 -253.5v-758q0 -149 -104.5 -253.5t-253.5 -104.5h-39q-149 0 -254 105.5t-105 254.5zM250 338q0 -109 74.5 -184.5t183.5 -75.5h27q109 0 183.5 74.5t74.5 183.5v758q0 109 -74.5 183.5t-183.5 74.5 h-27q-109 0 -183.5 -74.5t-74.5 -183.5v-756zM401 1573l220 250h143l-252 -250h-111z" />
<glyph unicode="&#xd4;" horiz-adv-x="1042" d="M143 340v756q0 149 105 253.5t254 104.5h39q149 0 253.5 -104.5t104.5 -253.5v-758q0 -149 -104.5 -253.5t-253.5 -104.5h-39q-149 0 -254 105.5t-105 254.5zM250 338q0 -109 74.5 -184.5t183.5 -75.5h27q109 0 183.5 74.5t74.5 183.5v758q0 109 -74.5 183.5t-183.5 74.5 h-27q-109 0 -183.5 -74.5t-74.5 -183.5v-756zM264 1573l182 250h144l186 -250h-112l-146 178l-143 -178h-111z" />
<glyph unicode="&#xd5;" horiz-adv-x="1042" d="M143 340v756q0 149 105 253.5t254 104.5h39q149 0 253.5 -104.5t104.5 -253.5v-758q0 -149 -104.5 -253.5t-253.5 -104.5h-39q-149 0 -254 105.5t-105 254.5zM217 1618q8 71 60 128.5t118 57.5q47 0 133.5 -51t126.5 -51q35 0 57 27.5t27 62.5h86q-8 -72 -57.5 -129 t-112.5 -57q-40 0 -88.5 25.5t-94 51t-77.5 25.5q-36 0 -60.5 -26.5t-31.5 -63.5h-86zM250 338q0 -109 74.5 -184.5t183.5 -75.5h27q109 0 183.5 74.5t74.5 183.5v758q0 109 -74.5 183.5t-183.5 74.5h-27q-109 0 -183.5 -74.5t-74.5 -183.5v-756z" />
<glyph unicode="&#xd6;" horiz-adv-x="1042" d="M143 340v756q0 149 105 253.5t254 104.5h39q149 0 253.5 -104.5t104.5 -253.5v-758q0 -149 -104.5 -253.5t-253.5 -104.5h-39q-149 0 -254 105.5t-105 254.5zM250 338q0 -109 74.5 -184.5t183.5 -75.5h27q109 0 183.5 74.5t74.5 183.5v758q0 109 -74.5 183.5t-183.5 74.5 h-27q-109 0 -183.5 -74.5t-74.5 -183.5v-756zM279 1679v144h124v-144h-124zM639 1679v144h125v-144h-125z" />
<glyph unicode="&#xd7;" horiz-adv-x="1017" d="M133 297l303 301l-303 303l72 72l305 -301l301 301l74 -72l-303 -303l303 -301l-74 -74l-301 303l-303 -301z" />
<glyph unicode="&#xd8;" horiz-adv-x="1042" d="M143 340v756q0 149 105 253.5t254 104.5h39q106 0 192 -55l15 35h98l-39 -99q92 -106 92 -239v-758q0 -149 -104.5 -253.5t-253.5 -104.5h-39q-103 0 -193 55l-14 -35h-100l38 98q-90 111 -90 242zM250 338q0 -68 26 -119l416 1079q-63 54 -157 54h-27 q-109 0 -183.5 -74.5t-74.5 -183.5v-756zM350 131q65 -53 158 -53h27q109 0 183.5 74.5t74.5 183.5v758q0 64 -29 123z" />
<glyph unicode="&#xd9;" horiz-adv-x="1062" d="M154 340v1094h106v-1096q0 -109 75 -184.5t185 -75.5h25q109 0 183.5 74.5t74.5 183.5v1098h106v-1096q0 -149 -104.5 -253.5t-253.5 -104.5h-39q-148 0 -253 105.5t-105 254.5zM287 1823h143l219 -250h-110z" />
<glyph unicode="&#xda;" horiz-adv-x="1062" d="M154 340v1094h106v-1096q0 -109 75 -184.5t185 -75.5h25q109 0 183.5 74.5t74.5 183.5v1098h106v-1096q0 -149 -104.5 -253.5t-253.5 -104.5h-39q-148 0 -253 105.5t-105 254.5zM414 1573l219 250h143l-252 -250h-110z" />
<glyph unicode="&#xdb;" horiz-adv-x="1062" d="M154 340v1094h106v-1096q0 -109 75 -184.5t185 -75.5h25q109 0 183.5 74.5t74.5 183.5v1098h106v-1096q0 -149 -104.5 -253.5t-253.5 -104.5h-39q-148 0 -253 105.5t-105 254.5zM274 1573l183 250h143l186 -250h-112l-146 178l-143 -178h-111z" />
<glyph unicode="&#xdc;" horiz-adv-x="1062" d="M154 340v1094h106v-1096q0 -109 75 -184.5t185 -75.5h25q109 0 183.5 74.5t74.5 183.5v1098h106v-1096q0 -149 -104.5 -253.5t-253.5 -104.5h-39q-148 0 -253 105.5t-105 254.5zM289 1679v144h125v-144h-125zM649 1679v144h125v-144h-125z" />
<glyph unicode="&#xdd;" horiz-adv-x="933" d="M51 1434h119l297 -609l299 609h117l-361 -752v-682h-108v682zM301 1573l219 250h144l-252 -250h-111z" />
<glyph unicode="&#xde;" horiz-adv-x="919" d="M164 0v1434h106v-217h258q123 0 211 -87.5t88 -211.5v-312q0 -126 -87.5 -213.5t-211.5 -87.5h-258v-305h-106zM270 403h252q82 0 139.5 57.5t57.5 139.5v315q0 82 -57.5 140.5t-139.5 58.5h-252v-711z" />
<glyph unicode="&#xdf;" horiz-adv-x="1046" d="M143 2v1090q0 151 100.5 256.5t243.5 105.5h17q140 0 238 -98.5t98 -229.5v-139q-97 -8 -161.5 -53.5t-64.5 -110.5q0 -43 19 -83t48.5 -72t66 -64t73 -67t66 -73.5t48.5 -90.5t19 -111q0 -119 -81.5 -200.5t-202.5 -81.5q-115 0 -196 82t-81 200v12h99v-24 q0 -75 53.5 -128.5t128.5 -53.5q76 0 130 53.5t54 128.5q0 50 -19 94t-49.5 77t-67 65t-73 65.5t-67 70t-49.5 86.5t-19 109q0 89 66 149t163 76v48q0 119 -71 197.5t-176 78.5q-107 0 -182.5 -79t-75.5 -197v-1088h-95z" />
<glyph unicode="&#xe0;" horiz-adv-x="905" d="M92 285q0 129 88.5 219.5t220.5 99.5l275 21v90q0 101 -59 171t-160 70q-82 0 -136.5 -48.5t-74.5 -127.5h-96q18 117 100 190.5t207 73.5q149 0 232 -90t83 -227v-727h-96v96q-122 -116 -273 -116q-128 0 -219.5 87t-91.5 218zM188 287q0 -93 66.5 -157t159.5 -64 q112 0 187 64.5t75 152.5v252l-270 -17q-93 -6 -155.5 -72t-62.5 -159zM236 1413h143l219 -250h-111z" />
<glyph unicode="&#xe1;" horiz-adv-x="905" d="M92 285q0 129 88.5 219.5t220.5 99.5l275 21v90q0 101 -59 171t-160 70q-82 0 -136.5 -48.5t-74.5 -127.5h-96q18 117 100 190.5t207 73.5q149 0 232 -90t83 -227v-727h-96v96q-122 -116 -273 -116q-128 0 -219.5 87t-91.5 218zM188 287q0 -93 66.5 -157t159.5 -64 q112 0 187 64.5t75 152.5v252l-270 -17q-93 -6 -155.5 -72t-62.5 -159zM340 1163l219 250h143l-251 -250h-111z" />
<glyph unicode="&#xe2;" horiz-adv-x="905" d="M92 285q0 129 88.5 219.5t220.5 99.5l275 21v90q0 101 -59 171t-160 70q-82 0 -136.5 -48.5t-74.5 -127.5h-96q18 117 100 190.5t207 73.5q149 0 232 -90t83 -227v-727h-96v96q-122 -116 -273 -116q-128 0 -219.5 87t-91.5 218zM188 287q0 -93 66.5 -157t159.5 -64 q112 0 187 64.5t75 152.5v252l-270 -17q-93 -6 -155.5 -72t-62.5 -159zM197 1163l182 250h143l187 -250h-113l-145 178l-144 -178h-110z" />
<glyph unicode="&#xe3;" horiz-adv-x="905" d="M92 285q0 129 88.5 219.5t220.5 99.5l275 21v90q0 101 -59 171t-160 70q-82 0 -136.5 -48.5t-74.5 -127.5h-96q18 117 100 190.5t207 73.5q149 0 232 -90t83 -227v-727h-96v96q-122 -116 -273 -116q-128 0 -219.5 87t-91.5 218zM147 1208q8 71 60.5 129t118.5 58 q47 0 133.5 -51.5t126.5 -51.5q35 0 57 27.5t27 62.5h86q-8 -72 -57.5 -129t-112.5 -57q-40 0 -88.5 25.5t-94 51t-77.5 25.5q-36 0 -61.5 -27t-31.5 -63h-86zM188 287q0 -93 66.5 -157t159.5 -64q112 0 187 64.5t75 152.5v252l-270 -17q-93 -6 -155.5 -72t-62.5 -159z" />
<glyph unicode="&#xe4;" horiz-adv-x="905" d="M92 285q0 129 88.5 219.5t220.5 99.5l275 21v90q0 101 -59 171t-160 70q-82 0 -136.5 -48.5t-74.5 -127.5h-96q18 117 100 190.5t207 73.5q149 0 232 -90t83 -227v-727h-96v96q-122 -116 -273 -116q-128 0 -219.5 87t-91.5 218zM188 287q0 -93 66.5 -157t159.5 -64 q112 0 187 64.5t75 152.5v252l-270 -17q-93 -6 -155.5 -72t-62.5 -159zM209 1270v143h125v-143h-125zM569 1270v143h125v-143h-125z" />
<glyph unicode="&#xe5;" horiz-adv-x="905" d="M92 285q0 129 88.5 219.5t220.5 99.5l275 21v90q0 101 -59 171t-160 70q-82 0 -136.5 -48.5t-74.5 -127.5h-96q18 117 100 190.5t207 73.5q149 0 232 -90t83 -227v-727h-96v96q-122 -116 -273 -116q-128 0 -219.5 87t-91.5 218zM188 287q0 -93 66.5 -157t159.5 -64 q112 0 187 64.5t75 152.5v252l-270 -17q-93 -6 -155.5 -72t-62.5 -159zM301 1296q0 63 44 107.5t106 44.5t106.5 -44.5t44.5 -107.5q0 -61 -44.5 -105t-106.5 -44t-106 44t-44 105zM375 1296q0 -32 21.5 -53.5t54.5 -21.5q35 0 56 21t21 54q0 35 -21 56.5t-56 21.5 q-34 0 -55 -21.5t-21 -56.5z" />
<glyph unicode="&#xe6;" horiz-adv-x="1374" d="M92 285q0 127 89.5 217t207.5 90h238v123q0 101 -54 171t-143 70q-78 0 -128 -48t-64 -128h-91q15 117 91.5 190.5t191.5 73.5q78 0 143 -38.5t107 -106.5q45 68 115 106.5t153 38.5q134 0 218.5 -92t84.5 -225v-221h-528v-197q0 -98 65 -169.5t158 -71.5q90 0 149 66 t62 165h94q0 -131 -84.5 -225t-218.5 -94q-101 0 -171.5 47.5t-100.5 99.5q-55 -77 -121.5 -112t-171.5 -35q-115 0 -203 88.5t-88 216.5zM184 287q0 -92 63 -155.5t148 -63.5q101 0 166.5 60t65.5 148v230h-232q-85 0 -148 -63.5t-63 -155.5zM723 592h434v123 q0 99 -59.5 170t-151.5 71q-93 0 -158 -68.5t-65 -164.5v-131z" />
<glyph unicode="&#xe7;" horiz-adv-x="907" d="M123 299v428q0 134 94.5 225.5t247.5 91.5q139 0 231.5 -90.5t100.5 -222.5h-97q-5 99 -70.5 162t-164.5 63q-103 0 -175.5 -71.5t-72.5 -169.5v-406q0 -98 72 -169.5t176 -71.5q100 0 171 66.5t75 164.5h94q-8 -137 -101 -227.5t-237 -91.5v-54h22q60 0 104 -43.5 t44 -103.5q0 -61 -44 -104.5t-104 -43.5h-127v82h115q28 0 47 19t19 47q0 27 -19 45t-47 18h-92v146q-121 23 -191.5 108.5t-70.5 202.5z" />
<glyph unicode="&#xe8;" d="M123 297v430q0 134 94.5 225.5t247.5 91.5q151 0 245.5 -91.5t94.5 -225.5v-244h-588v-174q0 -98 71.5 -169.5t174.5 -71.5q101 0 172 66.5t76 164.5h94q-8 -140 -101 -229.5t-239 -89.5q-153 0 -247.5 91.5t-94.5 225.5zM217 571h494v144q0 98 -72.5 169.5t-175.5 71.5 t-174.5 -71.5t-71.5 -169.5v-144zM229 1413h144l219 -250h-111z" />
<glyph unicode="&#xe9;" d="M123 297v430q0 134 94.5 225.5t247.5 91.5q151 0 245.5 -91.5t94.5 -225.5v-244h-588v-174q0 -98 71.5 -169.5t174.5 -71.5q101 0 172 66.5t76 164.5h94q-8 -140 -101 -229.5t-239 -89.5q-153 0 -247.5 91.5t-94.5 225.5zM217 571h494v144q0 98 -72.5 169.5t-175.5 71.5 t-174.5 -71.5t-71.5 -169.5v-144zM350 1163l219 250h144l-252 -250h-111z" />
<glyph unicode="&#xea;" d="M123 297v430q0 134 94.5 225.5t247.5 91.5q151 0 245.5 -91.5t94.5 -225.5v-244h-588v-174q0 -98 71.5 -169.5t174.5 -71.5q101 0 172 66.5t76 164.5h94q-8 -140 -101 -229.5t-239 -89.5q-153 0 -247.5 91.5t-94.5 225.5zM207 1163l182 250h143l187 -250h-113l-145 178 l-144 -178h-110zM217 571h494v144q0 98 -72.5 169.5t-175.5 71.5t-174.5 -71.5t-71.5 -169.5v-144z" />
<glyph unicode="&#xeb;" d="M123 297v430q0 134 94.5 225.5t247.5 91.5q151 0 245.5 -91.5t94.5 -225.5v-244h-588v-174q0 -98 71.5 -169.5t174.5 -71.5q101 0 172 66.5t76 164.5h94q-8 -140 -101 -229.5t-239 -89.5q-153 0 -247.5 91.5t-94.5 225.5zM217 571h494v144q0 98 -72.5 169.5t-175.5 71.5 t-174.5 -71.5t-71.5 -169.5v-144zM221 1270v143h125v-143h-125zM582 1270v143h125v-143h-125z" />
<glyph unicode="&#xec;" horiz-adv-x="413" d="M-39 1413h143l220 -250h-111zM158 0v1024h98v-1024h-98z" />
<glyph unicode="&#xed;" horiz-adv-x="413" d="M100 1163l219 250h144l-252 -250h-111zM158 0v1024h98v-1024h-98z" />
<glyph unicode="&#xee;" horiz-adv-x="413" d="M-47 1163l182 250h144l186 -250h-113l-145 178l-144 -178h-110zM158 0v1024h98v-1024h-98z" />
<glyph unicode="&#xef;" horiz-adv-x="413" d="M-35 1270v143h125v-143h-125zM158 0v1024h98v-1024h-98zM326 1270v143h125v-143h-125z" />
<glyph unicode="&#xf0;" horiz-adv-x="1011" d="M123 344v234q0 151 105.5 256.5t256.5 105.5h13q81 0 150.5 -50.5t105.5 -107.5v285q0 21 -6 57l-203 -73v90l172 65q-86 127 -217 127h-140v101h146q96 0 179 -52t134 -139l168 76v-94l-137 -64q10 -44 10 -92v-727q0 -151 -105.5 -256.5t-256.5 -105.5h-13 q-151 0 -256.5 106.5t-105.5 257.5zM229 342q0 -110 76.5 -186t186.5 -76t186 75t76 185v235q0 107 -78 187t-172 80h-12q-110 0 -186.5 -78t-76.5 -189v-233z" />
<glyph unicode="&#xf1;" horiz-adv-x="958" d="M143 0v1024h95v-106q42 53 119.5 89.5t154.5 36.5q128 0 220.5 -93.5t92.5 -223.5v-727h-94v711q0 100 -68.5 172.5t-164.5 72.5q-102 0 -181 -69.5t-79 -167.5v-719h-95zM174 1208q8 72 60.5 129.5t117.5 57.5q47 0 133.5 -51.5t126.5 -51.5q35 0 57 27.5t27 62.5h86 q-8 -72 -57.5 -129t-112.5 -57q-40 0 -88.5 25.5t-94 51t-77.5 25.5q-36 0 -60.5 -26.5t-31.5 -63.5h-86z" />
<glyph unicode="&#xf2;" d="M123 297q0 -134 94.5 -225.5t247.5 -91.5q151 0 245.5 91.5t94.5 225.5v430q0 134 -94.5 225.5t-245.5 91.5q-153 0 -247.5 -91.5t-94.5 -225.5v-430zM217 309v406q0 98 71.5 169.5t174.5 71.5t175.5 -71.5t72.5 -169.5v-406q0 -98 -72 -169.5t-174 -71.5 q-104 0 -176 71.5t-72 169.5zM219 1413h143l220 -250h-111z" />
<glyph unicode="&#xf3;" d="M123 297q0 -134 94.5 -225.5t247.5 -91.5q151 0 245.5 91.5t94.5 225.5v430q0 134 -94.5 225.5t-245.5 91.5q-153 0 -247.5 -91.5t-94.5 -225.5v-430zM217 309v406q0 98 71.5 169.5t174.5 71.5t175.5 -71.5t72.5 -169.5v-406q0 -98 -72 -169.5t-174 -71.5 q-104 0 -176 71.5t-72 169.5zM346 1163l219 250h144l-252 -250h-111z" />
<glyph unicode="&#xf4;" d="M123 297q0 -134 94.5 -225.5t247.5 -91.5q151 0 245.5 91.5t94.5 225.5v430q0 134 -94.5 225.5t-245.5 91.5q-153 0 -247.5 -91.5t-94.5 -225.5v-430zM207 1163l182 250h143l187 -250h-113l-145 178l-144 -178h-110zM217 309v406q0 98 71.5 169.5t174.5 71.5t175.5 -71.5 t72.5 -169.5v-406q0 -98 -72 -169.5t-174 -71.5q-104 0 -176 71.5t-72 169.5z" />
<glyph unicode="&#xf5;" d="M123 297q0 -134 94.5 -225.5t247.5 -91.5q151 0 245.5 91.5t94.5 225.5v430q0 134 -94.5 225.5t-245.5 91.5q-153 0 -247.5 -91.5t-94.5 -225.5v-430zM160 1208q8 72 60.5 129.5t117.5 57.5q47 0 133.5 -51.5t126.5 -51.5q35 0 57 27.5t27 62.5h86q-8 -72 -57.5 -129 t-112.5 -57q-40 0 -88.5 25.5t-94 51t-77.5 25.5q-36 0 -60.5 -26.5t-31.5 -63.5h-86zM217 309v406q0 98 71.5 169.5t174.5 71.5t175.5 -71.5t72.5 -169.5v-406q0 -98 -72 -169.5t-174 -71.5q-104 0 -176 71.5t-72 169.5z" />
<glyph unicode="&#xf6;" d="M123 297q0 -134 94.5 -225.5t247.5 -91.5q151 0 245.5 91.5t94.5 225.5v430q0 134 -94.5 225.5t-245.5 91.5q-153 0 -247.5 -91.5t-94.5 -225.5v-430zM217 309v406q0 98 71.5 169.5t174.5 71.5t175.5 -71.5t72.5 -169.5v-406q0 -98 -72 -169.5t-174 -71.5 q-104 0 -176 71.5t-72 169.5zM221 1270v143h125v-143h-125zM582 1270v143h125v-143h-125z" />
<glyph unicode="&#xf7;" horiz-adv-x="1161" d="M133 526v103h895v-103h-895zM508 162v143h143v-143h-143zM508 854v143h143v-143h-143z" />
<glyph unicode="&#xf8;" d="M123 297v430q0 134 94.5 225.5t247.5 91.5q108 0 197 -53l16 33h96l-45 -90q76 -92 76 -207v-430q0 -134 -94.5 -225.5t-245.5 -91.5q-100 0 -201 53l-16 -33h-96l47 88q-76 88 -76 209zM217 309q0 -57 33 -119l366 713q-68 53 -153 53q-103 0 -174.5 -71.5t-71.5 -169.5 v-406zM309 119q70 -51 156 -51q102 0 174 71.5t72 169.5v406q0 62 -33 121z" />
<glyph unicode="&#xf9;" horiz-adv-x="958" d="M133 297v727h94v-711q0 -100 69 -172.5t165 -72.5q102 0 181 69.5t79 167.5v719h94v-1024h-94v106q-42 -53 -120 -89.5t-155 -36.5q-128 0 -220.5 93.5t-92.5 223.5zM236 1413h143l219 -250h-111z" />
<glyph unicode="&#xfa;" horiz-adv-x="958" d="M133 297v727h94v-711q0 -100 69 -172.5t165 -72.5q102 0 181 69.5t79 167.5v719h94v-1024h-94v106q-42 -53 -120 -89.5t-155 -36.5q-128 0 -220.5 93.5t-92.5 223.5zM346 1163l219 250h144l-252 -250h-111z" />
<glyph unicode="&#xfb;" horiz-adv-x="958" d="M133 297v727h94v-711q0 -100 69 -172.5t165 -72.5q102 0 181 69.5t79 167.5v719h94v-1024h-94v106q-42 -53 -120 -89.5t-155 -36.5q-128 0 -220.5 93.5t-92.5 223.5zM223 1163l183 250h143l186 -250h-112l-146 178l-143 -178h-111z" />
<glyph unicode="&#xfc;" horiz-adv-x="958" d="M133 297v727h94v-711q0 -100 69 -172.5t165 -72.5q102 0 181 69.5t79 167.5v719h94v-1024h-94v106q-42 -53 -120 -89.5t-155 -36.5q-128 0 -220.5 93.5t-92.5 223.5zM236 1270v143h124v-143h-124zM596 1270v143h125v-143h-125z" />
<glyph unicode="&#xfd;" horiz-adv-x="890" d="M41 1024h102l301 -866l301 866h105l-502 -1393h-96l137 383zM319 1163l220 250h143l-252 -250h-111z" />
<glyph unicode="&#xfe;" horiz-adv-x="948" d="M143 -369v1805h95v-514q103 122 247 122q151 0 245.5 -91.5t94.5 -225.5v-430q0 -134 -94.5 -225.5t-245.5 -91.5q-69 0 -134.5 33.5t-112.5 86.5v-469h-95zM238 309q0 -98 71 -169.5t174 -71.5t175.5 71.5t72.5 169.5v406q0 98 -72 169.5t-174 71.5q-101 0 -174 -69 t-73 -164v-414z" />
<glyph unicode="&#xff;" horiz-adv-x="890" d="M41 1024h102l301 -866l301 866h105l-502 -1393h-96l137 383zM203 1270v143h125v-143h-125zM563 1270v143h125v-143h-125z" />
<glyph unicode="&#x152;" horiz-adv-x="1323" d="M143 362v711q0 149 106 255t255 106h690v-99h-434v-528h385v-98h-385v-611h450v-98h-706q-149 0 -255 106.5t-106 255.5zM250 360q0 -110 75 -186t185 -76h143v1233h-143q-110 0 -185 -75t-75 -185v-711z" />
<glyph unicode="&#x153;" horiz-adv-x="1386" d="M123 297v430q0 134 85.5 225.5t221.5 91.5q81 0 149 -40t113 -111q45 70 114.5 110.5t151.5 40.5q135 0 220.5 -92t85.5 -225v-244h-525v-174q0 -98 62.5 -169.5t154.5 -71.5q91 0 152 66t66 165h90q-8 -140 -91.5 -229.5t-214.5 -89.5q-82 0 -151.5 40t-114.5 109 q-46 -70 -113.5 -109.5t-148.5 -39.5q-136 0 -221.5 91.5t-85.5 225.5zM211 309q0 -99 62 -170t157 -71q92 0 153.5 71t61.5 170v414q0 96 -63 164.5t-154 68.5q-93 0 -155 -71t-62 -170v-406zM739 571h435v144q0 99 -62.5 170t-155.5 71q-91 0 -154 -68.5t-63 -164.5v-152z " />
<glyph unicode="&#x178;" horiz-adv-x="933" d="M51 1434h119l297 -609l299 609h117l-361 -752v-682h-108v682zM223 1679v144h125v-144h-125zM584 1679v144h125v-144h-125z" />
<glyph unicode="&#x2c6;" horiz-adv-x="512" d="M0 1163l182 250h144l186 -250h-113l-145 178l-143 -178h-111z" />
<glyph unicode="&#x2dc;" horiz-adv-x="606" d="M-2 1208q8 72 60.5 129.5t117.5 57.5q47 0 133.5 -51.5t126.5 -51.5q35 0 57 27.5t27 62.5h86q-8 -72 -57.5 -129t-112.5 -57q-40 0 -88.5 25.5t-94 51t-77.5 25.5q-36 0 -60.5 -26.5t-31.5 -63.5h-86z" />
<glyph unicode="&#x2000;" horiz-adv-x="929" />
<glyph unicode="&#x2001;" horiz-adv-x="1858" />
<glyph unicode="&#x2002;" horiz-adv-x="929" />
<glyph unicode="&#x2003;" horiz-adv-x="1858" />
<glyph unicode="&#x2004;" horiz-adv-x="619" />
<glyph unicode="&#x2005;" horiz-adv-x="464" />
<glyph unicode="&#x2006;" horiz-adv-x="309" />
<glyph unicode="&#x2007;" horiz-adv-x="309" />
<glyph unicode="&#x2008;" horiz-adv-x="232" />
<glyph unicode="&#x2009;" horiz-adv-x="371" />
<glyph unicode="&#x200a;" horiz-adv-x="103" />
<glyph unicode="&#x2010;" horiz-adv-x="722" d="M133 528v103h457v-103h-457z" />
<glyph unicode="&#x2011;" horiz-adv-x="722" d="M133 528v103h457v-103h-457z" />
<glyph unicode="&#x2012;" horiz-adv-x="722" d="M133 528v103h457v-103h-457z" />
<glyph unicode="&#x2013;" horiz-adv-x="774" d="M0 557v98h774v-98h-774z" />
<glyph unicode="&#x2014;" horiz-adv-x="1466" d="M0 557v98h1466v-98h-1466z" />
<glyph unicode="&#x2018;" horiz-adv-x="495" d="M123 1042l137 392h72l-70 -392h-139z" />
<glyph unicode="&#x2019;" horiz-adv-x="495" d="M164 1042l69 392h140l-140 -392h-69z" />
<glyph unicode="&#x201a;" horiz-adv-x="495" d="M123 -246l70 389h139l-139 -389h-70z" />
<glyph unicode="&#x201c;" horiz-adv-x="776" d="M123 1042l137 392h72l-70 -392h-139zM403 1042l138 392h71l-69 -392h-140z" />
<glyph unicode="&#x201d;" horiz-adv-x="776" d="M164 1042l69 392h140l-140 -392h-69zM444 1042l70 392h139l-139 -392h-70z" />
<glyph unicode="&#x201e;" horiz-adv-x="776" d="M164 -246l69 389h140l-140 -389h-69zM444 -246l70 389h139l-139 -389h-70z" />
<glyph unicode="&#x2022;" horiz-adv-x="888" d="M156 750q0 121 86.5 207.5t208.5 86.5q121 0 207.5 -86t86.5 -208t-86.5 -208.5t-207.5 -86.5t-208 86.5t-87 208.5z" />
<glyph unicode="&#x2026;" horiz-adv-x="1228" d="M133 0v143h143v-143h-143zM543 0v143h143v-143h-143zM952 0v143h144v-143h-144z" />
<glyph unicode="&#x202f;" horiz-adv-x="371" />
<glyph unicode="&#x2039;" horiz-adv-x="616" d="M133 598l240 311h110l-243 -311l243 -311h-110z" />
<glyph unicode="&#x203a;" horiz-adv-x="616" d="M133 287l242 311l-242 311h109l241 -311l-241 -311h-109z" />
<glyph unicode="&#x205f;" horiz-adv-x="464" />
<glyph unicode="&#x20ac;" horiz-adv-x="1052" d="M92 530v105h101v153h-101v105h101v199q0 151 105.5 256.5t256.5 105.5h12q151 0 257 -105.5t106 -256.5h-107q-2 109 -77.5 184.5t-184.5 75.5q-110 0 -185 -76t-75 -186v-197h475v-105h-475v-153h410v-105h-410v-188q0 -111 75 -187.5t185 -76.5t186 76t76 186v10h107 v-8q0 -151 -106 -256.5t-257 -105.5h-12q-151 0 -256.5 106.5t-105.5 257.5v186h-101z" />
<glyph unicode="&#x2122;" horiz-adv-x="1386" d="M90 1368v66h436v-66h-184v-762h-74v762h-178zM684 606v828h86l186 -383h9l182 383h86v-828h-74v678h-8l-154 -317h-75l-158 317h-8v-678h-72z" />
<glyph unicode="&#x25fc;" horiz-adv-x="1024" d="M0 0v1024h1024v-1024h-1024z" />
<glyph unicode="&#xfb01;" horiz-adv-x="1042" d="M51 936v88h150v166q0 110 76.5 187t185.5 77q63 0 139 -37l-51 -74q-46 23 -88 23q-70 0 -118 -49t-48 -119v-174h586v-1024h-99v936h-487v-936h-96v936h-150zM770 1270v143h129v-143h-129z" />
<glyph unicode="&#xfb02;" horiz-adv-x="1028" d="M51 936v88h150v145q0 110 76.5 187.5t185.5 77.5h422v-1434h-94v1346h-328q-70 0 -118 -49.5t-48 -120.5v-152h268v-88h-268v-936h-96v936h-150z" />
</font>
</defs>
</svg>
