<?xml version="1.0" standalone="no"?>
<!DOCTYPE svg PUBLIC "-//W3C//DTD SVG 1.1//EN" "http://www.w3.org/Graphics/SVG/1.1/DTD/svg11.dtd" >
<svg xmlns="http://www.w3.org/2000/svg">
<metadata></metadata>
<defs>
<font id="decimaitalic" horiz-adv-x="970" >
<font-face units-per-em="2048" ascent="1536" descent="-512" />
<missing-glyph horiz-adv-x="450" />
<glyph horiz-adv-x="0" />
<glyph horiz-adv-x="682" />
<glyph unicode=" "  horiz-adv-x="450" />
<glyph unicode="&#x09;" horiz-adv-x="450" />
<glyph unicode="&#xa0;" horiz-adv-x="450" />
<glyph unicode="!" horiz-adv-x="528" d="M113 0l28 201h201l-29 -201h-200zM174 319l156 1115h166l-156 -1115h-166z" />
<glyph unicode="&#x22;" horiz-adv-x="729" d="M197 989l63 465h156l-137 -465h-82zM483 989l64 465h155l-137 -465h-82z" />
<glyph unicode="#" horiz-adv-x="1271" d="M137 393l21 154h207l92 323h-187l21 154h209l114 410h156l-117 -410h240l117 410h159l-116 -410h178l-21 -154h-198l-94 -323h180l-21 -154h-203l-110 -393h-158l109 393h-238l-110 -393h-156l111 393h-185zM518 547h240l92 323h-238z" />
<glyph unicode="$" horiz-adv-x="1048" d="M133 373l10 61h170l-10 -61q-12 -90 39 -152.5t141 -62.5h25q89 0 155.5 58.5t77.5 139.5q8 60 -5 108t-42.5 81.5t-70 61.5t-86 52.5t-90.5 50t-85 58.5t-68.5 72t-41 96.5t-2.5 128.5q19 132 115.5 233.5t226.5 131.5l14 102h162l-14 -102q130 -27 197 -131t44 -259 h-172q15 103 -31.5 168.5t-138.5 65.5q-87 0 -151.5 -57t-75.5 -142q-8 -59 18 -105t73.5 -78t106 -63t115.5 -69t102 -86t66.5 -125.5t7.5 -175.5q-20 -145 -121.5 -248.5t-240.5 -122.5l-14 -100h-162l14 100q-134 19 -206 123.5t-52 247.5z" />
<glyph unicode="%" horiz-adv-x="1789" d="M205 874l39 271q17 128 118 217.5t224 89.5h14q124 0 199.5 -89.5t58.5 -217.5l-39 -271q-19 -129 -119.5 -218t-224.5 -89h-14q-122 0 -198.5 90t-57.5 217zM367 870q-9 -63 26 -107t96 -44q59 0 108 44t58 105l39 281q8 62 -29 106.5t-98 44.5q-58 0 -105.5 -44.5 t-55.5 -106.5zM393 0l930 1436h172l-926 -1436h-176zM1034 285l37 270q19 129 118.5 218t221.5 89h16q124 0 199.5 -89t56.5 -218l-36 -270q-19 -127 -120 -217.5t-224 -90.5h-17q-122 0 -196.5 91t-55.5 217zM1194 283q-9 -65 27.5 -109.5t97.5 -44.5q58 0 105.5 44.5 t56.5 107.5l39 278q9 64 -26.5 109t-96.5 45q-58 0 -106.5 -45.5t-57.5 -108.5z" />
<glyph unicode="&#x26;" horiz-adv-x="1005" d="M113 358l41 293q13 99 73.5 175.5t149.5 115.5l-82 272l31 220h641l-23 -162h-471l-2 -15l223 -761l27 -123l41 299h172l-43 -316q-18 -124 -94 -209l45 -147h-187l-8 29q-96 -49 -192 -49h-13q-159 0 -255 110.5t-74 267.5zM285 356q-13 -91 41.5 -153t146.5 -62 q67 0 127 35l-178 615q-38 -23 -64 -61.5t-32 -80.5z" />
<glyph unicode="'" horiz-adv-x="495" d="M197 989l63 465h156l-137 -465h-82z" />
<glyph unicode="(" horiz-adv-x="669" d="M135 -10l152 1089q23 157 156 267t300 110l-22 -166q-101 0 -176.5 -61t-87.5 -152l-154 -1089q-12 -91 46 -153t159 -62l-23 -162q-167 0 -270 111t-80 268z" />
<glyph unicode=")" horiz-adv-x="671" d="M0 -389l23 162q100 0 174 61.5t86 153.5l153 1089q12 92 -44 152.5t-156 60.5l22 166q168 0 271.5 -110.5t80.5 -266.5l-151 -1089q-23 -157 -157.5 -268t-301.5 -111z" />
<glyph unicode="*" horiz-adv-x="704" d="M174 1192l59 131l146 -43l20 152h140l-21 -148l156 47l22 -125l-157 -55l75 -123l-122 -80l-74 119l-96 -119l-105 76l102 125z" />
<glyph unicode="+" horiz-adv-x="1198" d="M164 520l22 166h381l51 371h170l-51 -371h381l-22 -166h-381l-53 -375h-170l53 375h-381z" />
<glyph unicode="," horiz-adv-x="471" d="M100 -240l103 240h-66l29 201h201l-27 -187l-121 -254h-119z" />
<glyph unicode="-" horiz-adv-x="765" d="M164 520l22 160h500l-22 -160h-500z" />
<glyph unicode="." horiz-adv-x="466" d="M125 0l29 201h200l-28 -201h-201z" />
<glyph unicode="/" horiz-adv-x="741" d="M-39 0l748 1434h172l-752 -1434h-168z" />
<glyph unicode="0" horiz-adv-x="1011" d="M133 358l100 719q22 157 143.5 267t274.5 110h15q152 0 243.5 -110t69.5 -267l-102 -721q-22 -156 -144.5 -266t-275.5 -110h-15q-153 0 -242.5 110.5t-66.5 267.5zM299 356q-12 -91 39 -153t137 -62q85 0 152.5 61.5t79.5 151.5l102 721q12 91 -38 154t-136 63 q-85 0 -153.5 -63.5t-80.5 -153.5z" />
<glyph unicode="1" horiz-adv-x="563" d="M158 1272l22 162h359l-201 -1434h-172l178 1272h-186z" />
<glyph unicode="2" d="M41 0l20 150q14 99 60 186.5t109.5 152.5t137 124t147 113.5t135 108.5t104.5 120t53 137q12 85 -42 142.5t-140 57.5q-93 0 -164 -72t-86 -176h-172q26 177 155.5 293.5t290.5 116.5t256.5 -107.5t73.5 -267.5q-12 -88 -57.5 -167.5t-108 -140t-136 -118t-147 -112.5 t-135.5 -110.5t-105.5 -124.5t-53.5 -144h614l-23 -162h-786z" />
<glyph unicode="3" horiz-adv-x="985" d="M72 356l6 41h172l-6 -43q-13 -90 41 -151.5t147 -61.5q91 0 163 62t85 153l39 287q9 66 -31.5 114t-107.5 48h-154l23 153l278 314h-448l22 162h668l-23 -152l-289 -317q108 -14 180.5 -106t55.5 -214l-41 -287q-22 -157 -149 -267.5t-287 -110.5h-15q-160 0 -256 109.5 t-73 266.5z" />
<glyph unicode="4" horiz-adv-x="985" d="M63 303l23 160l594 971h184l-581 -965h333l52 369h172l-52 -369h119l-22 -166h-119l-43 -303h-172l43 303h-531z" />
<glyph unicode="5" horiz-adv-x="1024" d="M113 356l6 41h172l-6 -43q-13 -90 41 -151.5t147 -61.5q90 0 161.5 62.5t84.5 152.5l33 234q12 89 -43 152t-144 63h-14q-62 0 -113.5 -34t-75.5 -75l-151 47l158 691h624l-24 -166h-461l-82 -338q72 37 156 37h12q160 0 256 -109t74 -266l-33 -234q-22 -157 -149 -267.5 t-287 -110.5h-13q-160 0 -256 109.5t-73 266.5z" />
<glyph unicode="6" horiz-adv-x="1044" d="M131 356l102 719q22 158 146 268.5t283 110.5h10q160 0 253.5 -111t71.5 -270h-174q12 92 -39.5 154.5t-142.5 62.5q-89 0 -157.5 -63t-80.5 -154l-28 -194q100 88 223 88h14q160 0 257 -109t75 -266l-33 -234q-23 -157 -151 -267.5t-287 -110.5h-14q-159 0 -254.5 109.5 t-73.5 266.5zM301 354q-12 -90 44 -151.5t147 -61.5t162 62t83 153l33 234q14 89 -40.5 152t-145.5 63h-13q-77 0 -150.5 -64t-86.5 -151z" />
<glyph unicode="7" horiz-adv-x="819" d="M158 1272l22 162h717l-20 -150q-11 -75 -83.5 -235.5t-155 -322.5t-161.5 -367t-100 -359h-176q19 135 74 296.5t121.5 304.5t131.5 272.5t114.5 237t59.5 161.5h-544z" />
<glyph unicode="8" horiz-adv-x="1044" d="M133 358l10 86q13 90 64 168t129 133q-57 47 -81.5 119t-12.5 158l10 74q22 149 142.5 253.5t271.5 104.5h18q152 0 242.5 -104.5t68.5 -253.5l-10 -76q-12 -83 -57 -154.5t-111 -120.5q63 -55 90.5 -132.5t14.5 -168.5l-13 -88q-22 -157 -147.5 -266.5t-284.5 -109.5 h-18q-159 0 -254 110.5t-72 267.5zM303 356q-12 -90 44 -152.5t149 -62.5q88 0 158.5 61.5t82.5 151.5l13 88q13 91 -41.5 154t-145.5 63q-89 0 -162 -63t-86 -154zM414 1020q-11 -80 35 -139.5t129 -59.5h18q78 0 141.5 56.5t75.5 140.5l10 69q11 87 -38 146t-136 59 q-83 0 -149 -59.5t-76 -145.5z" />
<glyph unicode="9" horiz-adv-x="1044" d="M147 360h175q-14 -92 37.5 -154.5t142.5 -62.5q89 0 157 63t82 154l27 195q-100 -88 -223 -88h-15q-160 0 -256 109t-73 266l32 233q22 157 149.5 268t287.5 111h14q159 0 254.5 -110t73.5 -267l-101 -719q-23 -158 -147 -268t-283 -110h-10q-161 0 -254 110.5t-70 269.5 zM373 844q-12 -90 42 -152.5t144 -62.5h12q78 0 152 64t86 151l33 235q12 90 -43 151.5t-146 61.5t-163 -62.5t-84 -152.5z" />
<glyph unicode=":" horiz-adv-x="466" d="M96 0l29 201h201l-29 -201h-201zM211 823l29 201h200l-28 -201h-201z" />
<glyph unicode=";" horiz-adv-x="471" d="M72 -240l102 240h-65l28 201h201l-27 -187l-121 -254h-118zM225 823l27 201h201l-27 -201h-201z" />
<glyph unicode="&#x3c;" horiz-adv-x="1114" d="M164 522l20 150l901 383l-24 -176l-682 -283l604 -281l-27 -178z" />
<glyph unicode="=" horiz-adv-x="1173" d="M137 342l23 160h907l-23 -160h-907zM188 694l23 160h907l-22 -160h-908z" />
<glyph unicode="&#x3e;" horiz-adv-x="1114" d="M109 137l26 178l682 281l-604 283l25 176l794 -383l-20 -150z" />
<glyph unicode="?" horiz-adv-x="966" d="M180 1065q24 176 149 281.5t289 105.5q166 0 262.5 -103t73.5 -272q-11 -77 -37.5 -138.5t-62 -104t-76 -81t-81 -79t-76 -86.5t-63.5 -115t-40 -154h-170q14 100 43 181t64.5 134t76.5 97t80.5 81t73 74.5t58.5 88.5t34 112q12 86 -41 142.5t-141 56.5q-94 0 -163.5 -60 t-82.5 -161h-170zM285 0l28 203h207l-28 -203h-207z" />
<glyph unicode="@" horiz-adv-x="1343" d="M113 133l114 821q14 100 69.5 192.5t134.5 160t179.5 107.5t202.5 40h53q134 0 242 -65t163 -178t36 -246l-136 -965h-159l6 49q-92 -65 -215 -65q-159 0 -247 95.5t-67 237.5l54 383q21 142 135 239t272 97q123 0 197 -71q19 136 -72 233.5t-231 97.5h-53 q-140 0 -261 -102.5t-141 -239.5l-115 -821q-20 -137 64.5 -238.5t220.5 -101.5h39l-23 -158h-32q-135 0 -241 68t-156.5 183t-32.5 247zM649 330q-11 -77 41 -137t133 -60q85 0 154 59.5t80 137.5l51 360q11 79 -40 137t-136 58q-83 0 -152 -58.5t-80 -136.5z" />
<glyph unicode="A" horiz-adv-x="1095" d="M102 0l86 612l363 822h293l133 -826l-86 -608h-174l63 457h-442l-64 -457h-172zM369 616h430l-105 656h-39z" />
<glyph unicode="B" horiz-adv-x="1013" d="M102 0l201 1434h375q146 0 229 -94q68 -76 68 -178q0 -23 -4 -48l-15 -113q-10 -69 -51 -132.5t-100 -110.5q98 -88 98 -216q0 -24 -4 -50l-20 -148q-21 -147 -142 -245.5t-266 -98.5h-369zM297 162h197q80 0 141 54t72 128l20 148q3 27 -4 57t-24 59.5t-52 48.5t-82 19 h-196zM391 831h207q70 0 125.5 47t64.5 115l17 115q2 12 2 22q1 52 -35 91q-42 47 -113 47h-206z" />
<glyph unicode="C" horiz-adv-x="1052" d="M143 358l101 719q22 157 150.5 267t291.5 110h10q162 0 259 -110q79 -90 79 -212q0 -28 -4 -57h-172q2 16 2 31q0 69 -46 120q-56 62 -146 62q-94 0 -166 -62t-84 -151l-103 -719q-2 -16 -2 -31q0 -69 46 -121q56 -62 149 -63q91 0 163.5 62t84.5 151l6 43h172l-6 -41 q-22 -157 -150 -266.5t-291 -109.5h-10q-163 0 -260 110q-78 89 -78 210q0 28 4 58z" />
<glyph unicode="D" horiz-adv-x="1062" d="M102 0l201 1434h379q161 0 259 -110q79 -89 80 -209q0 -28 -5 -58l-94 -680q-23 -157 -151.5 -267t-289.5 -110h-379zM297 162h201q92 0 164.5 61t85.5 152l94 680q3 17 3 34q-1 67 -45 117q-54 62 -147 62h-200z" />
<glyph unicode="E" horiz-adv-x="972" d="M102 0l201 1434h701l-23 -162h-528l-62 -436h479l-22 -160h-479l-72 -514h545l-23 -162h-717z" />
<glyph unicode="F" horiz-adv-x="925" d="M102 0l201 1434h701l-23 -162h-528l-62 -436h479l-22 -160h-479l-95 -676h-172z" />
<glyph unicode="G" horiz-adv-x="1089" d="M143 358l101 719q22 157 150.5 267t291.5 110h35q161 0 259 -110q81 -91 81 -213q0 -27 -4 -56h-176q2 16 2 31q0 70 -45 120q-55 62 -148 62h-22q-94 0 -166 -62t-84 -151l-103 -719q-2 -16 -2 -31q0 -70 46 -121q56 -63 149 -63h22q93 0 164.5 61.5t83.5 151.5l31 221 h-209l25 162h385l-56 -381q-22 -156 -151 -266t-291 -110h-35q-163 0 -260 110q-78 90 -78 210q0 28 4 58z" />
<glyph unicode="H" horiz-adv-x="1064" d="M61 0l201 1434h172l-84 -598h443l84 598h174l-201 -1434h-174l94 676h-442l-95 -676h-172z" />
<glyph unicode="I" horiz-adv-x="499" d="M113 0l200 1434h172l-200 -1434h-172z" />
<glyph unicode="J" horiz-adv-x="927" d="M86 311l31 226h172l-33 -236q-2 -12 -2 -23q0 -51 35 -90q42 -47 108 -47q70 0 126 47t65 113l160 1133h178l-158 -1123q-20 -138 -133.5 -234.5t-255.5 -96.5q-141 0 -227 96q-70 79 -70 184q0 25 4 51z" />
<glyph unicode="K" horiz-adv-x="1056" d="M113 0l200 1434h174l-200 -1434h-174zM393 760l549 674h201l-551 -680l373 -754h-199z" />
<glyph unicode="L" horiz-adv-x="843" d="M113 0l200 1434h174l-178 -1272h465l-22 -162h-639z" />
<glyph unicode="M" horiz-adv-x="1306" d="M113 0l200 1434h187l211 -631h8l387 631h186l-200 -1434h-174l143 1024l20 92l-317 -502h-152l-176 500l-6 -90l-143 -1024h-174z" />
<glyph unicode="N" horiz-adv-x="1116" d="M113 0l200 1434h189l289 -1094l2 111l137 983h172l-201 -1434h-188l-289 1096l-2 -115l-137 -981h-172z" />
<glyph unicode="O" horiz-adv-x="1099" d="M143 358l101 719q22 157 150.5 267t291.5 110h35q161 0 259 -110q81 -90 81 -211q0 -27 -4 -56l-103 -721q-22 -156 -151 -266t-291 -110h-35q-163 0 -260 110q-78 89 -78 210q0 28 4 58zM315 356q-2 -16 -2 -31q0 -69 46 -121q56 -62 149 -63h22q93 0 164.5 61.5 t83.5 151.5l103 721q2 16 2 31q0 70 -45 120q-55 62 -148 62h-22q-94 0 -166 -62t-84 -151z" />
<glyph unicode="P" horiz-adv-x="985" d="M113 0l200 1434h392q137 0 219 -94q66 -75 67 -176q0 -24 -4 -50l-41 -295q-19 -135 -127.5 -228t-245.5 -93h-219l-69 -498h-172zM377 659h211q67 0 121 45.5t63 108.5l41 299q2 12 2 23q1 49 -33 87q-40 46 -108 46h-211z" />
<glyph unicode="Q" horiz-adv-x="1095" d="M143 358l101 719q23 157 151.5 267t290.5 110h35q162 0 261 -110q79 -90 79 -210q0 -27 -4 -57l-101 -721q-15 -107 -86 -194l80 -103l-133 -108l-76 94q-105 -65 -227 -65h-35q-162 0 -260 110q-80 91 -80 212q0 27 4 56zM313 322q108 102 234 102q123 0 217 -123 q10 18 16 53l101 721q2 16 2 32q0 69 -44 119q-54 62 -147 62h-22q-94 0 -167 -62t-85 -151l-101 -719q-4 -24 -4 -34zM377 186q53 -47 137 -47q73 0 133 31q-60 100 -125 100q-81 0 -145 -84z" />
<glyph unicode="R" horiz-adv-x="1032" d="M113 0l200 1434h392q137 0 219 -94q66 -75 67 -176q0 -24 -4 -50l-37 -272q-13 -98 -73.5 -175.5t-153.5 -115.5l156 -551h-187l-149 522h-185l-73 -522h-172zM381 682h213q66 0 118.5 45.5t61.5 108.5l39 276q2 12 2 23q0 49 -33 87q-40 46 -106 46h-213z" />
<glyph unicode="S" horiz-adv-x="1038" d="M111 356l8 56h174l-8 -56q-2 -16 -2 -31q-1 -69 45 -121q56 -62 149 -63h23q92 0 163 59t82 140q3 23 3 44q0 50 -18 92q-26 59 -74.5 98t-109.5 73.5t-121.5 72t-108.5 82.5q-48 46 -72 116q-16 46 -16 100q0 29 5 61q23 159 152 267t291 108t259 -110q79 -90 79 -213 q0 -28 -4 -58h-170q2 14 2 28q0 69 -46 123q-54 64 -145 64q-90 0 -160.5 -57t-80.5 -141q-2 -15 -3 -29q-1 -31 11 -59q16 -40 47.5 -69.5t74 -57t90 -54.5t94.5 -56.5t88 -68.5t70 -85q30 -45 42 -111q6 -33 5 -71q0 -35 -5 -73q-22 -156 -151.5 -266t-289.5 -110h-37 q-162 0 -260 110q-80 89 -79 210q0 27 4 56z" />
<glyph unicode="T" horiz-adv-x="888" d="M178 1270l23 164h786l-22 -164h-306l-178 -1270h-178l178 1270h-303z" />
<glyph unicode="U" horiz-adv-x="1120" d="M154 358l151 1076h174l-151 -1078q-2 -16 -2 -32q0 -70 44 -120q54 -62 148 -63h23q93 0 164.5 61.5t85.5 151.5l151 1080h176l-151 -1078q-23 -157 -152.5 -266.5t-290.5 -109.5h-35q-161 0 -259 110q-80 90 -80 212q0 27 4 56z" />
<glyph unicode="V" horiz-adv-x="1075" d="M207 821l86 613h172l-82 -592l106 -680h39l297 680l82 592h174l-84 -609l-364 -825h-293z" />
<glyph unicode="W" horiz-adv-x="1419" d="M217 823l86 611h174l-84 -596l-10 -672h18l269 653h204l82 -653h19l180 672l84 596h176l-86 -611l-233 -823h-279l-69 604h-13l-235 -604h-281z" />
<glyph unicode="X" horiz-adv-x="1054" d="M20 0l465 745l-237 689h190l166 -508l311 508h189l-430 -689l258 -745h-189l-188 563l-346 -563h-189z" />
<glyph unicode="Y" horiz-adv-x="1028" d="M201 1434h190l197 -539l346 539h192l-481 -756l-94 -678h-178l94 678z" />
<glyph unicode="Z" horiz-adv-x="1017" d="M61 0l25 172l741 1100h-557l23 162h762l-25 -172l-743 -1100h587l-22 -162h-791z" />
<glyph unicode="[" horiz-adv-x="669" d="M84 -367l254 1801h403l-24 -166h-234l-207 -1473h234l-23 -162h-403z" />
<glyph unicode="\" horiz-adv-x="749" d="M160 1434h170l358 -1434h-172z" />
<glyph unicode="]" horiz-adv-x="669" d="M2 -367l23 162h233l207 1473h-234l25 166h403l-253 -1801h-404z" />
<glyph unicode="^" horiz-adv-x="983" d="M154 676l395 756h139l182 -756h-151l-135 541l-279 -541h-151z" />
<glyph unicode="_" horiz-adv-x="1005" d="M-14 -291l18 137h985l-20 -137h-983z" />
<glyph unicode="`" horiz-adv-x="565" d="M123 1454h233l228 -303h-193z" />
<glyph unicode="a" horiz-adv-x="1021" d="M119 311l57 402q19 140 134 235.5t274 95.5q196 0 356 -69l-106 -752q-3 -30 13.5 -50.5t45.5 -20.5h20l-20 -152h-21q-59 0 -105 27.5t-71 74.5q-53 -60 -124 -91t-138 -31q-158 0 -246 96q-72 79 -72 187q0 23 3 48zM281 324q-2 -14 -2 -27q1 -61 43 -109 q52 -58 135.5 -58.5t151.5 58t79 136.5l76 534q-78 37 -203 37q-82 0 -149 -58.5t-78 -136.5z" />
<glyph unicode="b" horiz-adv-x="978" d="M96 49l195 1385h160l-68 -473q30 31 94.5 57t124.5 26q158 0 246 -96q71 -77 71 -183q0 -25 -4 -52l-55 -402q-21 -141 -134.5 -236t-272.5 -95q-200 0 -357 69zM272 166q78 -37 201 -37q82 0 149 58.5t78 136.5l54 376q2 14 2 27q0 61 -42 109q-51 58 -134 59 q-84 0 -153.5 -59t-80.5 -136z" />
<glyph unicode="c" d="M129 313l57 400q19 140 134.5 235.5t277.5 95.5q155 0 239 -98q68 -80 68 -194q0 -27 -4 -56h-160q2 16 2 32q1 64 -37 110q-46 56 -130.5 56.5t-152.5 -58t-79 -136.5l-53 -376q-2 -14 -2 -27q0 -61 43 -109q52 -58 137 -59q84 0 150.5 60t78.5 145h160 q-22 -156 -134.5 -255t-274.5 -99q-163 0 -251 96q-72 79 -72 188q0 24 3 49z" />
<glyph unicode="d" horiz-adv-x="993" d="M106 311l56 402q21 140 135 235.5t272 95.5q60 0 117.5 -26t77.5 -57l67 473h160l-172 -1219q0 -27 17.5 -45t44.5 -18h20l-22 -152h-21q-59 0 -105 27.5t-71 74.5q-50 -60 -122 -91t-140 -31q-159 0 -247 96q-71 77 -71 183q0 25 4 52zM266 324q-2 -14 -2 -27 q0 -61 42 -109q52 -58 134 -59q84 0 153.5 59t80.5 136l53 376q2 14 2 27q-1 61 -43 109q-52 58 -135.5 58.5t-152 -58.5t-79.5 -136z" />
<glyph unicode="e" horiz-adv-x="913" d="M129 311l57 402q19 139 134 235t274 96h27q121 0 203 -91q68 -75 67 -170q0 -20 -2 -40l-4 -30q-14 -99 -82.5 -163.5t-190.5 -107.5l-319 -116v-9q-2 -14 -2 -27q1 -60 41 -106q50 -56 131 -55q72 0 138 11.5t96 23.5l30 12l-22 -164q-105 -32 -261 -32q-158 0 -246 96 q-72 78 -72 186q0 24 3 49zM317 492l304 110q97 34 106 98l4 25q1 11 1 22q0 53 -37 96q-45 52 -111 52h-15q-82 0 -147 -58.5t-76 -136.5z" />
<glyph unicode="f" horiz-adv-x="673" d="M94 -369l174 1246h-143l20 147h144l20 147q17 118 112.5 200.5t215.5 82.5q90 0 172 -63l-107 -123q-57 39 -84 39q-54 0 -96.5 -38t-48.5 -91l-22 -154h260l-21 -147h-260l-174 -1246h-162z" />
<glyph unicode="g" horiz-adv-x="972" d="M121 -135q9 62 46 118t93 91l74 45q-17 0 -29 6q-87 38 -129 119q-32 60 -32 132q0 23 3 48l41 289q21 140 135 235.5t273 95.5q199 0 356 -69l-145 -1034q-19 -142 -131 -236t-277 -94q-136 0 -215 69q-66 58 -66 146q0 19 3 39zM281 -129q-1 -7 -1 -13q0 -37 30 -66 q35 -34 98 -34h12q88 0 153 58t76 137l31 225q-20 -25 -74 -57l-264 -158q-53 -34 -61 -92zM309 436q-2 -14 -2 -27q0 -61 43 -109q51 -58 135 -58t152.5 58.5t79.5 135.5l59 422q-78 37 -201 37q-82 0 -150 -59t-79 -136z" />
<glyph unicode="h" horiz-adv-x="1011" d="M82 0l201 1434h159l-65 -471q99 81 244 81q140 0 223 -98q67 -79 67 -186q0 -26 -4 -53l-67 -490q-4 -26 13.5 -45.5t45.5 -19.5h21l-21 -152h-20q-95 0 -153 67q-47 55 -46 128q0 17 2 34l66 465q2 15 2 29q0 63 -39 113q-48 62 -131 61q-84 0 -156.5 -58.5 t-83.5 -133.5l-98 -705h-160z" />
<glyph unicode="i" horiz-adv-x="485" d="M123 209l115 815h159l-116 -821q-5 -29 12.5 -50.5t46.5 -21.5h41l-21 -151h-41q-95 0 -153 67q-46 54 -46 126q0 17 3 36zM258 1251l27 183h184l-27 -183h-184z" />
<glyph unicode="j" horiz-adv-x="481" d="M-215 -326l109 123q49 -39 88 -39q51 0 91 37t48 90l160 1139h161l-159 -1133q-17 -118 -110 -199t-212 -81q-90 0 -176 63zM301 1251l27 183h184l-27 -183h-184z" />
<glyph unicode="k" horiz-adv-x="931" d="M82 0l201 1434h159l-75 -545q6 6 18 16.5t48 37.5t72.5 47t87 37t95.5 17q101 0 163 -72q51 -59 50 -137q0 -18 -2 -36q-14 -98 -80.5 -159.5t-181.5 -113.5l-21 -8l228 -518h-197l-186 446l-168 -75l-51 -371h-160zM317 537l310 141q52 24 77 48.5t31 64.5q1 8 1 16 q0 33 -20 57q-26 30 -69 29.5t-119 -46.5t-131 -92l-55 -46z" />
<glyph unicode="l" horiz-adv-x="497" d="M123 209l172 1225h162l-174 -1231q-5 -29 12.5 -50.5t46.5 -21.5h41l-21 -151h-40q-96 0 -154 67q-48 55 -47 128q0 17 2 34z" />
<glyph unicode="m" horiz-adv-x="1456" d="M96 0l144 1024h157l-10 -76q89 96 217 96q81 0 134.5 -36t82.5 -82q50 52 123 85t154 33q128 0 204 -86q60 -68 60 -165q0 -26 -4 -54l-74 -522q-3 -26 15.5 -45.5t46.5 -19.5h20l-20 -152h-21q-95 0 -153 67q-48 56 -48 130q0 15 2 32l70 498q3 17 3 33q0 54 -32 90 q-41 48 -110 47q-70 0 -128 -50.5t-69 -119.5l-100 -727h-160l102 737q2 12 2 23q0 52 -34 90q-42 48 -109 47q-76 0 -136 -50t-71 -120l-100 -727h-158z" />
<glyph unicode="n" horiz-adv-x="1026" d="M96 0l144 1024h159l-8 -61q102 81 242 81q141 0 225 -98q68 -79 67 -187q0 -25 -3 -52l-70 -490q-3 -26 15 -45.5t46 -19.5h21l-21 -152h-20q-95 0 -153 67q-48 56 -48 130q0 15 2 32l66 461q2 17 2 33q0 64 -38 113q-48 61 -126 61q-87 0 -160.5 -57t-83.5 -135 l-98 -705h-160z" />
<glyph unicode="o" d="M129 311l57 402q19 140 134.5 235.5t277.5 95.5q160 0 246 -96q71 -78 70 -186q0 -24 -3 -49l-57 -402q-19 -141 -132 -236t-273 -95q-163 0 -251 95q-72 78 -72 187q0 24 3 49zM291 324q-2 -14 -2 -27q0 -61 43 -109q52 -58 137 -59q83 0 149.5 58.5t77.5 136.5l54 376 q2 14 2 27q0 61 -42 109q-52 58 -137 59q-84 0 -151 -58.5t-78 -136.5z" />
<glyph unicode="p" horiz-adv-x="983" d="M57 -369l195 1393h160l-9 -63q28 31 94 57t126 26q158 0 245 -95q71 -78 71 -187q0 -24 -3 -49l-57 -402q-19 -139 -134 -235t-274 -96q-60 0 -116.5 26t-78.5 57l-59 -432h-160zM313 324q-2 -13 -2 -26q0 -61 44 -110q53 -59 137 -59t151 58.5t78 136.5l53 376 q2 14 2 27q0 61 -42 109q-52 59 -134 59q-84 0 -153 -59t-80 -136z" />
<glyph unicode="q" horiz-adv-x="983" d="M141 309l58 402q19 140 133.5 235.5t273.5 95.5q197 0 357 -69l-189 -1342h-160l60 430q-28 -31 -93.5 -57.5t-125.5 -26.5q-158 0 -245 97q-72 79 -72 187q0 23 3 48zM303 322q-2 -14 -2 -27q0 -61 43 -109q51 -59 135 -59t152.5 59t79.5 136l75 534q-81 37 -202 37 q-82 0 -149.5 -59t-78.5 -136z" />
<glyph unicode="r" horiz-adv-x="632" d="M96 0l144 1024h159l-12 -88q43 50 108 79t138 29q15 0 31.5 -2t25.5 -4l10 -2l-22 -149q-43 10 -80 10q-86 0 -160.5 -62t-85.5 -139l-96 -696h-160z" />
<glyph unicode="s" horiz-adv-x="886" d="M106 299l5 25h159l-2 -19q-2 -13 -1 -25q0 -56 37 -100q46 -53 120 -53h12q68 0 123 44t64 108q1 9 1 18q0 33 -17 59q-22 33 -61.5 55t-88.5 42.5t-97.5 45.5t-87 57t-58.5 84q-13 34 -12 76q0 21 3 44q18 126 123 205t239 79q62 0 113 -20t83 -52.5t53 -73.5 q22 -42 28 -84q3 -22 3 -44q0 -20 -3 -39h-166q2 12 2 23q0 52 -35 93q-42 50 -108 50q-59 0 -109 -36t-57 -89q-1 -9 -1 -17q0 -31 18 -56q22 -31 61.5 -52t88.5 -41t97 -46t86 -60q39 -35 57 -93q12 -38 11 -82q0 -24 -3 -51q-17 -121 -127.5 -207.5t-240.5 -86.5h-21 q-96 0 -168 46q-71 46 -103 119q-23 53 -23 110q0 22 3 44z" />
<glyph unicode="t" horiz-adv-x="794" d="M117 877l22 147h144l41 291h159l-41 -291h334l-22 -147h-334l-86 -623q-2 -11 -1 -21q0 -39 24 -68q31 -36 85 -36q50 0 91 34t47 81l4 24h151l-4 -24q-15 -107 -107 -185.5t-202 -78.5q-121 0 -193 81q-58 66 -58 155q0 21 3 44l86 617h-143z" />
<glyph unicode="u" horiz-adv-x="1030" d="M141 317l101 707h159l-98 -690q-2 -17 -3 -33q0 -64 39 -113q48 -61 126 -61q87 0 160.5 57t83.5 135l100 705h160l-115 -813q-1 -25 17 -42t44 -17h21l-23 -152h-20q-55 0 -102.5 28.5t-75.5 71.5q-110 -120 -285 -120q-140 0 -224 98q-68 79 -69 187q0 25 4 52z" />
<glyph unicode="v" horiz-adv-x="980" d="M137 289l103 735h159l-102 -733q-2 -12 -2 -23q0 -50 34 -90q41 -48 97 -49q101 0 189 91t108 224l39 285q2 18 2 33q0 50 -24 82q-32 42 -83 43l23 155q51 0 98.5 -20t84.5 -56q37 -38 55 -96q12 -38 11 -80q0 -24 -3 -49l-41 -295q-18 -120 -82.5 -225.5t-170 -173 t-226.5 -67.5q-130 0 -209 89q-64 72 -64 171q0 24 4 49z" />
<glyph unicode="w" horiz-adv-x="1464" d="M137 289l103 735h159l-102 -733q-2 -12 -2 -23q0 -50 34 -90q41 -48 97 -49q95 0 166 85t90 216l82 594h160l-103 -733q-2 -12 -2 -23q0 -50 34 -90q41 -48 97 -49q97 0 166 88t90 227l39 285q2 18 2 34q0 49 -23 81q-31 42 -83 43l22 155q51 0 98.5 -20t84.5 -56 q37 -38 55 -96q12 -38 11 -80q0 -24 -3 -49l-41 -295q-13 -91 -48 -173t-89 -148.5t-132 -105.5t-169 -39q-79 0 -141.5 34t-98.5 95q-119 -129 -284 -129q-130 0 -209 89q-64 72 -64 171q0 24 4 49z" />
<glyph unicode="x" horiz-adv-x="868" d="M14 0l363 524l-209 500h180l144 -356l239 356h182l-350 -500l217 -524h-178l-151 379l-258 -379h-179z" />
<glyph unicode="y" horiz-adv-x="962" d="M121 -135q9 63 46 118.5t95 90.5l74 45q-19 0 -31 6q-86 38 -127 119q-32 60 -32 131q0 24 4 49l83 600h160l-82 -588q-2 -14 -2 -27q0 -61 42 -109q51 -58 134 -58q84 0 153.5 58.5t80.5 135.5l82 588h160l-152 -1083q-21 -142 -133 -236t-277 -94q-136 0 -215 69 q-65 59 -65 149q0 18 2 36zM283 -129q-1 -7 -1 -13q0 -37 29 -66q34 -34 97 -34h12q88 0 153 58t76 137l33 225q-23 -26 -76 -57l-264 -158q-51 -35 -59 -92z" />
<glyph unicode="z" horiz-adv-x="856" d="M25 -135q9 63 46 118.5t95 90.5l340 211q-38 30 -107 30h-182l23 154l368 408h-438l20 147h633l-22 -158l-373 -401q158 -3 244 -99q70 -78 70 -184q0 -24 -3 -49l-26 -192q-21 -142 -133 -236t-277 -94q-137 -1 -215 69q-66 58 -65 149q0 18 2 36zM186 -129q-1 -7 0 -13 q0 -37 28 -66q34 -34 97 -34h13q88 0 153 58t76 137l33 225q-11 -13 -76 -51l-264 -164q-54 -38 -60 -92z" />
<glyph unicode="{" horiz-adv-x="686" d="M109 467l22 154q44 0 81.5 26.5t41.5 61.5l51 370q23 157 155.5 267t299.5 110l-23 -166q-99 0 -173.5 -61.5t-86.5 -151.5l-49 -348q-8 -62 -50 -110.5t-95 -77.5q45 -27 73.5 -75.5t20.5 -111.5l-53 -366q-12 -91 44.5 -153t155.5 -62l-22 -162q-167 0 -269 111 t-79 268l53 387q5 36 -24 63t-74 27z" />
<glyph unicode="|" horiz-adv-x="507" d="M84 -369l254 1803h160l-254 -1803h-160z" />
<glyph unicode="}" horiz-adv-x="686" d="M0 -389l23 162q99 0 172.5 62t85.5 153l53 366q8 63 49.5 111.5t93.5 75.5q-44 30 -72 78.5t-20 109.5l49 348q12 90 -43.5 151.5t-154.5 61.5l22 166q167 0 269 -110t79 -267l-51 -370q-5 -35 24.5 -61.5t73.5 -26.5l-22 -154q-45 0 -81.5 -27t-41.5 -63l-53 -387 q-23 -157 -155.5 -268t-299.5 -111z" />
<glyph unicode="~" horiz-adv-x="1228" d="M158 479q26 100 115 177t200 77q48 0 104 -18t99 -39.5t94.5 -39.5t91.5 -18q45 0 81 31t52 68h158q-30 -100 -116 -177t-195 -77q-50 0 -109 18t-104 39.5t-94.5 39.5t-81.5 18q-45 0 -82.5 -30t-57.5 -69h-155z" />
<glyph unicode="&#xa1;" horiz-adv-x="528" d="M102 -393l156 1114h166l-156 -1114h-166zM256 823l29 201h200l-28 -201h-201z" />
<glyph unicode="&#xa2;" horiz-adv-x="983" d="M143 330l52 372q18 124 112.5 215t233.5 111l14 96h160l-15 -102q114 -29 172 -118.5t41 -209.5h-159q11 83 -36 139t-130 56q-85 0 -155 -60.5t-81 -138.5l-49 -352q-11 -78 41.5 -136.5t138.5 -58.5q83 0 150.5 60t79.5 143h159q-19 -129 -103.5 -221.5t-211.5 -120.5 l-14 -104h-160l14 100q-135 18 -204 111t-50 219z" />
<glyph unicode="&#xa3;" horiz-adv-x="999" d="M106 0l23 166h57l58 412h-123l22 161h123l56 381q19 138 130 235t250 97q140 0 225 -97t66 -235l-12 -80h-172l12 90q9 66 -31 113t-106 47q-70 0 -124.5 -47t-63.5 -113l-56 -391h254l-22 -161h-254l-58 -412h496l-22 -166h-728z" />
<glyph unicode="&#xa4;" horiz-adv-x="1179" d="M127 258l109 98q-57 112 -39 240t110 246l-86 98l131 115l86 -99q126 74 254 74q125 0 232 -74l110 99l101 -115l-111 -98q58 -113 39 -246q-17 -128 -107 -240l84 -98l-133 -117l-86 97q-121 -74 -252 -74q-130 0 -233 74l-111 -97zM356 598q-16 -113 54 -192 q68 -80 182 -80q110 0 202 81t107 191q15 111 -53 191.5t-178 80.5q-111 0 -205 -81t-109 -191z" />
<glyph unicode="&#xa5;" horiz-adv-x="1052" d="M123 397l22 160h320l16 119l-6 24h-309l22 162h236l-182 572h186l168 -560l330 560h184l-342 -572h233l-22 -162h-309l-13 -20l-18 -123h319l-22 -160h-320l-55 -397h-174l55 397h-319z" />
<glyph unicode="&#xa6;" horiz-adv-x="507" d="M84 -369l104 742h160l-104 -742h-160zM233 690l105 746h160l-105 -746h-160z" />
<glyph unicode="&#xa7;" horiz-adv-x="1044" d="M176 299h168q-19 -154 137 -154h11q76 0 117 33.5t48 77.5q5 39 -20 72t-69 58.5t-97.5 52t-106.5 59t-95 71.5t-63 97.5t-11 130.5q17 140 137 231q-36 58 -21 150q16 118 112.5 196t252.5 78h14q164 0 230.5 -85.5t46.5 -231.5h-170q18 151 -138 151h-8q-79 0 -120 -33 t-46 -77q-5 -38 20 -71t69 -58.5t98 -52t107 -59.5t95.5 -72t64 -97t11.5 -129q-20 -137 -139 -234q32 -74 20 -149q-16 -117 -112 -195.5t-250 -78.5h-14q-164 0 -231.5 86.5t-47.5 232.5zM367 811q-7 -43 12.5 -78.5t59.5 -63.5t82.5 -50t97.5 -50.5t88 -52.5 q60 43 69 105q6 41 -13 76t-59 63.5t-81.5 51.5t-97.5 52.5t-91 53.5q-59 -42 -67 -107z" />
<glyph unicode="&#xa8;" horiz-adv-x="548" d="M90 1251l27 183h182l-27 -183h-182zM436 1251l27 183h182l-27 -183h-182z" />
<glyph unicode="&#xa9;" horiz-adv-x="1472" d="M133 545v344q0 153 80 283.5t215 206t291 75.5h35q156 0 291 -75.5t214.5 -206t79.5 -283.5v-344q0 -153 -79.5 -283.5t-214.5 -206t-291 -75.5h-35q-156 0 -291 75.5t-215 206t-80 283.5zM295 539q0 -108 58.5 -202t156.5 -149t209 -55h35q169 0 294.5 120.5 t125.5 285.5v358q0 108 -57.5 201.5t-154.5 147.5t-208 54h-35q-111 0 -209 -54t-156.5 -147.5t-58.5 -201.5v-358zM457 555v338q0 109 79.5 185.5t206.5 76.5q120 0 197.5 -84.5t77.5 -206.5h-150q0 64 -34.5 103t-90.5 39q-58 0 -98.5 -42t-40.5 -98v-286 q0 -55 40.5 -96.5t98.5 -41.5q56 0 95 40t39 102h149q0 -125 -78.5 -208t-204.5 -83q-128 0 -207 75.5t-79 186.5z" />
<glyph unicode="&#xaa;" horiz-adv-x="698" d="M135 578l17 118h458l-16 -118h-459zM180 997q12 85 85 146t165 67l127 9l2 14q6 39 -16.5 70.5t-63.5 31.5q-76 0 -102 -78h-131q28 96 92.5 146.5t157.5 50.5q103 0 153.5 -60.5t38.5 -154.5l-63 -440h-127l4 26q-53 -39 -127 -39q-89 2 -148 62.5t-47 148.5zM305 999 q-4 -35 24.5 -63.5t65.5 -28.5q46 0 86 27t45 59l15 105l-123 -8q-40 -3 -73.5 -29t-39.5 -62z" />
<glyph unicode="&#xab;" horiz-adv-x="1075" d="M174 596l295 326h190l-297 -326l209 -324h-192zM541 596l295 326h190l-297 -326l209 -324h-193z" />
<glyph unicode="&#xac;" horiz-adv-x="1193" d="M188 690l25 164h907l-82 -573h-164l58 409h-744z" />
<glyph unicode="&#xad;" horiz-adv-x="1705" />
<glyph unicode="&#xae;" horiz-adv-x="1472" d="M131 545v344q0 153 80 283.5t215 206t291 75.5h35q156 0 291 -75.5t214.5 -206t79.5 -283.5v-344q0 -153 -79.5 -283.5t-214.5 -206t-291 -75.5h-35q-156 0 -291 75.5t-215 206t-80 283.5zM293 539q0 -108 58.5 -202t156.5 -149t209 -55h35q169 0 294 120.5t125 285.5 v358q0 108 -57.5 201.5t-154 147.5t-207.5 54h-35q-111 0 -209 -54t-156.5 -147.5t-58.5 -201.5v-358zM492 322v813h292q83 0 144 -61.5t61 -143.5v-125q0 -52 -27.5 -100.5t-68.5 -77.5l139 -305h-162l-125 274h-104v-274h-149zM637 729h143q24 0 41 18t17 44v133 q0 23 -17.5 41t-40.5 18h-143v-254z" />
<glyph unicode="&#xaf;" horiz-adv-x="638" d="M90 1223l21 151h618l-20 -151h-619z" />
<glyph unicode="&#xb0;" horiz-adv-x="843" d="M164 1157q0 123 88 211t211 88t211 -88t88 -211t-88 -211t-211 -88t-211 88t-88 211zM297 1157q0 -68 48.5 -117t115.5 -49q69 0 117.5 49t48.5 117t-48.5 117t-117.5 49q-67 0 -115.5 -49t-48.5 -117z" />
<glyph unicode="&#xb1;" horiz-adv-x="1202" d="M111 139l22 162h936l-22 -162h-936zM178 621l23 161h383l37 262h167l-36 -262h383l-23 -161h-383l-37 -261h-168l37 261h-383z" />
<glyph unicode="&#xb2;" horiz-adv-x="770" d="M141 575l17 111q8 60 35 113t64 92.5t80 74.5t85.5 66t78 60t60 62.5t29.5 68.5q5 36 -16 61t-58 25q-44 0 -78 -34.5t-41 -92.5h-157q17 123 102.5 197.5t194.5 74.5q104 0 169 -68t50 -172q-9 -65 -51 -122.5t-98.5 -101.5t-113 -84.5t-103 -88.5t-60.5 -96h356 l-20 -146h-525z" />
<glyph unicode="&#xb3;" horiz-adv-x="763" d="M156 807l2 24h164l-3 -24q-6 -40 17.5 -68t64.5 -28t72 28t37 68l20 147q3 30 -12.5 49t-44.5 19h-117l19 127l127 137h-232l21 148h446l-16 -117l-143 -160q56 -26 90.5 -82t25.5 -121l-20 -147q-13 -99 -99.5 -171.5t-187.5 -72.5h-12q-105 0 -169.5 70.5t-49.5 173.5z " />
<glyph unicode="&#xb4;" horiz-adv-x="493" d="M160 1151l303 303h233l-354 -303h-182z" />
<glyph unicode="&#xb5;" horiz-adv-x="993" d="M57 -369l197 1393h160l-99 -696q-12 -80 36 -140.5t126 -60.5q84 0 159 57.5t85 134.5l100 705h160l-145 -1024h-160l8 61q-46 -39 -111 -60t-129 -21q-111 0 -170 71l-59 -420h-158z" />
<glyph unicode="&#xb6;" horiz-adv-x="1009" d="M178 1032q23 167 159.5 283.5t305.5 116.5h397l-254 -1801h-159l231 1649h-127l-231 -1649h-160l141 1008q-147 24 -235.5 133t-67.5 260z" />
<glyph unicode="&#xb7;" horiz-adv-x="466" d="M160 496l28 200h201l-29 -200h-200z" />
<glyph unicode="&#xb8;" horiz-adv-x="466" d="M74 -369l14 107h123q18 0 32.5 15t16.5 34q3 18 -8 32.5t-29 14.5h-102l24 166h119l-8 -57q65 0 107.5 -46t33.5 -110q-9 -66 -62.5 -111t-119.5 -45h-141z" />
<glyph unicode="&#xb9;" horiz-adv-x="542" d="M203 1294l18 140h297l-119 -859h-159l100 719h-137z" />
<glyph unicode="&#xba;" horiz-adv-x="698" d="M135 578l17 118h458l-16 -118h-459zM180 1001l35 238q12 91 88 153t180 62q102 0 159.5 -61.5t45.5 -153.5l-35 -238q-12 -92 -86 -153.5t-176 -61.5q-104 0 -163.5 62t-47.5 153zM313 1001q-5 -38 23.5 -68t71.5 -30q42 0 77.5 30.5t40.5 67.5l35 238q5 37 -23.5 65.5 t-72.5 28.5q-42 0 -77 -28.5t-40 -65.5z" />
<glyph unicode="&#xbb;" horiz-adv-x="1075" d="M129 272l299 324l-207 326h191l204 -326l-294 -324h-193zM496 272l299 324l-207 326h190l205 -326l-295 -324h-192z" />
<glyph unicode="&#xbc;" horiz-adv-x="1556" d="M236 2l927 1430h172l-925 -1430h-174zM264 1294l19 140h297l-121 -859h-160l102 719h-137zM815 172l16 119l347 557h161l-325 -529h170l26 189h160l-27 -189h74l-20 -147h-74l-25 -172h-159l24 172h-348z" />
<glyph unicode="&#xbd;" horiz-adv-x="1576" d="M219 0l903 1417h170l-905 -1417h-168zM264 1294l19 140h297l-121 -859h-160l102 719h-137zM868 0l15 111q12 82 58.5 151t105.5 116t117 88.5t101 87.5t50 93q6 36 -15 61t-59 25q-44 0 -77 -34t-40 -93h-157q17 124 102 198.5t193 74.5q104 0 169 -68t52 -172 q-8 -55 -39.5 -105.5t-74 -87t-92.5 -75.5t-93.5 -71t-79 -73t-47.5 -82h356l-20 -145h-525z" />
<glyph unicode="&#xbe;" horiz-adv-x="1712" d="M195 807l4 24h163l-4 -24q-5 -40 19 -68t65 -28t71.5 28t35.5 68l20 147q5 30 -10.5 49t-44.5 19h-117l19 127l125 137h-232l21 148h446l-16 -117l-144 -160q57 -26 92 -82t25 -121l-20 -147q-13 -99 -99 -171.5t-186 -72.5h-12q-105 0 -169.5 70.5t-51.5 173.5zM395 0 l903 1417h170l-903 -1417h-170zM971 172l16 119l346 557h162l-326 -529h170l27 189h160l-27 -189h74l-21 -147h-73l-25 -172h-160l25 172h-348z" />
<glyph unicode="&#xbf;" horiz-adv-x="966" d="M84 -53q11 78 37.5 140.5t62 105t76 81t81 78t76 85.5t63.5 114.5t40 153.5h170q-14 -100 -43.5 -181t-65.5 -134t-76.5 -97t-80.5 -81t-73.5 -74.5t-58.5 -88.5t-34 -112q-12 -86 41 -142.5t141 -56.5q94 0 163.5 60t82.5 161h170q-24 -176 -149 -281.5t-289 -105.5 q-166 0 -262 103.5t-72 271.5zM518 821l29 203h207l-29 -203h-207z" />
<glyph unicode="&#xc0;" horiz-adv-x="1095" d="M102 0l86 612l363 822h293l133 -826l-86 -608h-174l63 457h-442l-64 -457h-172zM369 616h430l-105 656h-39zM438 1864h234l227 -303h-192z" />
<glyph unicode="&#xc1;" horiz-adv-x="1095" d="M102 0l86 612l363 822h293l133 -826l-86 -608h-174l63 457h-442l-64 -457h-172zM369 616h430l-105 656h-39zM514 1561l303 303h234l-355 -303h-182z" />
<glyph unicode="&#xc2;" horiz-adv-x="1095" d="M102 0l86 612l363 822h293l133 -826l-86 -608h-174l63 457h-442l-64 -457h-172zM369 616h430l-105 656h-39zM424 1563l258 301h156l180 -301h-150l-131 153l-166 -153h-147z" />
<glyph unicode="&#xc3;" horiz-adv-x="1095" d="M102 0l86 612l363 822h293l133 -826l-86 -608h-174l63 457h-442l-64 -457h-172zM369 616h430l-105 656h-39zM391 1589q12 85 83 156.5t149 71.5q32 0 67.5 -14t60.5 -31.5t53.5 -31.5t49.5 -14t37.5 25.5t19.5 52.5h148q-12 -85 -81.5 -156t-146.5 -71q-41 0 -85.5 22.5 t-82 45t-61.5 22.5q-23 0 -40.5 -23.5t-26.5 -54.5h-144z" />
<glyph unicode="&#xc4;" horiz-adv-x="1095" d="M102 0l86 612l363 822h293l133 -826l-86 -608h-174l63 457h-442l-64 -457h-172zM369 616h430l-105 656h-39zM465 1661l27 182h182l-27 -182h-182zM811 1661l27 182h182l-27 -182h-182z" />
<glyph unicode="&#xc5;" horiz-adv-x="1095" d="M102 0l86 612l363 822h293l133 -826l-86 -608h-174l63 457h-442l-64 -457h-172zM369 616h430l-105 656h-39zM553 1700q0 69 46.5 116.5t113.5 47.5q68 0 116 -47.5t48 -116.5q0 -67 -48 -114.5t-116 -47.5q-67 0 -113.5 47t-46.5 115zM653 1702q0 -25 17 -42.5t43 -17.5 t43.5 17.5t17.5 42.5q0 26 -17.5 43.5t-43.5 17.5t-43 -17.5t-17 -43.5z" />
<glyph unicode="&#xc6;" horiz-adv-x="1343" d="M82 0l86 612l364 822h852l-22 -162h-428l-62 -436h379l-22 -160h-379l-72 -514h445l-23 -162h-620l63 457h-324l-63 -457h-174zM350 616h316l92 656h-123z" />
<glyph unicode="&#xc7;" horiz-adv-x="1011" d="M123 358l100 719q22 157 151 267t292 110h10q162 0 259 -110t75 -269h-172q12 89 -44 151t-147 62q-94 0 -166 -62t-84 -151l-102 -719q-12 -90 43.5 -152.5t148.5 -62.5q91 0 163.5 62t84.5 151l6 43h172l-6 -41q-22 -157 -149.5 -266.5t-290.5 -109.5h-10 q-163 0 -260 110.5t-74 267.5zM373 -369l14 107h123q18 0 32.5 15t16.5 34q3 18 -8 32.5t-29 14.5h-102l24 166h119l-8 -57q65 0 107.5 -46t33.5 -110q-9 -66 -62.5 -111t-119.5 -45h-141z" />
<glyph unicode="&#xc8;" horiz-adv-x="972" d="M102 0l201 1434h701l-23 -162h-528l-62 -436h479l-22 -160h-479l-72 -514h545l-23 -162h-717zM440 1864h234l227 -303h-192z" />
<glyph unicode="&#xc9;" horiz-adv-x="972" d="M102 0l201 1434h701l-23 -162h-528l-62 -436h479l-22 -160h-479l-72 -514h545l-23 -162h-717zM514 1561l303 303h234l-355 -303h-182z" />
<glyph unicode="&#xca;" horiz-adv-x="972" d="M102 0l201 1434h701l-23 -162h-528l-62 -436h479l-22 -160h-479l-72 -514h545l-23 -162h-717zM420 1563l258 301h156l180 -301h-150l-131 153l-166 -153h-147z" />
<glyph unicode="&#xcb;" horiz-adv-x="972" d="M102 0l201 1434h701l-23 -162h-528l-62 -436h479l-22 -160h-479l-72 -514h545l-23 -162h-717zM420 1661l26 182h183l-27 -182h-182zM766 1661l27 182h182l-27 -182h-182z" />
<glyph unicode="&#xcc;" horiz-adv-x="499" d="M113 0l200 1434h172l-200 -1434h-172zM141 1864h234l227 -303h-192z" />
<glyph unicode="&#xcd;" horiz-adv-x="499" d="M113 0l200 1434h172l-200 -1434h-172zM225 1561l303 303h234l-354 -303h-183z" />
<glyph unicode="&#xce;" horiz-adv-x="499" d="M113 0l200 1434h172l-200 -1434h-172zM133 1563l258 301h156l180 -301h-149l-132 153l-165 -153h-148z" />
<glyph unicode="&#xcf;" horiz-adv-x="479" d="M102 0l201 1434h172l-201 -1434h-172zM156 1661l26 182h183l-27 -182h-182zM502 1661l26 182h183l-27 -182h-182z" />
<glyph unicode="&#xd0;" horiz-adv-x="1024" d="M53 676l23 160h123l84 598h379q162 0 260 -110.5t75 -266.5l-94 -680q-23 -157 -152 -267t-290 -110h-379l94 676h-123zM279 162h198q94 0 165 61t85 152l94 682q14 91 -40 153t-148 62h-199l-61 -436h215l-23 -160h-215z" />
<glyph unicode="&#xd1;" horiz-adv-x="1105" d="M102 0l201 1434h189l288 -1094l2 111l138 983h172l-201 -1434h-189l-288 1096l-2 -115l-138 -981h-172zM399 1589q12 85 83 156.5t149 71.5q32 0 67.5 -14t60.5 -31.5t53.5 -31.5t49.5 -14t38 25.5t20 52.5h147q-12 -85 -81 -156t-146 -71q-41 0 -85.5 22.5t-82.5 45 t-62 22.5q-23 0 -40.5 -23.5t-26.5 -54.5h-144z" />
<glyph unicode="&#xd2;" horiz-adv-x="1099" d="M143 358l101 719q22 157 150.5 267t291.5 110h35q161 0 259.5 -110t76.5 -267l-103 -721q-22 -156 -151 -266t-291 -110h-35q-163 0 -260 110.5t-74 267.5zM315 356q-12 -90 44 -152.5t149 -62.5h22q93 0 164.5 61.5t83.5 151.5l103 721q12 90 -43 151.5t-148 61.5h-22 q-94 0 -166 -62t-84 -151zM459 1864h233l228 -303h-193z" />
<glyph unicode="&#xd3;" horiz-adv-x="1099" d="M143 358l101 719q22 157 150.5 267t291.5 110h35q161 0 259.5 -110t76.5 -267l-103 -721q-22 -156 -151 -266t-291 -110h-35q-163 0 -260 110.5t-74 267.5zM315 356q-12 -90 44 -152.5t149 -62.5h22q93 0 164.5 61.5t83.5 151.5l103 721q12 90 -43 151.5t-148 61.5h-22 q-94 0 -166 -62t-84 -151zM522 1561l303 303h234l-354 -303h-183z" />
<glyph unicode="&#xd4;" horiz-adv-x="1099" d="M143 358l101 719q22 157 150.5 267t291.5 110h35q161 0 259.5 -110t76.5 -267l-103 -721q-22 -156 -151 -266t-291 -110h-35q-163 0 -260 110.5t-74 267.5zM315 356q-12 -90 44 -152.5t149 -62.5h22q93 0 164.5 61.5t83.5 151.5l103 721q12 90 -43 151.5t-148 61.5h-22 q-94 0 -166 -62t-84 -151zM426 1563l258 301h156l180 -301h-150l-131 153l-166 -153h-147z" />
<glyph unicode="&#xd5;" horiz-adv-x="1099" d="M143 358l101 719q22 157 150.5 267t291.5 110h35q161 0 259.5 -110t76.5 -267l-103 -721q-22 -156 -151 -266t-291 -110h-35q-163 0 -260 110.5t-74 267.5zM315 356q-12 -90 44 -152.5t149 -62.5h22q93 0 164.5 61.5t83.5 151.5l103 721q12 90 -43 151.5t-148 61.5h-22 q-94 0 -166 -62t-84 -151zM410 1589q12 85 82.5 156.5t148.5 71.5q32 0 67.5 -14t60.5 -31.5t53.5 -31.5t49.5 -14t38 25.5t20 52.5h147q-12 -85 -81 -156t-146 -71q-41 0 -85.5 22.5t-82 45t-61.5 22.5q-23 0 -41 -24t-27 -54h-143z" />
<glyph unicode="&#xd6;" horiz-adv-x="1099" d="M143 358l101 719q22 157 150.5 267t291.5 110h35q161 0 259.5 -110t76.5 -267l-103 -721q-22 -156 -151 -266t-291 -110h-35q-163 0 -260 110.5t-74 267.5zM315 356q-12 -90 44 -152.5t149 -62.5h22q93 0 164.5 61.5t83.5 151.5l103 721q12 90 -43 151.5t-148 61.5h-22 q-94 0 -166 -62t-84 -151zM479 1661l27 182h182l-26 -182h-183zM825 1661l27 182h182l-26 -182h-183z" />
<glyph unicode="&#xd7;" horiz-adv-x="1060" d="M135 315l320 281l-242 285l131 114l244 -282l321 282l99 -114l-322 -285l244 -281l-131 -116l-244 284l-319 -282z" />
<glyph unicode="&#xd8;" horiz-adv-x="1058" d="M72 0l86 145q-53 93 -35 213l100 719q22 157 151 267t292 110h34q110 0 193 -55l20 35h172l-86 -148q52 -93 37 -209l-102 -721q-22 -156 -151 -266t-291 -110h-35q-111 0 -197 55l-18 -35h-170zM297 362l35 82l469 797q-53 47 -131 47h-23q-94 0 -166 -62t-84 -151z M352 188q57 -47 135 -47h23q93 0 164.5 61.5t83.5 151.5l102 721l-31 -76z" />
<glyph unicode="&#xd9;" horiz-adv-x="1120" d="M154 358l151 1076h174l-151 -1078q-12 -90 42.5 -152.5t147.5 -62.5h23q93 0 164.5 61.5t85.5 151.5l151 1080h176l-151 -1078q-23 -157 -152.5 -266.5t-290.5 -109.5h-35q-162 0 -259.5 110.5t-75.5 267.5zM457 1864h233l228 -303h-193z" />
<glyph unicode="&#xda;" horiz-adv-x="1120" d="M154 358l151 1076h174l-151 -1078q-12 -90 42.5 -152.5t147.5 -62.5h23q93 0 164.5 61.5t85.5 151.5l151 1080h176l-151 -1078q-23 -157 -152.5 -266.5t-290.5 -109.5h-35q-162 0 -259.5 110.5t-75.5 267.5zM528 1561l303 303h234l-354 -303h-183z" />
<glyph unicode="&#xdb;" horiz-adv-x="1120" d="M154 358l151 1076h174l-151 -1078q-12 -90 42.5 -152.5t147.5 -62.5h23q93 0 164.5 61.5t85.5 151.5l151 1080h176l-151 -1078q-23 -157 -152.5 -266.5t-290.5 -109.5h-35q-162 0 -259.5 110.5t-75.5 267.5zM438 1563l258 301h156l180 -301h-149l-131 153l-166 -153h-148 z" />
<glyph unicode="&#xdc;" horiz-adv-x="1120" d="M154 358l151 1076h174l-151 -1078q-12 -90 42.5 -152.5t147.5 -62.5h23q93 0 164.5 61.5t85.5 151.5l151 1080h176l-151 -1078q-23 -157 -152.5 -266.5t-290.5 -109.5h-35q-162 0 -259.5 110.5t-75.5 267.5zM489 1661l27 182h182l-26 -182h-183zM836 1661l26 182h182 l-26 -182h-182z" />
<glyph unicode="&#xdd;" horiz-adv-x="1028" d="M201 1434h190l197 -539l346 539h192l-481 -756l-94 -678h-178l94 678zM483 1561l303 303h234l-354 -303h-183z" />
<glyph unicode="&#xde;" horiz-adv-x="944" d="M82 0l201 1434h172l-29 -207h219q137 0 219.5 -93.5t63.5 -226.5l-41 -297q-19 -133 -127.5 -226t-245.5 -93h-219l-41 -291h-172zM317 453h213q66 0 120 45t63 108l41 299q9 64 -31.5 110t-106.5 46h-213z" />
<glyph unicode="&#xdf;" horiz-adv-x="1085" d="M43 -369l203 1444q22 157 144 267t274 110h16q149 0 237.5 -103t69.5 -241l-22 -164q-91 -5 -160.5 -43.5t-75.5 -89.5q-5 -35 8.5 -69t38.5 -63t55.5 -59t61 -65t54 -73t34 -90t2.5 -111q-17 -125 -118.5 -213t-229.5 -88q-125 0 -202 88.5t-60 212.5l4 30h164l-4 -41 q-9 -59 26.5 -101t95.5 -42q57 0 105 42.5t57 100.5q6 42 -7 79t-38.5 67t-57 59.5t-62 62.5t-55 69.5t-35.5 87.5t-3 110q13 96 87 164.5t171 89.5l2 14q13 100 -36.5 167t-135.5 67q-88 0 -160 -67.5t-85 -166.5l-203 -1442h-160z" />
<glyph unicode="&#xe0;" horiz-adv-x="1021" d="M119 311l57 402q19 140 134 235.5t274 95.5q196 0 356 -69l-106 -752q-3 -30 13.5 -50.5t45.5 -20.5h20l-20 -152h-21q-59 0 -105 27.5t-71 74.5q-53 -60 -124 -91t-138 -31q-158 0 -246 96t-69 235zM281 324q-11 -78 40.5 -136.5t135.5 -58.5t152 58.5t79 136.5l76 534 q-78 37 -203 37q-82 0 -149 -58.5t-78 -136.5zM328 1454h233l227 -303h-192z" />
<glyph unicode="&#xe1;" horiz-adv-x="1021" d="M119 311l57 402q19 140 134 235.5t274 95.5q196 0 356 -69l-106 -752q-3 -30 13.5 -50.5t45.5 -20.5h20l-20 -152h-21q-59 0 -105 27.5t-71 74.5q-53 -60 -124 -91t-138 -31q-158 0 -246 96t-69 235zM281 324q-11 -78 40.5 -136.5t135.5 -58.5t152 58.5t79 136.5l76 534 q-78 37 -203 37q-82 0 -149 -58.5t-78 -136.5zM401 1151l304 303h233l-354 -303h-183z" />
<glyph unicode="&#xe2;" horiz-adv-x="1021" d="M119 311l57 402q19 140 134 235.5t274 95.5q196 0 356 -69l-106 -752q-3 -30 13.5 -50.5t45.5 -20.5h20l-20 -152h-21q-59 0 -105 27.5t-71 74.5q-53 -60 -124 -91t-138 -31q-158 0 -246 96t-69 235zM281 324q-11 -78 40.5 -136.5t135.5 -58.5t152 58.5t79 136.5l76 534 q-78 37 -203 37q-82 0 -149 -58.5t-78 -136.5zM305 1153l258 301h156l180 -301h-149l-132 154l-165 -154h-148z" />
<glyph unicode="&#xe3;" horiz-adv-x="1021" d="M119 311l57 402q19 140 134 235.5t274 95.5q196 0 356 -69l-106 -752q-3 -30 13.5 -50.5t45.5 -20.5h20l-20 -152h-21q-59 0 -105 27.5t-71 74.5q-53 -60 -124 -91t-138 -31q-158 0 -246 96t-69 235zM281 324q-11 -78 40.5 -136.5t135.5 -58.5t152 58.5t79 136.5l76 534 q-78 37 -203 37q-82 0 -149 -58.5t-78 -136.5zM303 1180q12 85 83 156t149 71q41 0 85.5 -22.5t82.5 -45t63 -22.5q21 0 37.5 25.5t19.5 52.5h148q-12 -85 -81.5 -156.5t-146.5 -71.5q-41 0 -85.5 22.5t-82 45t-61.5 22.5q-23 0 -41 -23.5t-27 -53.5h-143z" />
<glyph unicode="&#xe4;" horiz-adv-x="1021" d="M119 311l57 402q19 140 134 235.5t274 95.5q196 0 356 -69l-106 -752q-3 -30 13.5 -50.5t45.5 -20.5h20l-20 -152h-21q-59 0 -105 27.5t-71 74.5q-53 -60 -124 -91t-138 -31q-158 0 -246 96t-69 235zM281 324q-11 -78 40.5 -136.5t135.5 -58.5t152 58.5t79 136.5l76 534 q-78 37 -203 37q-82 0 -149 -58.5t-78 -136.5zM350 1251l27 183h182l-27 -183h-182zM696 1251l27 183h182l-26 -183h-183z" />
<glyph unicode="&#xe5;" horiz-adv-x="1021" d="M119 311l57 402q19 140 134 235.5t274 95.5q196 0 356 -69l-106 -752q-3 -30 13.5 -50.5t45.5 -20.5h20l-20 -152h-21q-59 0 -105 27.5t-71 74.5q-53 -60 -124 -91t-138 -31q-158 0 -246 96t-69 235zM281 324q-11 -78 40.5 -136.5t135.5 -58.5t152 58.5t79 136.5l76 534 q-78 37 -203 37q-82 0 -149 -58.5t-78 -136.5zM487 1290q0 69 46.5 116.5t113.5 47.5q68 0 116 -47.5t48 -116.5q0 -67 -48 -114.5t-116 -47.5q-67 0 -113.5 47t-46.5 115zM588 1292q0 -25 16.5 -42t42.5 -17t44 17t18 42q0 26 -18 44t-44 18t-42.5 -17.5t-16.5 -44.5z" />
<glyph unicode="&#xe6;" horiz-adv-x="1384" d="M121 311l53 381q19 143 123 237.5t260 94.5h526q126 0 209 -88t66 -207l-2 -16q-13 -97 -80 -159t-191 -112l-286 -116l-2 -9q-11 -80 32.5 -136t128.5 -56q64 0 124 9.5t88 19.5l28 10l-22 -152q-84 -32 -240 -32q-56 0 -108 22t-78 57l-9 -59h-151l10 63 q-32 -34 -82 -58.5t-108 -24.5q-156 0 -233 94.5t-56 236.5zM281 317q-11 -80 29.5 -137t121.5 -57t136.5 56.5t66.5 137.5l78 557h-178q-80 0 -136 -57t-67 -137zM821 492l273 110q99 44 104 98l4 21q9 65 -36 109t-113 44h-179z" />
<glyph unicode="&#xe7;" horiz-adv-x="937" d="M115 313l57 400q19 140 134.5 235.5t277.5 95.5q155 0 239 -98.5t64 -249.5h-160q11 86 -35.5 142.5t-130.5 56.5t-152 -58.5t-79 -136.5l-54 -376q-11 -78 41.5 -136.5t137.5 -58.5q84 0 150.5 60t78.5 145h160q-22 -156 -135 -255t-275 -99q-163 0 -250.5 95.5 t-68.5 237.5zM301 -369l14 107h123q18 0 32.5 15t16.5 34q3 18 -7.5 32.5t-28.5 14.5h-103l25 166h119l-9 -57q65 0 108 -46t34 -110q-9 -66 -63 -111t-120 -45h-141z" />
<glyph unicode="&#xe8;" horiz-adv-x="913" d="M129 311l57 402q19 139 134 235t274 96h27q121 0 203 -91t65 -210l-4 -30q-14 -99 -82.5 -163.5t-190.5 -107.5l-319 -116v-9q-11 -77 38.5 -132.5t131.5 -55.5q72 0 138 11.5t96 23.5l30 12l-22 -164q-105 -32 -261 -32q-159 0 -246.5 95.5t-68.5 235.5zM317 492 l304 110q97 34 106 98l4 25q9 66 -36 118t-111 52h-15q-82 0 -147 -58.5t-76 -136.5zM328 1454h233l227 -303h-192z" />
<glyph unicode="&#xe9;" horiz-adv-x="913" d="M129 311l57 402q19 139 134 235t274 96h27q121 0 203 -91t65 -210l-4 -30q-14 -99 -82.5 -163.5t-190.5 -107.5l-319 -116v-9q-11 -77 38.5 -132.5t131.5 -55.5q72 0 138 11.5t96 23.5l30 12l-22 -164q-105 -32 -261 -32q-159 0 -246.5 95.5t-68.5 235.5zM317 492 l304 110q97 34 106 98l4 25q9 66 -36 118t-111 52h-15q-82 0 -147 -58.5t-76 -136.5zM391 1151l303 303h234l-355 -303h-182z" />
<glyph unicode="&#xea;" horiz-adv-x="913" d="M129 311l57 402q19 139 134 235t274 96h27q121 0 203 -91t65 -210l-4 -30q-14 -99 -82.5 -163.5t-190.5 -107.5l-319 -116v-9q-11 -77 38.5 -132.5t131.5 -55.5q72 0 138 11.5t96 23.5l30 12l-22 -164q-105 -32 -261 -32q-159 0 -246.5 95.5t-68.5 235.5zM303 1153 l258 301h156l180 -301h-149l-132 154l-165 -154h-148zM317 492l304 110q97 34 106 98l4 25q9 66 -36 118t-111 52h-15q-82 0 -147 -58.5t-76 -136.5z" />
<glyph unicode="&#xeb;" horiz-adv-x="913" d="M129 311l57 402q19 139 134 235t274 96h27q121 0 203 -91t65 -210l-4 -30q-14 -99 -82.5 -163.5t-190.5 -107.5l-319 -116v-9q-11 -77 38.5 -132.5t131.5 -55.5q72 0 138 11.5t96 23.5l30 12l-22 -164q-105 -32 -261 -32q-159 0 -246.5 95.5t-68.5 235.5zM317 492 l304 110q97 34 106 98l4 25q9 66 -36 118t-111 52h-15q-82 0 -147 -58.5t-76 -136.5zM350 1251l27 183h182l-27 -183h-182zM696 1251l27 183h182l-26 -183h-183z" />
<glyph unicode="&#xec;" horiz-adv-x="450" d="M63 1454h234l227 -303h-192zM121 209l115 815h159l-114 -821q-5 -29 12.5 -50.5t46.5 -21.5h41l-23 -151h-41q-95 0 -151.5 66.5t-44.5 162.5z" />
<glyph unicode="&#xed;" horiz-adv-x="450" d="M121 209l115 815h159l-114 -821q-5 -29 12.5 -50.5t46.5 -21.5h41l-23 -151h-41q-95 0 -151.5 66.5t-44.5 162.5zM147 1151l304 303h233l-354 -303h-183z" />
<glyph unicode="&#xee;" horiz-adv-x="450" d="M41 1153l258 301h156l180 -301h-150l-131 154l-166 -154h-147zM121 209l115 815h159l-114 -821q-5 -29 12.5 -50.5t46.5 -21.5h41l-23 -151h-41q-95 0 -151.5 66.5t-44.5 162.5z" />
<glyph unicode="&#xef;" horiz-adv-x="495" d="M109 1251l26 183h182l-26 -183h-182zM123 209l115 815h159l-116 -821q-5 -29 12.5 -50.5t46.5 -21.5h41l-21 -151h-41q-95 0 -152.5 67t-43.5 162zM455 1251l26 183h183l-27 -183h-182z" />
<glyph unicode="&#xf0;" horiz-adv-x="978" d="M117 311l45 324q19 140 134 236t277 96q130 0 191 -64l22 154l2 26l-188 -63l21 143l139 47q-54 74 -146 74h-114l22 150h115q100 0 176.5 -43.5t116.5 -122.5l174 57l-21 -143l-131 -43q2 -5 -6 -82l-104 -746q-21 -141 -134.5 -236t-273.5 -95q-163 0 -250.5 95 t-66.5 236zM276 324q-11 -78 41.5 -136.5t137.5 -58.5q83 0 149.5 58.5t77.5 136.5l43 299q11 78 -40 136t-136 58q-84 0 -151.5 -58t-78.5 -136z" />
<glyph unicode="&#xf1;" horiz-adv-x="1026" d="M96 0l144 1024h159l-8 -61q102 81 242 81t224.5 -98t64.5 -239l-70 -490q-3 -26 15 -45.5t46 -19.5h21l-21 -152h-20q-95 0 -153 67t-46 162l66 461q12 85 -36 146t-126 61q-87 0 -160.5 -57t-83.5 -135l-98 -705h-160zM264 1180q12 85 83 156t149 71q41 0 85.5 -22.5 t82.5 -45t63 -22.5q21 0 37.5 25.5t19.5 52.5h148q-12 -85 -81.5 -156.5t-145.5 -71.5q-41 0 -85.5 22.5t-82.5 45t-62 22.5q-23 0 -40.5 -23.5t-26.5 -53.5h-144z" />
<glyph unicode="&#xf2;" d="M129 311q-19 -141 69 -236t251 -95q160 0 273 95t132 236l57 402q19 140 -67.5 235.5t-245.5 95.5q-162 0 -277.5 -95.5t-134.5 -235.5zM291 324l53 376q11 78 78 136.5t151 58.5q85 0 136.5 -58.5t40.5 -136.5l-54 -376q-11 -78 -77.5 -136.5t-149.5 -58.5 q-85 0 -137 58.5t-41 136.5zM324 1454h233l227 -303h-192z" />
<glyph unicode="&#xf3;" d="M129 311q-19 -141 69 -236t251 -95q160 0 273 95t132 236l57 402q19 140 -67.5 235.5t-245.5 95.5q-162 0 -277.5 -95.5t-134.5 -235.5zM291 324l53 376q11 78 78 136.5t151 58.5q85 0 136.5 -58.5t40.5 -136.5l-54 -376q-11 -78 -77.5 -136.5t-149.5 -58.5 q-85 0 -137 58.5t-41 136.5zM395 1151l303 303h234l-354 -303h-183z" />
<glyph unicode="&#xf4;" d="M129 311q-19 -141 69 -236t251 -95q160 0 273 95t132 236l57 402q19 140 -67.5 235.5t-245.5 95.5q-162 0 -277.5 -95.5t-134.5 -235.5zM291 324l53 376q11 78 78 136.5t151 58.5q85 0 136.5 -58.5t40.5 -136.5l-54 -376q-11 -78 -77.5 -136.5t-149.5 -58.5 q-85 0 -137 58.5t-41 136.5zM319 1153l259 301h155l180 -301h-149l-131 154l-166 -154h-148z" />
<glyph unicode="&#xf5;" d="M129 311q-19 -141 69 -236t251 -95q160 0 273 95t132 236l57 402q19 140 -67.5 235.5t-245.5 95.5q-162 0 -277.5 -95.5t-134.5 -235.5zM291 324l53 376q11 78 78 136.5t151 58.5q85 0 136.5 -58.5t40.5 -136.5l-54 -376q-11 -78 -77.5 -136.5t-149.5 -58.5 q-85 0 -137 58.5t-41 136.5zM293 1180q12 85 82.5 156t148.5 71q41 0 85.5 -22.5t83 -45t63.5 -22.5q21 0 37.5 25.5t19.5 52.5h148q-12 -85 -81.5 -156.5t-146.5 -71.5q-41 0 -85.5 22.5t-82 45t-61.5 22.5q-23 0 -41 -23.5t-27 -53.5h-143z" />
<glyph unicode="&#xf6;" d="M129 311q-19 -141 69 -236t251 -95q160 0 273 95t132 236l57 402q19 140 -67.5 235.5t-245.5 95.5q-162 0 -277.5 -95.5t-134.5 -235.5zM291 324l53 376q11 78 78 136.5t151 58.5q85 0 136.5 -58.5t40.5 -136.5l-54 -376q-11 -78 -77.5 -136.5t-149.5 -58.5 q-85 0 -137 58.5t-41 136.5zM348 1251l27 183h182l-27 -183h-182zM694 1251l27 183h182l-26 -183h-183z" />
<glyph unicode="&#xf7;" horiz-adv-x="1198" d="M162 520l24 164h932l-24 -164h-932zM479 176l29 203h207l-29 -203h-207zM571 829l29 203h207l-29 -203h-207z" />
<glyph unicode="&#xf8;" d="M92 0l76 111q-54 80 -39 200l57 402q19 140 134.5 235.5t277.5 95.5q100 0 168 -38l12 18h170l-78 -113q56 -85 41 -198l-57 -402q-19 -141 -132 -236t-273 -95q-109 0 -175 38l-14 -18h-168zM289 293l385 573q-47 29 -101 29q-84 0 -151 -58.5t-78 -136.5l-53 -376z M367 158q45 -29 102 -29q83 0 149.5 58.5t77.5 136.5l54 376v29z" />
<glyph unicode="&#xf9;" horiz-adv-x="1030" d="M141 317l101 707h159l-98 -690q-12 -85 36 -146t126 -61q87 0 160.5 57t83.5 135l100 705h160l-115 -813q-1 -25 17 -42t44 -17h21l-23 -152h-20q-55 0 -102.5 28.5t-75.5 71.5q-110 -120 -285 -120q-140 0 -224.5 98t-64.5 239zM352 1454h234l227 -303h-192z" />
<glyph unicode="&#xfa;" horiz-adv-x="1030" d="M141 317l101 707h159l-98 -690q-12 -85 36 -146t126 -61q87 0 160.5 57t83.5 135l100 705h160l-115 -813q-1 -25 17 -42t44 -17h21l-23 -152h-20q-55 0 -102.5 28.5t-75.5 71.5q-110 -120 -285 -120q-140 0 -224.5 98t-64.5 239zM426 1151l303 303h234l-355 -303h-182z " />
<glyph unicode="&#xfb;" horiz-adv-x="1030" d="M141 317l101 707h159l-98 -690q-12 -85 36 -146t126 -61q87 0 160.5 57t83.5 135l100 705h160l-115 -813q-1 -25 17 -42t44 -17h21l-23 -152h-20q-55 0 -102.5 28.5t-75.5 71.5q-110 -120 -285 -120q-140 0 -224.5 98t-64.5 239zM340 1153l258 301h156l180 -301h-150 l-131 154l-166 -154h-147z" />
<glyph unicode="&#xfc;" horiz-adv-x="1030" d="M141 317l101 707h159l-98 -690q-12 -85 36 -146t126 -61q87 0 160.5 57t83.5 135l100 705h160l-115 -813q-1 -25 17 -42t44 -17h21l-23 -152h-20q-55 0 -102.5 28.5t-75.5 71.5q-110 -120 -285 -120q-140 0 -224.5 98t-64.5 239zM362 1251l27 183h182l-26 -183h-183z M709 1251l26 183h183l-27 -183h-182z" />
<glyph unicode="&#xfd;" horiz-adv-x="962" d="M121 -135q9 63 46 118.5t95 90.5l74 45q-19 0 -31 6q-86 38 -127.5 118.5t-27.5 180.5l83 600h160l-82 -588q-11 -78 40 -136t134 -58q84 0 153.5 58.5t80.5 135.5l82 588h160l-152 -1083q-21 -142 -133 -236t-277 -94q-136 0 -214.5 69.5t-63.5 184.5zM283 -129 q-6 -45 28 -79t97 -34h12q88 0 153 58t76 137l33 225q-23 -26 -76 -57l-264 -158q-51 -35 -59 -92zM406 1151l303 303h233l-354 -303h-182z" />
<glyph unicode="&#xfe;" horiz-adv-x="983" d="M43 -369l254 1803h160l-66 -455q95 65 217 65q159 0 247 -96t67 -235l-56 -402q-21 -141 -134.5 -236t-272.5 -95q-122 0 -199 67l-57 -416h-160zM299 324q-11 -77 41.5 -136t136.5 -59t151.5 58.5t78.5 136.5l53 376q11 78 -39.5 136.5t-132.5 58.5q-83 0 -153.5 -55.5 t-80.5 -130.5z" />
<glyph unicode="&#xff;" horiz-adv-x="962" d="M121 -135q9 63 46 118.5t95 90.5l74 45q-19 0 -31 6q-86 38 -127.5 118.5t-27.5 180.5l83 600h160l-82 -588q-11 -78 40 -136t134 -58q84 0 153.5 58.5t80.5 135.5l82 588h160l-152 -1083q-21 -142 -133 -236t-277 -94q-136 0 -214.5 69.5t-63.5 184.5zM283 -129 q-6 -45 28 -79t97 -34h12q88 0 153 58t76 137l33 225q-23 -26 -76 -57l-264 -158q-51 -35 -59 -92zM332 1251l26 183h183l-27 -183h-182zM678 1251l27 183h182l-27 -183h-182z" />
<glyph unicode="&#x152;" horiz-adv-x="1333" d="M125 383l94 670q23 159 152 270t291 111h712l-22 -164h-426l-62 -432h377l-22 -162h-377l-72 -512h442l-22 -164h-729q-162 0 -260 112t-76 271zM299 381q-12 -92 42 -154.5t148 -62.5h105l156 1102h-105q-94 0 -167 -61.5t-85 -153.5z" />
<glyph unicode="&#x153;" horiz-adv-x="1382" d="M129 311l57 402q19 140 124 235.5t253 95.5q74 0 134 -31.5t98 -84.5q116 116 288 116q125 0 208.5 -91t66.5 -210l-4 -30q-14 -97 -81.5 -159.5t-191.5 -111.5l-286 -116v-9q-11 -79 32.5 -133.5t124.5 -54.5q72 0 133 11.5t86 23.5l25 12l-22 -164q-84 -32 -240 -32 q-174 0 -256 112q-51 -52 -120 -82t-144 -30q-148 0 -226 95t-59 236zM285 324q-11 -79 31 -137t118 -58q71 0 129.5 56t69.5 130l55 400q11 74 -33 127t-116 53q-75 0 -132.5 -58t-68.5 -137zM819 492l271 110q98 42 106 98l4 25q9 66 -36 118t-111 52q-77 0 -134.5 -54 t-68.5 -132z" />
<glyph unicode="&#x178;" horiz-adv-x="1028" d="M201 1434h190l197 -539l346 539h192l-481 -756l-94 -678h-178l94 678zM430 1661l27 182h182l-27 -182h-182zM776 1661l27 182h182l-27 -182h-182z" />
<glyph unicode="&#x2c6;" horiz-adv-x="598" d="M164 1153l258 301h156l180 -301h-150l-131 154l-166 -154h-147z" />
<glyph unicode="&#x2dc;" horiz-adv-x="657" d="M84 1180q12 85 82.5 156t148.5 71q41 0 85.5 -22.5t83 -45t63.5 -22.5q21 0 37.5 25.5t19.5 52.5h148q-12 -85 -81.5 -156.5t-146.5 -71.5q-41 0 -85.5 22.5t-82 45t-61.5 22.5q-23 0 -41 -23.5t-27 -53.5h-143z" />
<glyph unicode="&#x2000;" horiz-adv-x="932" />
<glyph unicode="&#x2001;" horiz-adv-x="1864" />
<glyph unicode="&#x2002;" horiz-adv-x="932" />
<glyph unicode="&#x2003;" horiz-adv-x="1864" />
<glyph unicode="&#x2004;" horiz-adv-x="621" />
<glyph unicode="&#x2005;" horiz-adv-x="466" />
<glyph unicode="&#x2006;" horiz-adv-x="310" />
<glyph unicode="&#x2007;" horiz-adv-x="310" />
<glyph unicode="&#x2008;" horiz-adv-x="233" />
<glyph unicode="&#x2009;" horiz-adv-x="372" />
<glyph unicode="&#x200a;" horiz-adv-x="103" />
<glyph unicode="&#x2010;" horiz-adv-x="765" d="M164 520l22 160h500l-22 -160h-500z" />
<glyph unicode="&#x2011;" horiz-adv-x="765" d="M164 520l22 160h500l-22 -160h-500z" />
<glyph unicode="&#x2012;" horiz-adv-x="765" d="M164 520l22 160h500l-22 -160h-500z" />
<glyph unicode="&#x2013;" horiz-adv-x="798" d="M41 520l22 160h779l-23 -160h-778z" />
<glyph unicode="&#x2014;" horiz-adv-x="1472" d="M41 520l22 160h1453l-23 -160h-1452z" />
<glyph unicode="&#x2018;" horiz-adv-x="507" d="M184 995l209 439h115l-135 -439h-189z" />
<glyph unicode="&#x2019;" horiz-adv-x="487" d="M225 995l135 439h189l-209 -439h-115z" />
<glyph unicode="&#x201a;" horiz-adv-x="569" d="M61 -238l136 439h188l-209 -439h-115z" />
<glyph unicode="&#x201c;" horiz-adv-x="833" d="M184 995l209 439h115l-135 -439h-189zM510 995l209 439h115l-136 -439h-188z" />
<glyph unicode="&#x201d;" horiz-adv-x="813" d="M225 995l135 439h189l-209 -439h-115zM551 995l135 439h188l-208 -439h-115z" />
<glyph unicode="&#x201e;" horiz-adv-x="894" d="M61 -238l136 439h188l-209 -439h-115zM387 -238l135 439h189l-209 -439h-115z" />
<glyph unicode="&#x2022;" horiz-adv-x="925" d="M152 735q0 128 90 218.5t219 90.5q127 0 218 -91t91 -218q0 -129 -90.5 -219t-218.5 -90q-129 0 -219 90t-90 219z" />
<glyph unicode="&#x2026;" horiz-adv-x="1294" d="M125 0l29 201h200l-28 -201h-201zM539 0l28 201h201l-29 -201h-200zM952 0l29 201h201l-29 -201h-201z" />
<glyph unicode="&#x202f;" horiz-adv-x="372" />
<glyph unicode="&#x2039;" horiz-adv-x="708" d="M174 596l295 326h190l-297 -326l209 -324h-192z" />
<glyph unicode="&#x203a;" horiz-adv-x="708" d="M131 272l297 324l-209 326h193l204 -326l-294 -324h-191z" />
<glyph unicode="&#x205f;" horiz-adv-x="466" />
<glyph unicode="&#x20ac;" horiz-adv-x="1099" d="M111 492l22 161h96l17 117h-96l22 162h96l21 145q22 157 149 267t287 110h12q161 0 257 -108.5t73 -270.5h-172q12 89 -42.5 152t-145.5 63t-162.5 -63t-83.5 -152l-21 -143h457l-23 -162h-456l-17 -117h394l-23 -161h-393l-21 -136q-12 -90 42.5 -153.5t144.5 -63.5 q91 0 163.5 63t84.5 152l4 25h172l-4 -23q-22 -157 -149.5 -266.5t-287.5 -109.5h-12q-160 0 -255.5 110.5t-72.5 267.5l19 134h-96z" />
<glyph unicode="&#x2122;" horiz-adv-x="1452" d="M203 1307l18 127h490l-19 -127h-178l-100 -717h-140l101 717h-172zM688 590l119 844h137l115 -342l209 342h139l-119 -844h-141l72 506l26 82l-151 -244h-113l-86 244l2 -84l-72 -504h-137z" />
<glyph unicode="&#x25fc;" horiz-adv-x="1024" d="M0 0v1024h1024v-1024h-1024z" />
<glyph unicode="&#xfb01;" horiz-adv-x="1112" d="M94 -369l174 1246h-143l20 147h144l20 147q17 118 112.5 200.5t215.5 82.5q90 0 172 -63l-107 -123q-57 39 -84 39q-54 0 -96.5 -38t-48.5 -91l-22 -154h573l-115 -821q-5 -29 13 -50.5t47 -21.5h41l-23 -151h-41q-95 0 -152.5 67t-43.5 162l94 668h-414l-174 -1246h-162 zM887 1251l24 183h185l-25 -183h-184z" />
<glyph unicode="&#xfb02;" horiz-adv-x="1130" d="M94 -369l174 1246h-143l22 147h144l16 127q17 118 112.5 200.5t215.5 82.5h467l-174 -1231q-5 -29 12.5 -50.5t46.5 -21.5h41l-20 -151h-41q-95 0 -153.5 67t-45.5 162l150 1071h-306q-53 0 -95 -38t-50 -91l-16 -127h260l-23 -147h-260l-174 -1246h-160z" />
</font>
</defs>
</svg>
