<?xml version="1.0" standalone="no"?>
<!DOCTYPE svg PUBLIC "-//W3C//DTD SVG 1.1//EN" "http://www.w3.org/Graphics/SVG/1.1/DTD/svg11.dtd" >
<svg xmlns="http://www.w3.org/2000/svg">
<metadata></metadata>
<defs>
<font id="decimaregular" horiz-adv-x="1075" >
<font-face units-per-em="2048" ascent="1536" descent="-512" />
<missing-glyph horiz-adv-x="450" />
<glyph horiz-adv-x="0" />
<glyph horiz-adv-x="682" />
<glyph unicode=" "  horiz-adv-x="450" />
<glyph unicode="&#x09;" horiz-adv-x="450" />
<glyph unicode="&#xa0;" horiz-adv-x="450" />
<glyph unicode="!" horiz-adv-x="528" d="M164 0v201h201v-201h-201zM180 338v1096h166v-1096h-166z" />
<glyph unicode="&#x22;" horiz-adv-x="761" d="M174 950v484h145v-484h-145zM442 950v484h146v-484h-146z" />
<glyph unicode="#" horiz-adv-x="1271" d="M133 393v154h207l45 323h-186v154h209l57 410h156l-60 -410h240l59 410h160l-59 -410h178v-154h-199l-47 -323h180v-154h-203l-55 -393h-158l54 393h-238l-55 -393h-156l55 393h-184zM494 547h239l45 323h-237z" />
<glyph unicode="$" horiz-adv-x="1048" d="M133 373v61h170v-61q0 -90 59.5 -152.5t149.5 -62.5h25q89 0 147.5 58.5t58.5 139.5q0 60 -20 108t-54.5 81.5t-79 61.5t-93 52.5t-97.5 50t-93.5 58t-79 72t-54.5 97t-20 128.5q0 132 82 233.5t208 131.5v102h162v-102q133 -27 215 -131t82 -259h-172q0 104 -55.5 169 t-147.5 65q-87 0 -143.5 -57t-56.5 -142q0 -52 25.5 -94.5t66.5 -70.5t94 -58t108.5 -56t108.5 -65t94 -84.5t66.5 -116t25.5 -157.5q0 -145 -87 -248.5t-224 -122.5v-100h-162v100q-137 19 -223 123t-86 248z" />
<glyph unicode="%" horiz-adv-x="1871" d="M133 874v271q0 128 88.5 217.5t210.5 89.5h14q124 0 213 -89.5t89 -217.5v-271q0 -129 -89 -218t-213 -89h-14q-122 0 -210.5 90t-88.5 217zM293 868q0 -65 42 -110t105 -45q60 0 103 45t43 108v285q0 64 -44 110t-106 46q-59 0 -101 -46t-42 -110v-283zM485 0l729 1434 h172l-724 -1434h-177zM1126 285v270q0 129 87 218t210 89h17q124 0 211.5 -88.5t87.5 -218.5v-270q0 -127 -88 -217.5t-211 -90.5h-17q-121 0 -209 91t-88 217zM1286 281q0 -66 42.5 -112t105.5 -46q60 0 101.5 45.5t41.5 110.5v282q0 65 -42.5 111.5t-104.5 46.5 q-60 0 -102 -46.5t-42 -111.5v-280z" />
<glyph unicode="&#x26;" horiz-adv-x="1005" d="M113 358v293q0 98 50 174.5t132 116.5l-121 272v220h641v-162h-471v-15l332 -761l43 -123v299h172v-316q0 -125 -64 -209l66 -147h-186l-13 29q-90 -49 -186 -49h-12q-160 0 -271.5 110.5t-111.5 267.5zM285 356q0 -91 63.5 -153t155.5 -62q67 0 123 35l-267 615 q-34 -23 -54.5 -62t-20.5 -80v-293z" />
<glyph unicode="'" horiz-adv-x="495" d="M174 934v483h148v-483h-148z" />
<glyph unicode="(" horiz-adv-x="669" d="M174 -10v1089q0 157 118.5 267t285.5 110v-166q-101 0 -167.5 -61t-66.5 -152v-1089q0 -91 66.5 -153t167.5 -62v-162q-167 0 -285.5 111t-118.5 268z" />
<glyph unicode=")" horiz-adv-x="671" d="M92 -227q100 0 166 62t66 153v1089q0 91 -65.5 152t-166.5 61v166q168 0 287 -110.5t119 -266.5v-1089q0 -157 -119.5 -268t-286.5 -111v162z" />
<glyph unicode="*" horiz-adv-x="704" d="M92 1192l41 131l150 -43v152h139v-148l149 47l41 -125l-151 -55l94 -123l-113 -80l-90 119l-80 -119l-114 76l84 125z" />
<glyph unicode="+" horiz-adv-x="1198" d="M133 520v166h381v371h170v-371h381v-166h-381v-375h-170v375h-381z" />
<glyph unicode="," horiz-adv-x="471" d="M133 -240l70 240h-66v201h201v-187l-86 -254h-119z" />
<glyph unicode="-" horiz-adv-x="765" d="M133 520v160h500v-160h-500z" />
<glyph unicode="." horiz-adv-x="466" d="M133 0v201h201v-201h-201z" />
<glyph unicode="/" horiz-adv-x="741" d="M10 0l549 1434h172l-551 -1434h-170z" />
<glyph unicode="0" horiz-adv-x="1011" d="M133 358v719q0 157 106 267t259 110h14q152 0 259.5 -110t107.5 -267v-721q0 -157 -107.5 -266.5t-259.5 -109.5h-14q-153 0 -259 110.5t-106 267.5zM301 356q0 -91 59.5 -153t145.5 -62q85 0 144 61.5t59 151.5v721q0 91 -59.5 154t-145.5 63q-85 0 -144 -63t-59 -154 v-719z" />
<glyph unicode="1" horiz-adv-x="563" d="M31 1272v162h358v-1434h-172v1272h-186z" />
<glyph unicode="2" horiz-adv-x="970" d="M92 0v150q0 99 34 186.5t88 152.5t119.5 124t131.5 113.5t120 108.5t88 120t34 137q0 85 -62.5 142.5t-148.5 57.5q-93 0 -154 -72t-61 -176h-172q0 177 114 293.5t275 116.5t271 -107.5t110 -267.5q0 -88 -34 -167.5t-88 -140t-120 -118t-131.5 -112.5t-119.5 -110.5 t-88 -124.5t-34 -144h615v-162h-787z" />
<glyph unicode="3" horiz-adv-x="985" d="M72 356v41h172v-43q0 -91 63.5 -152t155.5 -61q91 0 154 62t63 153v287q0 66 -47.5 114t-114.5 48h-153v153l233 314h-448v162h667v-152l-244 -317q110 -14 194.5 -106t84.5 -214v-287q0 -157 -111.5 -267.5t-271.5 -110.5h-14q-160 0 -271.5 109.5t-111.5 266.5z" />
<glyph unicode="4" horiz-adv-x="985" d="M72 303v160l458 971h185l-447 -965h334v369h172v-369h119v-166h-119v-303h-172v303h-530z" />
<glyph unicode="5" horiz-adv-x="1024" d="M113 356v41h172v-43q0 -91 63.5 -152t155.5 -61q90 0 152.5 62.5t62.5 152.5v234q0 89 -63 152t-152 63h-15q-62 0 -109.5 -34t-64.5 -75l-157 47l59 691h625v-166h-461l-35 -338q66 37 150 37h12q160 0 271.5 -109t111.5 -266v-234q0 -157 -111.5 -267.5t-271.5 -110.5 h-12q-160 0 -271.5 109.5t-111.5 266.5z" />
<glyph unicode="6" horiz-adv-x="1044" d="M133 356v719q0 158 108 268.5t267 110.5h10q160 0 269.5 -111t109.5 -270h-174q0 92 -60 154.5t-151 62.5q-89 0 -149 -63t-60 -154v-194q88 88 211 88h14q160 0 271.5 -109t111.5 -266v-234q0 -157 -111.5 -267.5t-271.5 -110.5h-14q-160 0 -270.5 109.5t-110.5 266.5z M303 354q0 -90 64 -151.5t155 -61.5t154 62t63 153v234q0 89 -63 152t-154 63h-12q-78 0 -142.5 -64t-64.5 -151v-236z" />
<glyph unicode="7" horiz-adv-x="819" d="M31 1272v162h717v-150q0 -63 -33 -177t-80 -247t-94 -276t-80 -300.5t-33 -283.5h-176q0 135 32.5 296.5t79 304.5t93 272.5t81 237t37.5 161.5h-544z" />
<glyph unicode="8" horiz-adv-x="1044" d="M133 358v86q0 90 39.5 168t110.5 133q-63 48 -98 119.5t-35 157.5v74q0 149 105.5 253.5t256.5 104.5h18q152 0 257.5 -104.5t105.5 -253.5v-76q0 -83 -34.5 -155t-94.5 -120q70 -55 108.5 -132.5t38.5 -168.5v-88q0 -157 -110 -266.5t-269 -109.5h-18q-159 0 -270 110.5 t-111 267.5zM305 356q0 -91 64.5 -153t156.5 -62q88 0 150.5 61.5t62.5 151.5v88q0 91 -63 154t-154 63q-90 0 -153.5 -63.5t-63.5 -153.5v-86zM322 1020q0 -80 54.5 -139.5t137.5 -59.5h18q78 0 133.5 56.5t55.5 140.5v69q0 87 -58 146t-145 59q-83 0 -139.5 -59.5 t-56.5 -145.5v-67z" />
<glyph unicode="9" horiz-adv-x="1044" d="M133 842v233q0 157 112 268t271 111h14q159 0 270 -110t111 -267v-719q0 -158 -107.5 -268t-266.5 -110h-11q-160 0 -269.5 110.5t-109.5 269.5h175q0 -92 59.5 -154.5t150.5 -62.5q89 0 149 63t60 154v195q-88 -88 -211 -88h-14q-160 0 -271.5 109t-111.5 266zM305 844 q0 -89 63 -152t154 -63h13q77 0 141.5 64t64.5 151v235q0 90 -64 151.5t-155 61.5t-154 -62t-63 -153v-233z" />
<glyph unicode=":" horiz-adv-x="466" d="M133 0v201h201v-201h-201zM133 823v201h201v-201h-201z" />
<glyph unicode=";" horiz-adv-x="471" d="M133 -240l70 240h-66v201h201v-187l-86 -254h-119zM137 823v201h201v-201h-201z" />
<glyph unicode="&#x3c;" horiz-adv-x="1114" d="M133 522v150l848 383v-176l-643 -283l643 -281v-178z" />
<glyph unicode="=" horiz-adv-x="1173" d="M133 342v160h907v-160h-907zM133 694v160h907v-160h-907z" />
<glyph unicode="&#x3e;" horiz-adv-x="1114" d="M133 137v178l643 281l-643 283v176l848 -383v-150z" />
<glyph unicode="?" horiz-adv-x="966" d="M82 1065q0 176 110.5 281.5t274.5 105.5q166 0 276.5 -103.5t110.5 -271.5q0 -77 -18 -137.5t-47.5 -101.5t-64.5 -77.5t-70 -74.5t-64.5 -82.5t-47.5 -112.5t-18 -153h-170q0 100 18 180t46.5 131t63 93.5t69 77.5t63 70.5t46.5 85.5t18 111q0 85 -61 142t-150 57 q-94 0 -154.5 -60t-60.5 -161h-170zM336 0v203h207v-203h-207z" />
<glyph unicode="@" horiz-adv-x="1323" d="M133 143v811q0 133 70.5 249t189 183.5t254.5 67.5h33q134 0 251 -65t188 -178t71 -246v-965h-160v49q-85 -65 -207 -65q-159 0 -259.5 95.5t-100.5 237.5v383q0 142 100.5 239t259.5 97q123 0 207 -71q-1 90 -50 166.5t-129 120.5t-171 44h-33q-140 0 -246 -102.5 t-106 -239.5v-811q0 -137 98 -238.5t234 -101.5h39v-157h-33q-135 0 -250.5 68t-182.5 182.5t-67 246.5zM623 330q0 -77 59.5 -137t140.5 -60q85 0 146 59.5t61 137.5v360q0 79 -60 137t-145 58q-83 0 -142.5 -58t-59.5 -137v-360z" />
<glyph unicode="A" d="M143 0v612l248 822h293l248 -826v-608h-174v457h-443v-457h-172zM324 616h430l-197 656h-39z" />
<glyph unicode="B" horiz-adv-x="1024" d="M164 0v1434h375q145 0 241.5 -93.5t96.5 -226.5v-113q0 -69 -32.5 -132.5t-84.5 -110.5q131 -106 131 -266v-148q0 -147 -107 -245.5t-252 -98.5h-368zM336 162h196q80 0 133.5 54t53.5 128v148q0 27 -11 57t-32 59.5t-59 48.5t-85 19h-196v-514zM336 831h207 q70 0 119 47t49 115v115q0 66 -49 113t-119 47h-207v-437z" />
<glyph unicode="C" horiz-adv-x="1052" d="M143 358v719q0 157 113 267t276 110h11q162 0 274.5 -110t112.5 -269h-172q0 89 -64 151t-155 62q-94 0 -158 -62t-64 -151v-719q0 -90 64.5 -152.5t157.5 -62.5q91 0 155 62t64 151v43h172v-41q0 -157 -112.5 -266.5t-274.5 -109.5h-11q-162 0 -275.5 110.5 t-113.5 267.5z" />
<glyph unicode="D" horiz-adv-x="1062" d="M154 0v1434h378q161 0 274.5 -110t113.5 -267v-680q0 -157 -113.5 -267t-274.5 -110h-378zM326 162h200q92 0 155.5 61t63.5 152v680q0 91 -63.5 152t-155.5 61h-200v-1106z" />
<glyph unicode="E" horiz-adv-x="983" d="M164 0v1434h700v-162h-528v-436h479v-160h-479v-514h545v-162h-717z" />
<glyph unicode="F" horiz-adv-x="925" d="M154 0v1434h700v-162h-528v-436h479v-160h-479v-676h-172z" />
<glyph unicode="G" horiz-adv-x="1089" d="M143 358v719q0 157 113 267t276 110h35q162 0 275.5 -110.5t113.5 -268.5h-176q0 90 -63 151.5t-156 61.5h-22q-94 0 -158 -62t-64 -151v-719q0 -90 64.5 -152.5t157.5 -62.5h22q93 0 156 61.5t63 151.5v221h-209v162h385v-381q0 -157 -114 -266.5t-275 -109.5h-35 q-162 0 -275.5 110.5t-113.5 267.5z" />
<glyph unicode="H" horiz-adv-x="1116" d="M164 0v1434h172v-598h442v598h174v-1434h-174v676h-442v-676h-172z" />
<glyph unicode="I" horiz-adv-x="499" d="M164 0v1434h172v-1434h-172z" />
<glyph unicode="J" horiz-adv-x="927" d="M92 311v226h172v-236q0 -66 49 -113t115 -47q70 0 119 47t49 113v1133h178v-1123q0 -138 -99.5 -234.5t-242.5 -96.5q-141 0 -240.5 96.5t-99.5 234.5z" />
<glyph unicode="K" horiz-adv-x="1056" d="M164 0v1434h174v-1434h-174zM338 760l455 674h200l-456 -680l479 -754h-199z" />
<glyph unicode="L" horiz-adv-x="854" d="M164 0v1434h174v-1272h465v-162h-639z" />
<glyph unicode="M" horiz-adv-x="1306" d="M164 0v1434h186l299 -631h8l299 631h187v-1434h-174v1024l6 92l-246 -502h-151l-246 500l6 -90v-1024h-174z" />
<glyph unicode="N" horiz-adv-x="1116" d="M164 0v1434h188l443 -1094l-15 111v983h172v-1434h-188l-442 1096l14 -115v-981h-172z" />
<glyph unicode="O" horiz-adv-x="1099" d="M143 358v719q0 157 113 267t276 110h35q161 0 275 -110t114 -267v-721q0 -157 -114 -266.5t-275 -109.5h-35q-162 0 -275.5 110.5t-113.5 267.5zM317 356q0 -90 64.5 -152.5t157.5 -62.5h22q93 0 156 61.5t63 151.5v721q0 90 -63 151.5t-156 61.5h-22q-94 0 -158 -62 t-64 -151v-719z" />
<glyph unicode="P" horiz-adv-x="985" d="M164 0v1434h391q137 0 232.5 -93.5t95.5 -226.5v-295q0 -135 -95.5 -228t-232.5 -93h-219v-498h-172zM336 659h211q67 0 114.5 45.5t47.5 108.5v299q0 65 -47.5 110.5t-114.5 45.5h-211v-609z" />
<glyph unicode="Q" horiz-adv-x="1095" d="M143 358v719q0 157 113 267t276 110h35q161 0 275 -110t114 -267v-721q0 -109 -57 -194l94 -103l-119 -108l-88 94q-97 -65 -219 -65h-35q-162 0 -275.5 110.5t-113.5 267.5zM317 356q0 -24 2 -34q91 102 220 102q123 0 233 -123q8 18 8 53v721q0 90 -63 151.5t-156 61.5 h-22q-94 0 -158 -62t-64 -151v-719zM401 186q60 -47 144 -47q72 0 129 31q-74 100 -139 100q-83 0 -134 -84z" />
<glyph unicode="R" horiz-adv-x="1032" d="M164 0v1434h391q137 0 232.5 -93.5t95.5 -226.5v-272q0 -98 -49.5 -175.5t-137.5 -115.5l234 -551h-187l-223 522h-184v-522h-172zM336 682h213q66 0 113 45.5t47 108.5v276q0 64 -47 110t-113 46h-213v-586z" />
<glyph unicode="S" horiz-adv-x="1038" d="M113 356v56h174v-56q0 -90 64 -152.5t157 -62.5h22q92 0 156 59t64 140q0 77 -34 136t-88.5 98t-120.5 73.5t-131.5 72t-120 82.5t-88.5 115.5t-34 161.5q0 159 113.5 267t275.5 108t274.5 -110t112.5 -271h-170q0 86 -62.5 150.5t-154.5 64.5q-90 0 -152.5 -57 t-62.5 -141q0 -60 34 -108.5t88.5 -83.5t121 -68.5t132.5 -75t120.5 -92t88.5 -129t34 -177.5q0 -156 -113.5 -266t-273.5 -110h-37q-163 0 -276 109.5t-113 266.5z" />
<glyph unicode="T" horiz-adv-x="888" d="M51 1270v164h787v-164h-306v-1270h-178v1270h-303z" />
<glyph unicode="U" horiz-adv-x="1120" d="M154 358v1076h174v-1078q0 -90 64 -152.5t157 -62.5h22q93 0 156.5 61.5t63.5 151.5v1080h176v-1078q0 -157 -114 -266.5t-275 -109.5h-35q-162 0 -275.5 110.5t-113.5 267.5z" />
<glyph unicode="V" d="M143 821v613h172v-592l203 -680h39l201 680v592h174v-609l-248 -825h-293z" />
<glyph unicode="W" horiz-adv-x="1419" d="M154 823v611h174v-596l84 -672h18l176 653h205l174 -653h19l86 672v596h176v-611l-119 -823h-279l-153 604h-13l-151 -604h-281z" />
<glyph unicode="X" horiz-adv-x="1054" d="M72 0l360 745l-334 689h191l237 -508l240 508h188l-333 -689l362 -745h-188l-269 563l-266 -563h-188z" />
<glyph unicode="Y" horiz-adv-x="1028" d="M51 1434h191l272 -539l270 539h193l-375 -756v-678h-178v678z" />
<glyph unicode="Z" horiz-adv-x="997" d="M102 0v172l588 1100h-557v162h762v-172l-590 -1100h588v-162h-791z" />
<glyph unicode="[" horiz-adv-x="669" d="M174 -367v1801h404v-166h-234v-1473h234v-162h-404z" />
<glyph unicode="\" horiz-adv-x="749" d="M10 1434h170l559 -1434h-172z" />
<glyph unicode="]" horiz-adv-x="669" d="M92 -205h234v1473h-234v166h404v-1801h-404v162z" />
<glyph unicode="^" horiz-adv-x="983" d="M133 676l289 756h139l289 -756h-152l-211 541l-202 -541h-152z" />
<glyph unicode="_" horiz-adv-x="1005" d="M10 -154h985v-137h-985v137z" />
<glyph unicode="`" horiz-adv-x="505" d="M10 1454h234l260 -303h-182z" />
<glyph unicode="a" horiz-adv-x="946" d="M92 299q0 133 97 229.5t233 104.5l231 14v53q0 81 -47.5 138t-128.5 57q-72 0 -117 -39t-55 -111h-162q14 134 104 216.5t230 82.5q161 0 248.5 -93.5t87.5 -237.5v-713h-160v63q-34 -34 -95.5 -58.5t-131.5 -24.5q-138 0 -236 91t-98 228zM252 301q0 -72 53.5 -123 t128.5 -51q93 0 156 51t63 119v203l-223 -15q-76 -4 -127 -57t-51 -127z" />
<glyph unicode="b" horiz-adv-x="983" d="M143 0v1434h160v-473q25 31 86 57t121 26q158 0 259 -96t101 -235v-402q0 -140 -100.5 -235.5t-259.5 -95.5q-60 0 -121 26t-86 57v-63h-160zM303 324q0 -77 61.5 -136t145.5 -59q82 0 141.5 59t59.5 136v376q0 78 -59.5 136.5t-143.5 58.5t-144.5 -59t-60.5 -136v-376z " />
<glyph unicode="c" horiz-adv-x="950" d="M123 313v400q0 140 101 235.5t263 95.5q155 0 254 -99t99 -249h-160q0 85 -54.5 142t-138.5 57t-144 -58.5t-60 -136.5v-376q0 -78 59.5 -136.5t144.5 -58.5q84 0 142.5 60t58.5 145h160q0 -156 -99.5 -255t-261.5 -99q-163 0 -263.5 95.5t-100.5 237.5z" />
<glyph unicode="d" horiz-adv-x="983" d="M113 311v402q0 139 101 235t259 96q60 0 121 -26t86 -57v473h160v-1434h-160v63q-25 -31 -86 -57t-121 -26q-159 0 -259.5 95.5t-100.5 235.5zM272 324q0 -77 59.5 -136t141.5 -59q84 0 145.5 59t61.5 136v376q0 77 -60.5 136t-144.5 59t-143.5 -58.5t-59.5 -136.5v-376z " />
<glyph unicode="e" horiz-adv-x="950" d="M123 311v402q0 140 98 235.5t256 95.5q155 0 252.5 -95.5t97.5 -235.5v-262h-548v-127q0 -78 57 -136.5t139 -58.5q84 0 140.5 58t56.5 147h155q0 -161 -95.5 -257.5t-254.5 -96.5q-158 0 -256 95t-98 236zM279 600h393v100q0 78 -57.5 136.5t-139.5 58.5t-139 -58.5 t-57 -136.5v-100z" />
<glyph unicode="f" horiz-adv-x="673" d="M41 877v147h143v147q0 118 83.5 200.5t203.5 82.5q90 0 182 -63l-92 -123q-60 39 -90 39q-53 0 -90 -38t-37 -91v-154h260v-147h-260v-877h-160v877h-143z" />
<glyph unicode="g" horiz-adv-x="909" d="M61 -92h160v-47q0 -41 64.5 -71t156.5 -30q110 0 179 28t69 79q0 17 -12 35.5t-29 29.5l-223 148q-36 23 -61 67t-25 93v61q-101 30 -167.5 112.5t-66.5 186.5v135q0 126 96 217.5t228 91.5q89 0 156 -40l61 83q48 64 162 64v-147q-56 0 -74 -27l-45 -68q60 -73 60 -174 v-135q0 -104 -69.5 -189t-172.5 -112v-59q0 -29 35 -52l172 -116q67 -45 100 -93.5t33 -113.5q0 -67 -37.5 -118.5t-99 -79.5t-129.5 -42t-140 -14q-98 0 -183 28t-141.5 86t-56.5 136v47zM266 600q0 -69 47.5 -116.5t116.5 -47.5q64 0 113 48t49 116v133q0 69 -48.5 116.5 t-113.5 47.5q-69 0 -116.5 -47t-47.5 -117v-133z" />
<glyph unicode="h" horiz-adv-x="1003" d="M143 0v1434h160v-471q88 81 232 81q140 0 237.5 -98t97.5 -239v-707h-159v694q0 80 -56 141.5t-139 61.5q-84 0 -148.5 -58.5t-64.5 -133.5v-705h-160z" />
<glyph unicode="i" horiz-adv-x="471" d="M143 1251v183h185v-183h-185zM156 0v1024h159v-1024h-159z" />
<glyph unicode="j" horiz-adv-x="491" d="M-133 -326l90 123q56 -39 94 -39q52 0 87.5 37t35.5 90v1139h162v-1133q0 -118 -82.5 -199t-202.5 -81q-92 0 -184 63zM164 1251v183h184v-183h-184z" />
<glyph unicode="k" horiz-adv-x="931" d="M143 0v1434h158v-1434h-158zM301 541l371 483h202l-382 -487l399 -537h-197z" />
<glyph unicode="l" horiz-adv-x="446" d="M143 0v1434h160v-1434h-160z" />
<glyph unicode="m" horiz-adv-x="1435" d="M143 0v1024h158v-76q76 96 205 96q81 0 140 -36t93 -82q42 52 110.5 85t149.5 33q129 0 216.5 -86t87.5 -219v-739h-160v727q0 75 -47.5 122.5t-116.5 47.5q-70 0 -121 -50.5t-51 -119.5v-727h-160v737q0 65 -48.5 112.5t-115.5 47.5q-76 0 -129 -50t-53 -120v-727h-158z " />
<glyph unicode="n" horiz-adv-x="1003" d="M143 0v1024h160v-61q91 81 232 81q140 0 237.5 -98t97.5 -239v-707h-159v690q0 85 -56.5 146t-134.5 61q-87 0 -152 -57t-65 -135v-705h-160z" />
<glyph unicode="o" horiz-adv-x="970" d="M123 311v402q0 140 101 235.5t263 95.5q160 0 260.5 -95.5t100.5 -235.5v-402q0 -141 -100.5 -236t-260.5 -95q-163 0 -263.5 95t-100.5 236zM283 324q0 -78 59.5 -136.5t144.5 -58.5q83 0 142 58.5t59 136.5v376q0 78 -59 136.5t-144 58.5q-84 0 -143 -58.5t-59 -136.5 v-376z" />
<glyph unicode="p" horiz-adv-x="993" d="M143 -369v1393h160v-63q25 31 86 57t121 26q159 0 259.5 -95.5t100.5 -235.5v-402q0 -139 -101 -235t-259 -96q-60 0 -121 26t-86 57v-432h-160zM303 324q0 -77 60.5 -136t144.5 -59t143.5 58.5t59.5 136.5v376q0 77 -59.5 136t-141.5 59q-84 0 -145.5 -59t-61.5 -136 v-376z" />
<glyph unicode="q" horiz-adv-x="993" d="M123 311v402q0 140 100.5 235.5t259.5 95.5q60 0 121 -26t86 -57v63h160v-1393h-160v432q-25 -31 -86 -57t-121 -26q-158 0 -259 96t-101 235zM283 324q0 -78 59 -136.5t143 -58.5t144.5 59t60.5 136v376q0 77 -61.5 136t-145.5 59q-82 0 -141 -58.5t-59 -136.5v-376z " />
<glyph unicode="r" horiz-adv-x="643" d="M143 0v1024h160v-88q37 50 98 79t134 29q15 0 31.5 -2t25.5 -4l10 -2v-149q-45 10 -82 10q-85 0 -151 -62t-66 -139v-696h-160z" />
<glyph unicode="s" horiz-adv-x="886" d="M102 299v25h160v-19q0 -72 53.5 -125t126.5 -53h13q68 0 117 44t49 108q0 44 -27 77t-69.5 55t-94.5 42.5t-104 45.5t-94.5 57t-69.5 84t-27 120q0 126 94 205t228 79q62 0 115.5 -20t90.5 -52.5t63.5 -74t39 -84t12.5 -82.5h-166q0 66 -48.5 116t-114.5 50 q-59 0 -104.5 -36t-45.5 -89q0 -37 21 -66t55 -47t77.5 -37.5t89 -36.5t89 -45t77.5 -61t55 -86t21 -119q0 -121 -98.5 -207.5t-228.5 -86.5h-21q-144 0 -239 96.5t-95 222.5z" />
<glyph unicode="t" horiz-adv-x="794" d="M41 877v147h143v291h160v-291h334v-147h-334v-623q0 -53 36.5 -89t90.5 -36q50 0 85.5 34t35.5 81v24h151v-24q0 -107 -81 -185.5t-191 -78.5q-120 0 -203.5 81t-83.5 199v617h-143z" />
<glyph unicode="u" horiz-adv-x="1003" d="M133 317v707h160v-690q0 -85 56 -146t134 -61q87 0 152 57t65 135v705h160v-1024h-160v61q-91 -81 -231 -81t-238 98t-98 239z" />
<glyph unicode="v" horiz-adv-x="954" d="M123 637v387h160v-385l172 -510h45l172 510v385h159v-387l-221 -637h-266z" />
<glyph unicode="w" horiz-adv-x="1267" d="M123 627v397h160v-381l86 -493h20l141 534h205l144 -534h20l86 493v381h160v-397l-127 -627h-250l-129 500h-10l-129 -500h-250z" />
<glyph unicode="x" horiz-adv-x="868" d="M51 0l289 524l-279 500h181l192 -356l191 356h182l-281 -500l291 -524h-178l-205 379l-205 -379h-178z" />
<glyph unicode="y" horiz-adv-x="962" d="M41 1024h172l270 -782l267 782h172l-506 -1393h-162l141 402z" />
<glyph unicode="z" horiz-adv-x="854" d="M92 0v154l477 723h-448v147h633v-158l-475 -719h483v-147h-670z" />
<glyph unicode="{" horiz-adv-x="686" d="M82 467v154q44 0 77.5 26.5t33.5 61.5v370q0 157 117 267t284 110v-166q-99 0 -164 -61.5t-65 -151.5v-348q0 -62 -35 -110.5t-84 -77.5q49 -27 84 -75.5t35 -111.5v-366q0 -91 65 -153t164 -62v-162q-167 0 -284 111t-117 268v387q0 36 -33 63t-78 27z" />
<glyph unicode="|" horiz-adv-x="507" d="M174 -369v1803h160v-1803h-160z" />
<glyph unicode="}" horiz-adv-x="686" d="M92 -227q99 0 164.5 62t65.5 153v366q0 63 35 111.5t83 75.5q-48 29 -83 77.5t-35 110.5v348q0 90 -65.5 151.5t-164.5 61.5v166q167 0 284.5 -110t117.5 -267v-370q0 -35 33 -61.5t77 -26.5v-154q-45 0 -77.5 -27t-32.5 -63v-387q0 -157 -117.5 -268t-284.5 -111v162z " />
<glyph unicode="~" horiz-adv-x="1228" d="M133 479q13 100 91.5 177t189.5 77q48 0 106.5 -18t104.5 -39.5t100 -39.5t94 -18q45 0 76.5 31t42.5 68h158q-16 -100 -92 -177t-185 -77q-50 0 -111.5 18t-109.5 39.5t-100 39.5t-84 18q-45 0 -78 -30t-47 -69h-156z" />
<glyph unicode="&#xa1;" horiz-adv-x="528" d="M164 823v201h201v-201h-201zM180 -393v1079h166v-1079h-166z" />
<glyph unicode="&#xa2;" horiz-adv-x="983" d="M133 330v372q0 124 82 215t219 111v96h160v-102q118 -29 188 -118.5t70 -209.5h-160q0 82 -54.5 138.5t-137.5 56.5q-85 0 -146 -60.5t-61 -138.5v-352q0 -78 60.5 -136.5t146.5 -58.5q83 0 141.5 59.5t58.5 143.5h160q0 -128 -72 -221t-194 -121v-104h-160v100 q-137 18 -219 110.5t-82 219.5z" />
<glyph unicode="&#xa3;" horiz-adv-x="999" d="M92 578v161h123v381q0 138 98 235t238 97t238 -97t98 -235v-80h-172v90q0 66 -47 113t-113 47q-70 0 -118 -47t-48 -113v-391h254v-161h-254v-412h496v-166h-727v166h57v412h-123z" />
<glyph unicode="&#xa4;" horiz-adv-x="1179" d="M133 258l96 98q-73 112 -73 240q0 130 75 246l-98 98l115 115l98 -99q117 74 244 74q124 0 241 -74l99 99l117 -115l-99 -98q74 -115 74 -246t-72 -240l97 -98l-117 -117l-99 97q-112 -74 -241 -74q-132 0 -244 74l-98 -97zM315 598q0 -112 80 -192t195 -80q110 0 190 81 t80 191t-80 191t-190 81q-111 0 -193 -81t-82 -191z" />
<glyph unicode="&#xa5;" horiz-adv-x="1052" d="M92 1434h187l245 -560l252 560h185l-263 -572h234v-162h-309l-11 -20v-123h320v-160h-320v-397h-174v397h-319v160h319v119l-10 24h-309v162h235z" />
<glyph unicode="&#xa6;" horiz-adv-x="507" d="M174 -369v742h160v-742h-160zM174 690v746h160v-746h-160z" />
<glyph unicode="&#xa7;" horiz-adv-x="1044" d="M133 797q0 139 105 231q-41 58 -41 150q0 119 84.5 196.5t240.5 77.5h15q164 0 242.5 -85.5t78.5 -231.5h-170q0 151 -158 151h-8q-79 0 -115 -33t-36 -77q0 -38 30 -71t77.5 -58.5t105 -52t115 -59.5t105 -72t77.5 -97t30 -129q0 -138 -106 -234q43 -71 43 -149 q0 -117 -86 -195.5t-240 -78.5h-14q-164 0 -243 86.5t-79 232.5h168q0 -69 37 -111.5t121 -42.5h10q76 0 113 34t37 77q0 39 -29.5 72t-77.5 58.5t-105.5 52t-114.5 59t-105 71.5t-77.5 97.5t-29.5 130.5zM303 811q0 -43 24.5 -78.5t68.5 -63.5t89.5 -50t104.5 -50.5 t96 -52.5q53 43 53 105q0 41 -23.5 76t-67.5 63.5t-88.5 51.5t-105 52.5t-98.5 53.5q-53 -43 -53 -107z" />
<glyph unicode="&#xa8;" horiz-adv-x="548" d="M10 1251v183h183v-183h-183zM356 1251v183h183v-183h-183z" />
<glyph unicode="&#xa9;" horiz-adv-x="1472" d="M133 545v344q0 153 80 283.5t215 206t291 75.5h35q156 0 291 -75.5t214.5 -206t79.5 -283.5v-344q0 -153 -79.5 -283.5t-214.5 -206t-291 -75.5h-35q-156 0 -291 75.5t-215 206t-80 283.5zM295 539q0 -108 58.5 -202t156.5 -149t209 -55h35q169 0 294.5 120.5 t125.5 285.5v358q0 108 -57.5 201.5t-154.5 147.5t-208 54h-35q-111 0 -209 -54t-156.5 -147.5t-58.5 -201.5v-358zM457 555v338q0 109 79.5 185.5t206.5 76.5q120 0 197.5 -84.5t77.5 -206.5h-150q0 64 -34.5 103t-90.5 39q-58 0 -98.5 -42t-40.5 -98v-286 q0 -55 40.5 -96.5t98.5 -41.5q56 0 95 40t39 102h149q0 -125 -78.5 -208t-204.5 -83q-128 0 -207 75.5t-79 186.5z" />
<glyph unicode="&#xaa;" horiz-adv-x="698" d="M113 997q0 85 64 146t155 67l127 9v14q0 39 -26.5 70.5t-67.5 31.5q-79 0 -93 -78h-131q13 96 72 146.5t152 50.5q103 0 162 -60.5t59 -154.5v-440h-127v26q-48 -39 -123 -39q-89 2 -156 62.5t-67 148.5zM127 578v118h459v-118h-459zM238 999q0 -35 32.5 -63.5 t69.5 -28.5q46 0 82.5 27t36.5 59v105l-121 -8q-40 -3 -70 -29t-30 -62z" />
<glyph unicode="&#xab;" d="M133 596l250 326h190l-251 -326l253 -324h-192zM500 596l250 326h190l-252 -326l254 -324h-192z" />
<glyph unicode="&#xac;" horiz-adv-x="1193" d="M133 690v164h907v-573h-163v409h-744z" />
<glyph unicode="&#xad;" horiz-adv-x="1705" />
<glyph unicode="&#xae;" horiz-adv-x="1472" d="M133 545v344q0 153 80 283.5t215 206t291 75.5h35q156 0 291 -75.5t214.5 -206t79.5 -283.5v-344q0 -153 -79.5 -283.5t-214.5 -206t-291 -75.5h-35q-156 0 -291 75.5t-215 206t-80 283.5zM295 539q0 -108 58.5 -202t156.5 -149t209 -55h35q169 0 294.5 120.5 t125.5 285.5v358q0 108 -57.5 201.5t-154.5 147.5t-208 54h-35q-111 0 -209 -54t-156.5 -147.5t-58.5 -201.5v-358zM494 322v813h292q83 0 144 -61.5t61 -143.5v-125q0 -52 -27.5 -100.5t-68.5 -77.5l139 -305h-162l-124 274h-105v-274h-149zM639 729h143q24 0 41 18t17 44 v133q0 23 -17.5 41t-40.5 18h-143v-254z" />
<glyph unicode="&#xaf;" horiz-adv-x="638" d="M10 1223v151h619v-151h-619z" />
<glyph unicode="&#xb0;" horiz-adv-x="823" d="M113 1157q0 123 88 211t211 88t211 -88t88 -211t-88 -211t-211 -88t-211 88t-88 211zM246 1157q0 -68 48.5 -117t115.5 -49q69 0 117 49t48 117t-48 117t-117 49q-67 0 -115.5 -49t-48.5 -117z" />
<glyph unicode="&#xb1;" horiz-adv-x="1202" d="M133 139v162h936v-162h-936zM133 621v161h383v262h168v-262h383v-161h-383v-261h-168v261h-383z" />
<glyph unicode="&#xb2;" horiz-adv-x="770" d="M133 575v111q0 60 19.5 113t51 92.5t69.5 74.5t76 65.5t69.5 60t51 63t19.5 68.5q0 36 -24 61t-62 25q-44 0 -72 -34t-28 -93h-158q0 123 75 197.5t183 74.5q104 0 179 -68.5t75 -171.5q0 -65 -34 -122.5t-83.5 -101.5t-100 -84.5t-90.5 -88.5t-48 -96h356v-146h-524z " />
<glyph unicode="&#xb3;" horiz-adv-x="763" d="M113 807v24h163v-24q0 -40 28 -68t69 -28t67.5 28t26.5 68v147q0 29 -18.5 48.5t-47.5 19.5h-116v127l106 137h-231v148h446v-117l-121 -160q60 -26 103 -82t43 -121v-147q0 -99 -76 -171.5t-176 -72.5h-12q-105 0 -179.5 70.5t-74.5 173.5z" />
<glyph unicode="&#xb4;" horiz-adv-x="493" d="M0 1151l260 303h234l-312 -303h-182z" />
<glyph unicode="&#xb5;" horiz-adv-x="993" d="M133 -369v1393h160v-696q0 -80 56.5 -140.5t133.5 -60.5q84 0 150.5 57.5t66.5 134.5v705h160v-1024h-160v61q-42 -39 -103.5 -60t-125.5 -21q-112 0 -180 71v-420h-158z" />
<glyph unicode="&#xb6;" horiz-adv-x="1009" d="M72 1032q0 167 119 283.5t288 116.5h398v-1801h-160v1649h-127v-1649h-160v1008q-151 24 -254.5 133t-103.5 260z" />
<glyph unicode="&#xb7;" horiz-adv-x="466" d="M133 496v200h201v-200h-201z" />
<glyph unicode="&#xb8;" horiz-adv-x="466" d="M113 -262h123q18 0 30.5 15t12.5 34q0 18 -12.5 32.5t-30.5 14.5h-103v166h119v-57q65 0 114.5 -46t49.5 -110q0 -66 -48 -111t-114 -45h-141v107z" />
<glyph unicode="&#xb9;" horiz-adv-x="542" d="M92 1294v140h297v-859h-160v719h-137z" />
<glyph unicode="&#xba;" horiz-adv-x="698" d="M113 1001v238q0 91 68 153t171 62q102 0 168 -61.5t66 -153.5v-238q0 -92 -66 -153.5t-168 -61.5q-103 0 -171 62t-68 153zM127 578v118h459v-118h-459zM246 1001q0 -38 31.5 -68t74.5 -30q42 0 74.5 30.5t32.5 67.5v238q0 37 -32.5 65.5t-76.5 28.5q-42 0 -73 -28.5 t-31 -65.5v-238z" />
<glyph unicode="&#xbb;" d="M133 272l254 324l-252 326h191l249 -326l-249 -324h-193zM500 272l254 324l-252 326h190l250 -326l-250 -324h-192z" />
<glyph unicode="&#xbc;" horiz-adv-x="1556" d="M133 1294v140h297v-859h-160v719h-137zM287 2l727 1430h172l-725 -1430h-174zM842 172v119l268 557h162l-252 -529h170v189h160v-189h73v-147h-73v-172h-160v172h-348z" />
<glyph unicode="&#xbd;" horiz-adv-x="1576" d="M133 1294v140h297v-859h-160v719h-137zM270 0l705 1417h170l-707 -1417h-168zM920 0v111q0 60 19.5 113t51 92t69.5 74.5t76 66t69.5 59.5t51 62.5t19.5 68.5q0 36 -24 61t-62 25q-44 0 -72 -34t-28 -93h-158q0 124 75 198.5t183 74.5q104 0 179 -68.5t75 -171.5 q0 -65 -34 -123t-84 -101.5t-100.5 -84.5t-90.5 -89t-48 -96h357v-145h-524z" />
<glyph unicode="&#xbe;" horiz-adv-x="1712" d="M133 807v24h164v-24q0 -40 27.5 -68t68.5 -28t67.5 28t26.5 68v147q0 30 -18 49t-47 19h-117v127l107 137h-232v148h447v-117l-121 -160q60 -26 102.5 -82t42.5 -121v-147q0 -99 -76 -171.5t-176 -72.5h-12q-105 0 -179.5 70.5t-74.5 173.5zM446 0l705 1417h170 l-705 -1417h-170zM997 172v119l269 557h161l-251 -529h170v189h159v-189h74v-147h-74v-172h-159v172h-349z" />
<glyph unicode="&#xbf;" horiz-adv-x="966" d="M113 -53q0 78 18 139.5t47 102.5t64 77t70.5 74t64.5 82t47 111.5t18 152.5h170q0 -100 -18 -180t-46.5 -131t-63 -93.5t-68.5 -77.5t-62.5 -70.5t-46.5 -85.5t-18 -111q0 -85 61 -142t150 -57q94 0 154.5 60t60.5 161h170q0 -176 -110.5 -281.5t-274.5 -105.5 q-166 0 -276.5 103.5t-110.5 271.5zM424 821v203h207v-203h-207z" />
<glyph unicode="&#xc0;" d="M143 0v612l248 822h293l248 -826v-608h-174v457h-443v-457h-172zM233 1864h234l260 -303h-182zM324 616h430l-197 656h-39z" />
<glyph unicode="&#xc1;" d="M143 0v612l248 822h293l248 -826v-608h-174v457h-443v-457h-172zM324 616h430l-197 656h-39zM352 1561l260 303h234l-311 -303h-183z" />
<glyph unicode="&#xc2;" d="M143 0v612l248 822h293l248 -826v-608h-174v457h-443v-457h-172zM240 1563l217 301h155l222 -301h-150l-152 153l-145 -153h-147zM324 616h430l-197 656h-39z" />
<glyph unicode="&#xc3;" d="M143 0v612l248 822h293l248 -826v-608h-174v457h-443v-457h-172zM219 1589q0 85 60.5 156.5t138.5 71.5q41 0 88.5 -22.5t89 -45.5t66.5 -23q21 0 34 25.5t13 52.5h147q0 -85 -59 -156t-135 -71q-41 0 -89 22.5t-89.5 45t-65.5 22.5q-23 0 -38 -24t-18 -54h-143zM324 616 h430l-197 656h-39z" />
<glyph unicode="&#xc4;" d="M143 0v612l248 822h293l248 -826v-608h-174v457h-443v-457h-172zM293 1661v182h182v-182h-182zM324 616h430l-197 656h-39zM639 1661v182h182v-182h-182z" />
<glyph unicode="&#xc5;" d="M143 0v612l248 822h293l248 -826v-608h-174v457h-443v-457h-172zM324 616h430l-197 656h-39zM375 1700q0 69 46.5 116.5t113.5 47.5q68 0 115.5 -47.5t47.5 -116.5q0 -67 -47.5 -114.5t-115.5 -47.5q-67 0 -113.5 47t-46.5 115zM475 1702q0 -25 17 -42.5t43 -17.5 t43.5 17.5t17.5 42.5q0 26 -17.5 43.5t-43.5 17.5t-43 -17.5t-17 -43.5z" />
<glyph unicode="&#xc6;" horiz-adv-x="1363" d="M143 0v612l250 822h852v-162h-428v-436h379v-160h-379v-514h445v-162h-621v457h-324v-457h-174zM326 616h315v656h-123z" />
<glyph unicode="&#xc7;" horiz-adv-x="1011" d="M123 358v719q0 157 113 267t276 110h10q162 0 274.5 -110t112.5 -269h-172q0 89 -64 151t-155 62q-93 0 -157 -61.5t-64 -151.5v-719q0 -90 64 -152.5t157 -62.5q91 0 155 62t64 151v43h172v-41q0 -157 -112.5 -266.5t-274.5 -109.5h-10q-162 0 -275.5 110.5 t-113.5 267.5zM412 -262h123q18 0 30.5 15t12.5 34q0 18 -12.5 32.5t-30.5 14.5h-103v166h119v-57q65 0 114.5 -46t49.5 -110q0 -66 -48 -111t-114 -45h-141v107z" />
<glyph unicode="&#xc8;" horiz-adv-x="983" d="M164 0v1434h700v-162h-528v-436h479v-160h-479v-514h545v-162h-717zM217 1864h234l260 -303h-183z" />
<glyph unicode="&#xc9;" horiz-adv-x="983" d="M164 0v1434h700v-162h-528v-436h479v-160h-479v-514h545v-162h-717zM328 1561l260 303h233l-311 -303h-182z" />
<glyph unicode="&#xca;" horiz-adv-x="983" d="M164 0v1434h700v-162h-528v-436h479v-160h-479v-514h545v-162h-717zM199 1563l217 301h155l222 -301h-150l-151 153l-146 -153h-147z" />
<glyph unicode="&#xcb;" horiz-adv-x="983" d="M164 0v1434h700v-162h-528v-436h479v-160h-479v-514h545v-162h-717zM252 1661v182h182v-182h-182zM598 1661v182h182v-182h-182z" />
<glyph unicode="&#xcc;" horiz-adv-x="499" d="M-59 1864h233l260 -303h-182zM164 0v1434h172v-1434h-172z" />
<glyph unicode="&#xcd;" horiz-adv-x="499" d="M63 1561l261 303h233l-311 -303h-183zM164 0v1434h172v-1434h-172z" />
<glyph unicode="&#xce;" horiz-adv-x="499" d="M-47 1563l217 301h156l221 -301h-150l-151 153l-146 -153h-147zM164 0v1434h172v-1434h-172z" />
<glyph unicode="&#xcf;" horiz-adv-x="479" d="M-4 1661v182h182v-182h-182zM154 0v1434h172v-1434h-172zM342 1661v182h182v-182h-182z" />
<glyph unicode="&#xd0;" horiz-adv-x="1024" d="M10 676v160h123v598h379q161 0 275 -110t114 -267v-680q0 -157 -114 -267t-275 -110h-379v676h-123zM307 162h199q94 0 156.5 61t62.5 152v682q0 91 -63 153t-156 62h-199v-436h215v-160h-215v-514z" />
<glyph unicode="&#xd1;" horiz-adv-x="1105" d="M154 0v1434h188l442 -1094l-14 111v983h172v-1434h-188l-443 1096l15 -115v-981h-172zM233 1589q0 85 60.5 156.5t138.5 71.5q41 0 88.5 -22.5t89 -45.5t66.5 -23q21 0 34 25.5t13 52.5h147q0 -85 -59 -156t-135 -71q-41 0 -89 22.5t-89.5 45t-65.5 22.5q-23 0 -37.5 -24 t-17.5 -54h-144z" />
<glyph unicode="&#xd2;" horiz-adv-x="1099" d="M143 358v719q0 157 113 267t276 110h35q161 0 275 -110t114 -267v-721q0 -157 -114 -266.5t-275 -109.5h-35q-162 0 -275.5 110.5t-113.5 267.5zM250 1864h233l260 -303h-182zM317 356q0 -90 64.5 -152.5t157.5 -62.5h22q93 0 156 61.5t63 151.5v721q0 90 -63 151.5 t-156 61.5h-22q-94 0 -158 -62t-64 -151v-719z" />
<glyph unicode="&#xd3;" horiz-adv-x="1099" d="M143 358v719q0 157 113 267t276 110h35q161 0 275 -110t114 -267v-721q0 -157 -114 -266.5t-275 -109.5h-35q-162 0 -275.5 110.5t-113.5 267.5zM317 356q0 -90 64.5 -152.5t157.5 -62.5h22q93 0 156 61.5t63 151.5v721q0 90 -63 151.5t-156 61.5h-22q-94 0 -158 -62 t-64 -151v-719zM369 1561l260 303h233l-311 -303h-182z" />
<glyph unicode="&#xd4;" horiz-adv-x="1099" d="M143 358v719q0 157 113 267t276 110h35q161 0 275 -110t114 -267v-721q0 -157 -114 -266.5t-275 -109.5h-35q-162 0 -275.5 110.5t-113.5 267.5zM252 1563l217 301h156l221 -301h-150l-151 153l-146 -153h-147zM317 356q0 -90 64.5 -152.5t157.5 -62.5h22q93 0 156 61.5 t63 151.5v721q0 90 -63 151.5t-156 61.5h-22q-94 0 -158 -62t-64 -151v-719z" />
<glyph unicode="&#xd5;" horiz-adv-x="1099" d="M143 358v719q0 157 113 267t276 110h35q161 0 275 -110t114 -267v-721q0 -157 -114 -266.5t-275 -109.5h-35q-162 0 -275.5 110.5t-113.5 267.5zM231 1589q0 85 60.5 156.5t138.5 71.5q41 0 88.5 -22.5t89 -45.5t66.5 -23q21 0 34 25.5t13 52.5h147q0 -85 -59 -156 t-135 -71q-41 0 -89 22.5t-89.5 45t-65.5 22.5q-23 0 -37.5 -24t-17.5 -54h-144zM317 356q0 -90 64.5 -152.5t157.5 -62.5h22q93 0 156 61.5t63 151.5v721q0 90 -63 151.5t-156 61.5h-22q-94 0 -158 -62t-64 -151v-719z" />
<glyph unicode="&#xd6;" horiz-adv-x="1099" d="M143 358v719q0 157 113 267t276 110h35q161 0 275 -110t114 -267v-721q0 -157 -114 -266.5t-275 -109.5h-35q-162 0 -275.5 110.5t-113.5 267.5zM305 1661v182h182v-182h-182zM317 356q0 -90 64.5 -152.5t157.5 -62.5h22q93 0 156 61.5t63 151.5v721q0 90 -63 151.5 t-156 61.5h-22q-94 0 -158 -62t-64 -151v-719zM651 1661v182h183v-182h-183z" />
<glyph unicode="&#xd7;" horiz-adv-x="1060" d="M133 315l281 281l-281 285l115 114l282 -282l283 282l115 -114l-283 -285l283 -281l-115 -116l-283 284l-280 -282z" />
<glyph unicode="&#xd8;" horiz-adv-x="1058" d="M123 0l65 145q-65 92 -65 213v719q0 157 113 267t276 110h35q111 0 201 -55l16 35h172l-66 -148q66 -95 66 -209v-721q0 -157 -114 -266.5t-275 -109.5h-35q-112 0 -205 55l-14 -35h-170zM297 362l25 82l356 797q-60 47 -137 47h-23q-93 0 -157 -61.5t-64 -151.5v-713z M377 188q63 -47 141 -47h23q93 0 156 61.5t63 151.5v721l-19 -76z" />
<glyph unicode="&#xd9;" horiz-adv-x="1120" d="M154 358v1076h174v-1078q0 -90 64 -152.5t157 -62.5h22q93 0 156.5 61.5t63.5 151.5v1080h176v-1078q0 -157 -114 -266.5t-275 -109.5h-35q-162 0 -275.5 110.5t-113.5 267.5zM254 1864h233l261 -303h-183z" />
<glyph unicode="&#xda;" horiz-adv-x="1120" d="M154 358v1076h174v-1078q0 -90 64 -152.5t157 -62.5h22q93 0 156.5 61.5t63.5 151.5v1080h176v-1078q0 -157 -114 -266.5t-275 -109.5h-35q-162 0 -275.5 110.5t-113.5 267.5zM367 1561l260 303h233l-311 -303h-182z" />
<glyph unicode="&#xdb;" horiz-adv-x="1120" d="M154 358v1076h174v-1078q0 -90 64 -152.5t157 -62.5h22q93 0 156.5 61.5t63.5 151.5v1080h176v-1078q0 -157 -114 -266.5t-275 -109.5h-35q-162 0 -275.5 110.5t-113.5 267.5zM262 1563l217 301h156l221 -301h-149l-152 153l-145 -153h-148z" />
<glyph unicode="&#xdc;" horiz-adv-x="1120" d="M154 358v1076h174v-1078q0 -90 64 -152.5t157 -62.5h22q93 0 156.5 61.5t63.5 151.5v1080h176v-1078q0 -157 -114 -266.5t-275 -109.5h-35q-162 0 -275.5 110.5t-113.5 267.5zM315 1661v182h183v-182h-183zM662 1661v182h182v-182h-182z" />
<glyph unicode="&#xdd;" horiz-adv-x="1028" d="M51 1434h191l272 -539l270 539h193l-375 -756v-678h-178v678zM332 1561l260 303h233l-311 -303h-182z" />
<glyph unicode="&#xde;" horiz-adv-x="944" d="M133 0v1434h172v-207h219q137 0 232.5 -93.5t95.5 -226.5v-297q0 -133 -95.5 -226t-232.5 -93h-219v-291h-172zM305 453h213q66 0 113 45t47 108v299q0 64 -47 110t-113 46h-213v-608z" />
<glyph unicode="&#xdf;" horiz-adv-x="1085" d="M133 0v1075q0 157 106.5 267t258.5 110h16q149 0 252.5 -103t103.5 -241v-164q-90 -5 -153.5 -43.5t-63.5 -89.5q0 -35 18 -69t47.5 -63t64.5 -59t70 -65t64.5 -73t47.5 -90t18 -111q0 -125 -89 -213t-218 -88q-125 0 -214 88.5t-89 212.5v30h164v-41q0 -59 41.5 -101 t101.5 -42q57 0 99 42.5t42 100.5q0 42 -18.5 79t-47.5 67t-64.5 59.5t-71 62.5t-64.5 69.5t-47.5 87.5t-18.5 110q0 96 64 164.5t158 89.5v14q0 99 -59 166.5t-146 67.5q-88 0 -150.5 -67.5t-62.5 -166.5v-1073h-160z" />
<glyph unicode="&#xe0;" horiz-adv-x="946" d="M92 299q0 133 97 229.5t233 104.5l231 14v53q0 81 -47.5 138t-128.5 57q-72 0 -117 -39t-55 -111h-162q14 134 104 216.5t230 82.5q161 0 248.5 -93.5t87.5 -237.5v-713h-160v63q-34 -34 -95.5 -58.5t-131.5 -24.5q-138 0 -236 91t-98 228zM145 1454h234l260 -303h-182z M252 301q0 -72 53.5 -123t128.5 -51q93 0 156 51t63 119v203l-223 -15q-76 -4 -127 -57t-51 -127z" />
<glyph unicode="&#xe1;" horiz-adv-x="946" d="M92 299q0 133 97 229.5t233 104.5l231 14v53q0 81 -47.5 138t-128.5 57q-72 0 -117 -39t-55 -111h-162q14 134 104 216.5t230 82.5q161 0 248.5 -93.5t87.5 -237.5v-713h-160v63q-34 -34 -95.5 -58.5t-131.5 -24.5q-138 0 -236 91t-98 228zM252 301q0 -72 53.5 -123 t128.5 -51q93 0 156 51t63 119v203l-223 -15q-76 -4 -127 -57t-51 -127zM268 1151l260 303h234l-311 -303h-183z" />
<glyph unicode="&#xe2;" horiz-adv-x="946" d="M92 299q0 133 97 229.5t233 104.5l231 14v53q0 81 -47.5 138t-128.5 57q-72 0 -117 -39t-55 -111h-162q14 134 104 216.5t230 82.5q161 0 248.5 -93.5t87.5 -237.5v-713h-160v63q-34 -34 -95.5 -58.5t-131.5 -24.5q-138 0 -236 91t-98 228zM176 1153l217 301h156 l221 -301h-149l-152 154l-145 -154h-148zM252 301q0 -72 53.5 -123t128.5 -51q93 0 156 51t63 119v203l-223 -15q-76 -4 -127 -57t-51 -127z" />
<glyph unicode="&#xe3;" horiz-adv-x="946" d="M92 299q0 133 97 229.5t233 104.5l231 14v53q0 81 -47.5 138t-128.5 57q-72 0 -117 -39t-55 -111h-162q14 134 104 216.5t230 82.5q161 0 248.5 -93.5t87.5 -237.5v-713h-160v63q-34 -34 -95.5 -58.5t-131.5 -24.5q-138 0 -236 91t-98 228zM154 1180q0 85 60 156t138 71 q41 0 88.5 -22.5t89 -45t66.5 -22.5q21 0 34 25.5t13 52.5h148q0 -85 -59 -156.5t-136 -71.5q-41 0 -89 22.5t-89.5 45t-65.5 22.5q-23 0 -37.5 -23.5t-17.5 -53.5h-143zM252 301q0 -72 53.5 -123t128.5 -51q93 0 156 51t63 119v203l-223 -15q-76 -4 -127 -57t-51 -127z" />
<glyph unicode="&#xe4;" horiz-adv-x="946" d="M92 299q0 133 97 229.5t233 104.5l231 14v53q0 81 -47.5 138t-128.5 57q-72 0 -117 -39t-55 -111h-162q14 134 104 216.5t230 82.5q161 0 248.5 -93.5t87.5 -237.5v-713h-160v63q-34 -34 -95.5 -58.5t-131.5 -24.5q-138 0 -236 91t-98 228zM229 1251v183h183v-183h-183z M252 301q0 -72 53.5 -123t128.5 -51q93 0 156 51t63 119v203l-223 -15q-76 -4 -127 -57t-51 -127zM575 1251v183h183v-183h-183z" />
<glyph unicode="&#xe5;" horiz-adv-x="946" d="M92 299q0 133 97 229.5t233 104.5l231 14v53q0 81 -47.5 138t-128.5 57q-72 0 -117 -39t-55 -111h-162q14 134 104 216.5t230 82.5q161 0 248.5 -93.5t87.5 -237.5v-713h-160v63q-34 -34 -95.5 -58.5t-131.5 -24.5q-138 0 -236 91t-98 228zM252 301q0 -72 53.5 -123 t128.5 -51q93 0 156 51t63 119v203l-223 -15q-76 -4 -127 -57t-51 -127zM311 1290q0 69 46.5 116.5t113.5 47.5q68 0 116 -47.5t48 -116.5q0 -67 -48 -114.5t-116 -47.5q-67 0 -113.5 47t-46.5 115zM412 1292q0 -25 16.5 -42t42.5 -17t43.5 17t17.5 42q0 26 -17.5 44 t-43.5 18t-42.5 -17.5t-16.5 -44.5z" />
<glyph unicode="&#xe6;" horiz-adv-x="1449" d="M143 299q0 134 96.5 228t223.5 94h194v79q0 81 -41.5 139t-113.5 58q-63 0 -104 -42t-50 -112h-155q12 134 96 217.5t213 83.5q162 0 241 -110q92 110 256 110q146 0 236 -95.5t90 -235.5v-240h-506v-156q0 -77 51 -132.5t125 -55.5q76 0 124 58.5t48 148.5h158 q0 -159 -89 -257.5t-237 -98.5q-157 0 -256 114q-55 -55 -117 -84.5t-169 -29.5q-124 0 -219 92.5t-95 226.5zM301 301q0 -72 50 -124t118 -52q81 0 134.5 49t53.5 117v182h-188q-68 0 -118 -50.5t-50 -121.5zM819 621h348v79q0 79 -48 138t-122 59q-73 0 -125.5 -56 t-52.5 -132v-88z" />
<glyph unicode="&#xe7;" horiz-adv-x="937" d="M109 313v400q0 140 101 235.5t263 95.5q155 0 253.5 -98.5t98.5 -249.5h-159q0 85 -54.5 142t-138.5 57t-144.5 -59t-60.5 -136v-376q0 -78 60 -136.5t145 -58.5q84 0 142.5 60t58.5 145h160q0 -156 -99.5 -255t-261.5 -99q-163 0 -263.5 95.5t-100.5 237.5zM340 -262 h123q18 0 30.5 15t12.5 34q0 18 -12.5 32.5t-30.5 14.5h-103v166h119v-57q65 0 114.5 -46t49.5 -110q0 -66 -48 -111t-114 -45h-141v107z" />
<glyph unicode="&#xe8;" horiz-adv-x="950" d="M123 311v402q0 140 98 235.5t256 95.5q155 0 252.5 -95.5t97.5 -235.5v-262h-548v-127q0 -78 57 -136.5t139 -58.5q84 0 140.5 58t56.5 147h155q0 -161 -95.5 -257.5t-254.5 -96.5q-158 0 -256 95t-98 236zM176 1454h234l260 -303h-183zM279 600h393v100 q0 78 -57.5 136.5t-139.5 58.5t-139 -58.5t-57 -136.5v-100z" />
<glyph unicode="&#xe9;" horiz-adv-x="950" d="M123 311v402q0 140 98 235.5t256 95.5q155 0 252.5 -95.5t97.5 -235.5v-262h-548v-127q0 -78 57 -136.5t139 -58.5q84 0 140.5 58t56.5 147h155q0 -161 -95.5 -257.5t-254.5 -96.5q-158 0 -256 95t-98 236zM279 600h393v100q0 78 -57.5 136.5t-139.5 58.5t-139 -58.5 t-57 -136.5v-100zM283 1151l260 303h233l-311 -303h-182z" />
<glyph unicode="&#xea;" horiz-adv-x="950" d="M123 311v402q0 140 98 235.5t256 95.5q155 0 252.5 -95.5t97.5 -235.5v-262h-548v-127q0 -78 57 -136.5t139 -58.5q84 0 140.5 58t56.5 147h155q0 -161 -95.5 -257.5t-254.5 -96.5q-158 0 -256 95t-98 236zM178 1153l217 301h156l221 -301h-149l-152 154l-145 -154h-148z M279 600h393v100q0 78 -57.5 136.5t-139.5 58.5t-139 -58.5t-57 -136.5v-100z" />
<glyph unicode="&#xeb;" horiz-adv-x="950" d="M123 311v402q0 140 98 235.5t256 95.5q155 0 252.5 -95.5t97.5 -235.5v-262h-548v-127q0 -78 57 -136.5t139 -58.5q84 0 140.5 58t56.5 147h155q0 -161 -95.5 -257.5t-254.5 -96.5q-158 0 -256 95t-98 236zM231 1251v183h183v-183h-183zM279 600h393v100 q0 78 -57.5 136.5t-139.5 58.5t-139 -58.5t-57 -136.5v-100zM578 1251v183h182v-183h-182z" />
<glyph unicode="&#xec;" horiz-adv-x="450" d="M-86 1454h233l261 -303h-183zM145 0v1024h160v-1024h-160z" />
<glyph unicode="&#xed;" horiz-adv-x="450" d="M27 1151l260 303h233l-311 -303h-182zM145 0v1024h160v-1024h-160z" />
<glyph unicode="&#xee;" horiz-adv-x="450" d="M-61 1153l217 301h155l221 -301h-149l-152 154l-145 -154h-147zM145 0v1024h160v-1024h-160z" />
<glyph unicode="&#xef;" horiz-adv-x="450" d="M-39 1251v183h182v-183h-182zM145 0v1024h160v-1024h-160zM307 1251v183h182v-183h-182z" />
<glyph unicode="&#xf0;" horiz-adv-x="978" d="M123 311v324q0 140 101 236t263 96q132 0 201 -64v154l-2 26l-178 -63v143l133 47q-64 74 -156 74h-114v150h114q101 0 184 -43.5t134 -122.5l166 57v-143l-125 -43q4 -12 4 -82v-746q0 -141 -100.5 -236t-260.5 -95q-163 0 -263.5 95t-100.5 236zM283 324 q0 -78 59.5 -136.5t144.5 -58.5q83 0 142 58.5t59 136.5v299q0 78 -59 136t-144 58q-84 0 -143 -58t-59 -136v-299z" />
<glyph unicode="&#xf1;" horiz-adv-x="993" d="M133 0v1024h160v-61q91 81 231 81t238 -98t98 -239v-707h-160v690q0 85 -56 146t-134 61q-87 0 -152 -57t-65 -135v-705h-160zM178 1180q0 85 60.5 156t138.5 71q41 0 88.5 -22.5t89 -45t66.5 -22.5q21 0 34 25.5t13 52.5h147q0 -85 -59 -156.5t-135 -71.5 q-41 0 -89 22.5t-89.5 45t-65.5 22.5q-23 0 -37.5 -23.5t-17.5 -53.5h-144z" />
<glyph unicode="&#xf2;" horiz-adv-x="970" d="M123 311q0 -141 100.5 -236t263.5 -95q160 0 260.5 95t100.5 236v402q0 140 -100.5 235.5t-260.5 95.5q-162 0 -263 -95.5t-101 -235.5v-402zM238 1454h233l260 -303h-182zM283 324v376q0 78 59 136.5t143 58.5q85 0 144 -58.5t59 -136.5v-376q0 -78 -59 -136.5 t-142 -58.5q-85 0 -144.5 58.5t-59.5 136.5z" />
<glyph unicode="&#xf3;" horiz-adv-x="970" d="M123 311q0 -141 100.5 -236t263.5 -95q160 0 260.5 95t100.5 236v402q0 140 -100.5 235.5t-260.5 95.5q-162 0 -263 -95.5t-101 -235.5v-402zM238 1151l260 303h233l-311 -303h-182zM283 324v376q0 78 59 136.5t143 58.5q85 0 144 -58.5t59 -136.5v-376q0 -78 -59 -136.5 t-142 -58.5q-85 0 -144.5 58.5t-59.5 136.5z" />
<glyph unicode="&#xf4;" horiz-adv-x="970" d="M123 311q0 -141 100.5 -236t263.5 -95q160 0 260.5 95t100.5 236v402q0 140 -100.5 235.5t-260.5 95.5q-162 0 -263 -95.5t-101 -235.5v-402zM188 1153l218 301h155l221 -301h-149l-152 154l-145 -154h-148zM283 324v376q0 78 59 136.5t143 58.5q85 0 144 -58.5 t59 -136.5v-376q0 -78 -59 -136.5t-142 -58.5q-85 0 -144.5 58.5t-59.5 136.5z" />
<glyph unicode="&#xf5;" horiz-adv-x="970" d="M123 311q0 -141 100.5 -236t263.5 -95q160 0 260.5 95t100.5 236v402q0 140 -100.5 235.5t-260.5 95.5q-162 0 -263 -95.5t-101 -235.5v-402zM166 1180q0 85 60.5 156t138.5 71q41 0 88.5 -22.5t88.5 -45t66 -22.5q21 0 34 25.5t13 52.5h148q0 -85 -59 -156.5t-136 -71.5 q-41 0 -89 22.5t-89 45t-65 22.5q-23 0 -38 -23.5t-18 -53.5h-143zM283 324v376q0 78 59 136.5t143 58.5q85 0 144 -58.5t59 -136.5v-376q0 -78 -59 -136.5t-142 -58.5q-85 0 -144.5 58.5t-59.5 136.5z" />
<glyph unicode="&#xf6;" horiz-adv-x="970" d="M123 311q0 -141 100.5 -236t263.5 -95q160 0 260.5 95t100.5 236v402q0 140 -100.5 235.5t-260.5 95.5q-162 0 -263 -95.5t-101 -235.5v-402zM242 1251v183h182v-183h-182zM283 324v376q0 78 59 136.5t143 58.5q85 0 144 -58.5t59 -136.5v-376q0 -78 -59 -136.5 t-142 -58.5q-85 0 -144.5 58.5t-59.5 136.5zM588 1251v183h182v-183h-182z" />
<glyph unicode="&#xf7;" horiz-adv-x="1198" d="M133 520v164h932v-164h-932zM498 176v203h207v-203h-207zM498 829v203h207v-203h-207z" />
<glyph unicode="&#xf8;" horiz-adv-x="970" d="M123 311v402q0 140 101 235.5t263 95.5q101 0 175 -38l10 18h170l-62 -113q68 -88 68 -198v-402q0 -141 -100.5 -236t-260.5 -95q-106 0 -178 38l-12 -18h-168l59 111q-65 83 -65 200zM283 324l2 -31l305 573q-53 29 -105 29q-84 0 -143 -58.5t-59 -136.5v-376zM381 158 q49 -29 106 -29q83 0 142 58.5t59 136.5v376l-4 29z" />
<glyph unicode="&#xf9;" horiz-adv-x="993" d="M133 317v707h160v-690q0 -85 56 -146t134 -61q87 0 152 57t65 135v705h160v-1024h-160v61q-91 -81 -231 -81t-238 98t-98 239zM195 1454h233l260 -303h-182z" />
<glyph unicode="&#xfa;" horiz-adv-x="993" d="M133 317v707h160v-690q0 -85 56 -146t134 -61q87 0 152 57t65 135v705h160v-1024h-160v61q-91 -81 -231 -81t-238 98t-98 239zM303 1151l260 303h234l-312 -303h-182z" />
<glyph unicode="&#xfb;" horiz-adv-x="993" d="M133 317v707h160v-690q0 -85 56 -146t134 -61q87 0 152 57t65 135v705h160v-1024h-160v61q-91 -81 -231 -81t-238 98t-98 239zM199 1153l217 301h155l222 -301h-150l-151 154l-146 -154h-147z" />
<glyph unicode="&#xfc;" horiz-adv-x="993" d="M133 317v707h160v-690q0 -85 56 -146t134 -61q87 0 152 57t65 135v705h160v-1024h-160v61q-91 -81 -231 -81t-238 98t-98 239zM252 1251v183h182v-183h-182zM598 1251v183h182v-183h-182z" />
<glyph unicode="&#xfd;" horiz-adv-x="962" d="M41 1024h172l270 -782l267 782h172l-506 -1393h-162l141 402zM283 1151l260 303h233l-311 -303h-182z" />
<glyph unicode="&#xfe;" horiz-adv-x="983" d="M133 -369v1803h160v-455q85 65 207 65q158 0 259 -96t101 -235v-402q0 -140 -100.5 -235.5t-259.5 -95.5q-124 0 -207 67v-416h-160zM293 324q0 -77 60.5 -136t144.5 -59t143 58.5t59 136.5v376q0 78 -59 136.5t-141 58.5q-83 0 -145 -55.5t-62 -130.5v-385z" />
<glyph unicode="&#xff;" horiz-adv-x="962" d="M41 1024h172l270 -782l267 782h172l-506 -1393h-162l141 402zM238 1251v183h182v-183h-182zM584 1251v183h182v-183h-182z" />
<glyph unicode="&#x152;" horiz-adv-x="1333" d="M123 383v670q0 159 113.5 270t275.5 111h713v-164h-426v-432h377v-162h-377v-512h442v-164h-729q-162 0 -275.5 112t-113.5 271zM297 381q0 -92 63.5 -154.5t157.5 -62.5h105v1102h-105q-94 0 -157.5 -61.5t-63.5 -153.5v-670z" />
<glyph unicode="&#x153;" horiz-adv-x="1413" d="M123 311v402q0 140 91.5 235.5t238.5 95.5q76 0 142 -32t110 -86q44 54 111.5 86t146.5 32q145 0 236 -95.5t91 -235.5v-262h-506v-127q0 -78 51 -136.5t126 -58.5t123.5 58t48.5 147h157q0 -161 -89.5 -257.5t-237.5 -96.5q-80 0 -147 30.5t-111 83.5q-44 -52 -110 -83 t-142 -31q-148 0 -239 95t-91 236zM276 324q0 -79 50.5 -137t126.5 -58q72 0 122 58.5t50 136.5v385q0 76 -50.5 131t-123.5 55q-75 0 -125 -58t-50 -137v-376zM784 600h349v100q0 79 -49.5 137t-122.5 58q-74 0 -125.5 -55t-51.5 -131v-109z" />
<glyph unicode="&#x178;" horiz-adv-x="1028" d="M51 1434h191l272 -539l270 539h193l-375 -756v-678h-178v678zM270 1661v182h183v-182h-183zM616 1661v182h183v-182h-183z" />
<glyph unicode="&#x2c6;" horiz-adv-x="598" d="M2 1153l217 301h156l221 -301h-150l-151 154l-145 -154h-148z" />
<glyph unicode="&#x2dc;" horiz-adv-x="657" d="M10 1180q0 85 60.5 156t138.5 71q41 0 88.5 -22.5t89 -45t66.5 -22.5q21 0 34 25.5t13 52.5h147q0 -85 -59 -156.5t-135 -71.5q-41 0 -89 22.5t-89.5 45t-65.5 22.5q-23 0 -37.5 -23.5t-17.5 -53.5h-144z" />
<glyph unicode="&#x2000;" horiz-adv-x="932" />
<glyph unicode="&#x2001;" horiz-adv-x="1864" />
<glyph unicode="&#x2002;" horiz-adv-x="932" />
<glyph unicode="&#x2003;" horiz-adv-x="1864" />
<glyph unicode="&#x2004;" horiz-adv-x="621" />
<glyph unicode="&#x2005;" horiz-adv-x="466" />
<glyph unicode="&#x2006;" horiz-adv-x="310" />
<glyph unicode="&#x2007;" horiz-adv-x="310" />
<glyph unicode="&#x2008;" horiz-adv-x="233" />
<glyph unicode="&#x2009;" horiz-adv-x="372" />
<glyph unicode="&#x200a;" horiz-adv-x="103" />
<glyph unicode="&#x2010;" horiz-adv-x="765" d="M133 520v160h500v-160h-500z" />
<glyph unicode="&#x2011;" horiz-adv-x="765" d="M133 520v160h500v-160h-500z" />
<glyph unicode="&#x2012;" horiz-adv-x="765" d="M133 520v160h500v-160h-500z" />
<glyph unicode="&#x2013;" horiz-adv-x="798" d="M10 520v160h778v-160h-778z" />
<glyph unicode="&#x2014;" horiz-adv-x="1472" d="M10 520v160h1452v-160h-1452z" />
<glyph unicode="&#x2018;" horiz-adv-x="569" d="M123 995l147 439h115l-74 -439h-188z" />
<glyph unicode="&#x2019;" horiz-adv-x="569" d="M184 995l74 439h188l-147 -439h-115z" />
<glyph unicode="&#x201a;" horiz-adv-x="569" d="M184 -238l74 439h188l-147 -439h-115z" />
<glyph unicode="&#x201c;" horiz-adv-x="880" d="M123 997l147 439h115l-74 -439h-188zM434 997l148 439h114l-73 -439h-189z" />
<glyph unicode="&#x201d;" horiz-adv-x="880" d="M184 997l74 439h188l-147 -439h-115zM496 997l73 439h189l-148 -439h-114z" />
<glyph unicode="&#x201e;" horiz-adv-x="880" d="M184 -238l74 439h188l-147 -439h-115zM496 -238l73 439h189l-148 -439h-114z" />
<glyph unicode="&#x2022;" horiz-adv-x="925" d="M154 735q0 128 90 218.5t219 90.5q127 0 218 -91t91 -218q0 -129 -90.5 -219t-218.5 -90q-129 0 -219 90t-90 219z" />
<glyph unicode="&#x2026;" horiz-adv-x="1294" d="M133 0v201h201v-201h-201zM547 0v201h201v-201h-201zM961 0v201h200v-201h-200z" />
<glyph unicode="&#x202f;" horiz-adv-x="372" />
<glyph unicode="&#x2039;" horiz-adv-x="708" d="M133 596l250 326h190l-251 -326l253 -324h-192z" />
<glyph unicode="&#x203a;" horiz-adv-x="708" d="M133 922h193l249 -326l-249 -324h-191l252 324z" />
<glyph unicode="&#x205f;" horiz-adv-x="466" />
<glyph unicode="&#x20ac;" horiz-adv-x="1099" d="M92 492v161h96v117h-96v162h96v145q0 157 111.5 267t271.5 110h13q161 0 272 -108.5t111 -270.5h-172q0 89 -63 152t-154 63t-154.5 -63t-63.5 -152v-143h457v-162h-457v-117h394v-161h-394v-136q0 -90 64 -153.5t154 -63.5q91 0 154 63t63 152v25h172v-23 q0 -157 -111.5 -266.5t-271.5 -109.5h-13q-160 0 -271.5 110.5t-111.5 267.5v134h-96z" />
<glyph unicode="&#x2122;" horiz-adv-x="1452" d="M92 1307v127h490v-127h-179v-717h-139v717h-172zM678 590v844h137l162 -342l162 342h139v-844h-141v506l14 82l-117 -244h-112l-121 244l14 -84v-504h-137z" />
<glyph unicode="&#x25fc;" horiz-adv-x="1024" d="M0 0v1024h1024v-1024h-1024z" />
<glyph unicode="&#xfb01;" horiz-adv-x="1058" d="M41 877v147h143v145q0 118 83.5 200.5t203.5 82.5q92 0 184 -63l-94 -123q-49 34 -90 34q-54 0 -90.5 -35.5t-36.5 -88.5v-152h559v-1024h-162v877h-397v-877h-160v877h-143zM729 1247v185h189v-185h-189z" />
<glyph unicode="&#xfb02;" horiz-adv-x="1081" d="M41 877v147h143v127q0 118 83.5 199.5t203.5 81.5h447v-1432h-162v1280h-285q-54 0 -90.5 -36t-36.5 -87v-133h260v-147h-260v-877h-160v877h-143z" />
</font>
</defs>
</svg>
