<?xml version="1.0" standalone="no"?>
<!DOCTYPE svg PUBLIC "-//W3C//DTD SVG 1.1//EN" "http://www.w3.org/Graphics/SVG/1.1/DTD/svg11.dtd" >
<svg xmlns="http://www.w3.org/2000/svg">
<metadata></metadata>
<defs>
<font id="decimabold_italic" horiz-adv-x="1062" >
<font-face units-per-em="2048" ascent="1536" descent="-512" />
<missing-glyph horiz-adv-x="450" />
<glyph horiz-adv-x="0" />
<glyph horiz-adv-x="682" />
<glyph unicode=" "  horiz-adv-x="450" />
<glyph unicode="&#x09;" horiz-adv-x="450" />
<glyph unicode="&#xa0;" horiz-adv-x="450" />
<glyph unicode="!" horiz-adv-x="606" d="M113 0l39 279h278l-39 -279h-278zM180 420l144 1014h256l-144 -1014h-256z" />
<glyph unicode="&#x22;" horiz-adv-x="858" d="M195 971l67 483h230l-148 -483h-149zM537 971l67 483h230l-150 -483h-147z" />
<glyph unicode="#" horiz-adv-x="1306" d="M131 356l33 234h190l60 201h-162l33 233h192l121 412h238l-121 -412h157l119 412h240l-121 -412h156l-33 -233h-186l-58 -201h156l-33 -234h-186l-101 -356h-241l102 356h-158l-100 -356h-238l101 356h-160zM594 590h156l57 201h-158z" />
<glyph unicode="$" horiz-adv-x="1048" d="M98 381l13 88h256l-13 -88q-9 -62 27.5 -106t99.5 -44h23q62 0 110 40.5t56 95.5q8 58 -15.5 106.5t-67.5 84t-98.5 69.5t-108 73.5t-96 86t-64 116t-9.5 154.5q18 125 110 226.5t216 143.5l14 105h248l-15 -102q120 -40 179.5 -150t35.5 -276h-256q12 93 -18 144.5 t-94 51.5q-61 0 -106.5 -38.5t-53.5 -94.5q-6 -44 19 -82t69.5 -69t99 -63.5t107.5 -75t94.5 -94t61 -129.5t6.5 -173q-20 -139 -115.5 -244t-228.5 -137l-15 -96h-247l14 96q-124 34 -190.5 139.5t-47.5 241.5z" />
<glyph unicode="%" horiz-adv-x="2062" d="M203 860l35 250q20 136 130 232t244 96h15q133 0 216.5 -96.5t63.5 -231.5l-35 -250q-20 -139 -129 -233.5t-243 -94.5h-15q-134 0 -217.5 96t-64.5 232zM440 840q-6 -37 19 -64.5t63 -27.5q35 0 68 27t39 63l41 292q4 36 -21.5 63.5t-62.5 27.5q-36 0 -68.5 -27.5 t-36.5 -63.5zM483 0l949 1436h254l-945 -1436h-258zM1251 309l35 248q20 138 130 233t243 95h14q136 0 219.5 -95t63.5 -233l-35 -248q-19 -136 -129.5 -232.5t-245.5 -96.5h-14q-132 0 -216 97t-65 232zM1489 289q-6 -39 18.5 -65.5t63.5 -26.5q36 0 68 26.5t38 63.5 l41 293q4 36 -21.5 63t-64.5 27q-36 0 -67 -27t-35 -63z" />
<glyph unicode="&#x26;" d="M137 317q0 18 4 54l41 295q13 95 69.5 170.5t139.5 121.5l-76 238l35 238h684l-28 -205h-451l168 -561l39 -213l35 260h217l-47 -346q-15 -103 -93 -201l52 -168h-242l-8 23q-68 -43 -176 -43h-13q-151 0 -250.5 97t-99.5 240zM365 342q0 -67 44 -112.5t115 -45.5 q53 0 92 25l-163 543q-40 -47 -45 -88l-41 -295q-2 -10 -2 -27z" />
<glyph unicode="'" horiz-adv-x="516" d="M195 971l67 483h230l-148 -483h-149z" />
<glyph unicode="(" horiz-adv-x="733" d="M137 6l148 1055q24 165 170 279t342 114l-33 -240q-92 0 -156 -42.5t-73 -106.5l-150 -1069q-9 -67 42 -108.5t144 -41.5l-34 -237q-129 0 -226.5 54t-143 144.5t-30.5 198.5z" />
<glyph unicode=")" horiz-adv-x="733" d="M82 -389l33 237q92 0 155 42t72 108l150 1067q9 64 -42.5 106.5t-142.5 42.5l33 240q195 0 309.5 -114.5t91.5 -278.5l-147 -1053q-24 -165 -171 -281t-341 -116z" />
<glyph unicode="*" horiz-adv-x="874" d="M201 1137l88 184l149 -49l23 162h192l-22 -154l168 49l32 -176l-169 -61l81 -131l-172 -109l-77 125l-99 -125l-147 102l102 133z" />
<glyph unicode="+" horiz-adv-x="1206" d="M156 440l32 246h342l50 338h256l-50 -338h342l-32 -246h-342l-49 -344h-256l49 344h-342z" />
<glyph unicode="," horiz-adv-x="544" d="M115 -246l106 246h-90l39 279h279l-31 -222l-137 -303h-166z" />
<glyph unicode="-" horiz-adv-x="835" d="M156 444l32 240h570l-33 -240h-569z" />
<glyph unicode="." horiz-adv-x="544" d="M123 0l39 279h278l-39 -279h-278z" />
<glyph unicode="/" horiz-adv-x="894" d="M-8 0l753 1434h259l-758 -1434h-254z" />
<glyph unicode="0" horiz-adv-x="1058" d="M121 379l94 661q23 165 151 281.5t291 116.5h17q162 0 259.5 -116.5t74.5 -281.5l-95 -663q-15 -107 -79.5 -198.5t-161.5 -145t-203 -53.5h-16q-164 0 -259.5 116.5t-72.5 282.5zM373 369q-8 -65 27.5 -108.5t95.5 -43.5q59 0 105.5 43.5t53.5 106.5l97 682 q9 65 -25 109t-94 44q-59 0 -107 -44.5t-57 -108.5z" />
<glyph unicode="1" horiz-adv-x="688" d="M131 1198l33 236h432l-201 -1434h-256l168 1198h-176z" />
<glyph unicode="2" horiz-adv-x="1032" d="M27 0l24 186q13 93 57 177.5t104 148.5t130 123t139 111.5t127 103t98 108.5t48 117q9 60 -30 102t-101 42q-68 0 -121.5 -59.5t-65.5 -153.5h-252q19 135 90 238.5t171 156.5t212 53t198.5 -51t127.5 -142t25 -202q-11 -80 -52.5 -155.5t-100 -135.5t-127 -116.5 t-136.5 -107.5t-126 -99.5t-98.5 -102.5t-50.5 -106h576l-33 -236h-833z" />
<glyph unicode="3" horiz-adv-x="974" d="M61 377l7 47h256l-7 -49q-9 -63 31.5 -106.5t106.5 -43.5q64 0 113.5 43.5t58.5 108.5l39 272q6 43 -19 74t-67 31h-193l29 202l205 242h-373l35 236h721l-29 -195l-227 -258q91 -37 143 -127t35 -203l-39 -272q-23 -166 -158 -282.5t-305 -116.5h-10q-170 0 -273 117 t-80 280z" />
<glyph unicode="4" horiz-adv-x="1081" d="M47 281l37 254l559 899h279l-566 -916h267l47 334h256l-47 -334h108l-33 -237h-108l-39 -281h-256l39 281h-543z" />
<glyph unicode="5" horiz-adv-x="1048" d="M100 377l6 41h256l-8 -51q-8 -63 32 -106.5t106 -43.5q64 0 115.5 44t60.5 108l32 237q9 63 -30.5 107.5t-102.5 44.5q-58 0 -100 -35.5t-61 -79.5l-222 64l166 727h678l-35 -236h-442l-51 -227q51 26 112 26q170 0 268.5 -113.5t75.5 -279.5l-32 -225 q-23 -166 -157 -282.5t-304 -116.5h-12q-167 0 -270.5 117t-80.5 280z" />
<glyph unicode="6" horiz-adv-x="1083" d="M119 373l98 686q22 163 154 279t301 116h10q173 0 271.5 -111t72.5 -288h-256q10 75 -26 119.5t-101 44.5q-62 0 -111.5 -44.5t-58.5 -109.5l-20 -143q74 53 172 53q168 0 270.5 -114.5t79.5 -276.5l-29 -209q-15 -108 -83 -199t-169 -143.5t-211 -52.5h-14 q-169 0 -270.5 114.5t-79.5 278.5zM375 365q-9 -62 31.5 -105t105.5 -43q63 0 114 42.5t60 105.5l31 223q9 63 -29.5 107t-101.5 44q-65 0 -118 -44t-62 -107z" />
<glyph unicode="7" horiz-adv-x="870" d="M135 1198l33 236h768l-25 -185q-9 -64 -56 -171.5t-109 -231.5t-126 -260t-117.5 -292.5t-72.5 -293.5h-256q19 130 65 276t104 276t115 245.5t109.5 225.5t75.5 175h-508z" />
<glyph unicode="8" horiz-adv-x="1091" d="M121 375l12 98q23 164 158 277q-82 111 -62 254l11 79q22 154 148.5 262.5t287.5 108.5h18q161 0 256.5 -108.5t73.5 -262.5l-10 -82q-21 -150 -133 -251q101 -110 77 -277l-14 -100q-22 -163 -156 -278t-303 -115h-16q-170 0 -270.5 115t-77.5 280zM377 367 q-9 -64 31.5 -107t107.5 -43q62 0 111.5 43t58.5 107l14 104q9 63 -29.5 107.5t-101.5 44.5t-116 -44.5t-62 -107.5zM481 991q-8 -56 24.5 -94.5t90.5 -38.5h16q53 0 96 38.5t50 94.5l12 86q8 60 -26.5 101t-92.5 41q-60 0 -104.5 -41t-52.5 -101z" />
<glyph unicode="9" horiz-adv-x="1083" d="M135 379h256q-10 -75 27 -119.5t102 -44.5q62 0 110.5 44t57.5 110l21 143q-74 -53 -172 -53q-168 0 -271 114.5t-80 276.5l31 209q23 164 158 279.5t303 115.5h14q170 0 271.5 -115t78.5 -278l-96 -686q-15 -106 -80.5 -197t-165.5 -144.5t-211 -53.5h-10 q-173 0 -271.5 111t-72.5 288zM444 846q-9 -63 31 -107.5t103 -44.5q65 0 117 44.5t61 107.5l30 223q9 62 -31.5 105t-105.5 43q-63 0 -114 -42.5t-60 -105.5z" />
<glyph unicode=":" horiz-adv-x="544" d="M96 0l39 279h279l-39 -279h-279zM201 745l39 279h278l-39 -279h-278z" />
<glyph unicode=";" horiz-adv-x="544" d="M88 -246l107 246h-91l39 279h279l-31 -222l-137 -303h-166zM209 745l39 279h278l-39 -279h-278z" />
<glyph unicode="&#x3c;" horiz-adv-x="1161" d="M160 489l28 199l949 389l-37 -264l-574 -225l510 -223l-37 -265z" />
<glyph unicode="=" horiz-adv-x="1204" d="M127 242l33 239h938l-33 -239h-938zM184 649l33 242h938l-33 -242h-938z" />
<glyph unicode="&#x3e;" horiz-adv-x="1161" d="M104 100l37 267l576 221l-512 223l37 266l841 -389l-28 -199z" />
<glyph unicode="?" horiz-adv-x="1024" d="M172 1018q30 204 162.5 320t308.5 116q159 0 258.5 -89t99.5 -239q0 -80 -19 -141t-50.5 -99.5t-70 -71t-79.5 -66.5t-77 -74.5t-64.5 -105.5t-40.5 -150h-256q11 101 38.5 180t63 127t76 86t79 66t69.5 56.5t50 69t19 93.5t-37 88t-92 35q-68 0 -118.5 -54t-63.5 -147 h-256zM270 0l39 281h289l-39 -281h-289z" />
<glyph unicode="@" horiz-adv-x="1495" d="M123 133l113 795q18 134 113 255.5t238 196t292 74.5h73q147 0 268 -65.5t184 -181t44 -251.5l-135 -956h-244l8 57q-27 -36 -76.5 -56.5t-107.5 -20.5q-151 0 -240 102t-67 250l49 354q20 149 141.5 252.5t282.5 103.5q98 0 141 -30q-6 81 -86 141.5t-196 60.5h-74 q-126 0 -236.5 -89t-124.5 -197l-112 -795q-15 -105 51 -183.5t174 -78.5h84l-33 -240h-80q-140 0 -249.5 69t-161.5 184.5t-33 248.5zM831 342q-6 -52 29.5 -90.5t91.5 -38.5q60 0 109 39t55 90l47 336q8 53 -29 92t-96 39q-58 0 -104.5 -39t-54.5 -92z" />
<glyph unicode="A" horiz-adv-x="1163" d="M102 0l88 627l336 807h410l111 -807l-89 -627h-253l59 426h-348l-60 -426h-254zM473 666h303l-55 528h-45z" />
<glyph unicode="B" horiz-adv-x="1093" d="M113 0l200 1434h410q161 0 253 -97q76 -80 77 -190q0 -24 -4 -49l-17 -119q-16 -112 -123 -223q75 -93 75 -199q0 -22 -3 -45l-20 -154q-23 -156 -154.5 -257t-290.5 -101h-403zM408 240h141q55 0 97 35t50 83l21 152q1 7 1 13q0 33 -24 67q-29 41 -90 41h-141zM498 870 h149q47 0 85 30t44 71l17 123q1 7 1 13q0 33 -25 57q-30 30 -77 30h-149z" />
<glyph unicode="C" horiz-adv-x="1116" d="M145 383l95 670q15 108 84.5 200.5t175 146.5t221.5 54h8q180 0 282 -118q81 -94 81 -233q0 -35 -5 -73h-258q2 17 2 32q1 60 -31 101q-40 51 -108 51q-70 0 -123.5 -43t-62.5 -106l-98 -694q-1 -10 -1 -20q1 -51 35 -88q42 -44 111 -44q66 0 119.5 43.5t62.5 106.5 l13 77h258l-11 -65q-15 -108 -82.5 -200t-171.5 -146.5t-221 -54.5h-8q-176 0 -283 119q-88 98 -88 227q0 28 4 57z" />
<glyph unicode="D" horiz-adv-x="1140" d="M113 0l200 1434h414q175 0 281 -117q88 -96 88 -226q0 -28 -4 -57l-91 -635q-15 -109 -83.5 -200.5t-172.5 -145t-219 -53.5h-413zM403 240h150q68 0 120.5 43t61.5 106l90 653q2 12 2 23q-1 49 -33 85q-40 44 -106 44h-149z" />
<glyph unicode="E" horiz-adv-x="1052" d="M113 0l200 1434h770l-32 -240h-512l-47 -326h466l-32 -239h-467l-56 -389h529l-33 -240h-786z" />
<glyph unicode="F" horiz-adv-x="1017" d="M113 0l200 1434h772l-32 -240h-512l-45 -317h462l-34 -248h-463l-88 -629h-260z" />
<glyph unicode="G" horiz-adv-x="1153" d="M145 383l95 670q23 164 164.5 282.5t316.5 118.5h33q179 0 282 -118q83 -95 83 -234q0 -34 -5 -72h-260q2 16 2 31q0 61 -33 101q-41 50 -112 50h-21q-69 0 -124 -43t-64 -106l-99 -692q-1 -10 -1 -19q0 -51 36 -88q44 -45 113 -45h20q69 0 124.5 43.5t64.5 106.5l24 168 h-178l33 237h438l-55 -393q-23 -165 -162 -283t-315 -118h-33q-174 0 -282 119q-89 98 -89 227q0 28 4 57z" />
<glyph unicode="H" horiz-adv-x="1183" d="M113 0l200 1434h256l-77 -562h342l77 562h258l-200 -1434h-258l88 629h-342l-88 -629h-256z" />
<glyph unicode="I" horiz-adv-x="589" d="M113 0l200 1434h262l-200 -1434h-262z" />
<glyph unicode="J" horiz-adv-x="993" d="M88 338l31 211h260l-33 -230q-1 -7 -1 -14q0 -33 25 -57q29 -29 74 -29q48 0 85.5 29t43.5 71l158 1115h260l-155 -1096q-20 -150 -141.5 -254t-278.5 -104t-252 104q-79 87 -79 204q0 24 3 50z" />
<glyph unicode="K" horiz-adv-x="1202" d="M113 0l200 1434h260l-200 -1434h-260zM471 758l516 676h301l-516 -684l338 -750h-303z" />
<glyph unicode="L" horiz-adv-x="913" d="M113 0l200 1434h260l-167 -1194h448l-33 -240h-708z" />
<glyph unicode="M" horiz-adv-x="1363" d="M113 0l200 1434h269l168 -560h8l323 560h269l-201 -1434h-254l129 922h-8l-201 -349h-207l-104 349h-8l-129 -922h-254z" />
<glyph unicode="N" horiz-adv-x="1183" d="M113 0l200 1434h269l209 -840h8l116 840h254l-200 -1434h-269l-206 840h-9l-118 -840h-254z" />
<glyph unicode="O" horiz-adv-x="1161" d="M145 383l95 670q15 108 84.5 200.5t175 146.5t219.5 54h33q174 0 280 -118q87 -97 87 -225q0 -28 -5 -58l-94 -672q-15 -108 -84 -200.5t-174 -146.5t-219 -54h-33q-174 0 -281 119q-88 98 -88 227q0 28 4 57zM403 371q-1 -9 -1 -17q0 -52 38 -90q44 -44 111 -45h20 q68 0 124 44t65 106l98 696q2 11 2 21q0 48 -36 84q-43 44 -111 44h-23q-68 0 -123.5 -43.5t-64.5 -105.5z" />
<glyph unicode="P" horiz-adv-x="1054" d="M113 0l200 1434h424q152 0 245 -101q77 -83 76 -196q0 -24 -3 -50l-39 -274q-22 -147 -141.5 -247.5t-272.5 -100.5h-162l-65 -465h-262zM473 702h154q44 0 79.5 28t41.5 67l40 301q1 7 1 14q0 31 -22 54q-27 28 -71 28h-153z" />
<glyph unicode="Q" horiz-adv-x="1179" d="M147 383l95 670q23 165 162 283t315 118h31q177 0 283 -118q87 -97 87 -226q0 -28 -4 -57l-96 -672q-13 -96 -68 -176l88 -105l-186 -145l-74 90q-101 -65 -237 -65h-31q-176 0 -282 119q-87 98 -87 227q0 28 4 57zM416 451q90 49 174 49q94 0 180 -68l88 625q2 11 2 22 q0 51 -36 89q-43 46 -113 46h-21q-69 0 -124 -46t-64 -111zM442 260q15 -19 45 -31t62 -12q60 0 92 14q-54 60 -106 60q-45 0 -93 -31z" />
<glyph unicode="R" horiz-adv-x="1122" d="M113 0l200 1434h424q152 0 245 -101q77 -83 76 -196q0 -24 -3 -50l-37 -256q-12 -88 -69 -167t-140 -125l160 -539h-283l-141 487h-107l-67 -487h-258zM473 727h162q43 0 78 28t39 68l39 275q1 7 1 14q0 31 -22 54q-27 28 -70 28h-161z" />
<glyph unicode="S" horiz-adv-x="1103" d="M115 381l10 65h260l-10 -65q-2 -11 -1 -22q0 -51 35 -91q43 -48 111 -49h23q68 0 123 45t63 103q2 15 2 29q0 30 -10 57q-15 39 -45.5 68t-71.5 55t-86.5 51t-91 52t-85 63t-68 78t-40.5 102q-7 33 -7 70q0 30 5 63q25 169 163.5 284t314.5 115q178 0 281 -118 q82 -94 82 -233q0 -35 -5 -73h-258q2 17 2 33q0 55 -30 97q-39 54 -107 54q-67 0 -119 -40.5t-59 -100.5q-2 -10 -2 -20q0 -27 12 -51q16 -32 46.5 -57.5t71.5 -50.5t86.5 -51.5t91 -56.5t84.5 -69t67 -85q27 -48 39 -112q6 -33 6 -68q0 -34 -5 -71q-23 -165 -163 -283 t-316 -118h-33q-177 0 -283 118q-88 97 -87 226q0 28 4 57z" />
<glyph unicode="T" horiz-adv-x="948" d="M168 1194l33 240h846l-33 -240h-293l-168 -1194h-262l168 1194h-291z" />
<glyph unicode="U" horiz-adv-x="1187" d="M158 383l147 1051h260l-149 -1057q-2 -11 -2 -22q0 -51 36 -89q43 -46 113 -47h21q69 0 125 46t65 110l150 1059h262l-150 -1053q-23 -165 -163 -283t-316 -118h-33q-176 0 -284 119q-87 97 -87 223q0 30 5 61z" />
<glyph unicode="V" horiz-adv-x="1142" d="M205 807l88 627h258l-82 -594l70 -604h28l242 604l82 594h258l-88 -627l-352 -807h-377z" />
<glyph unicode="W" horiz-adv-x="1492" d="M217 811l86 623h258l-84 -600l-18 -512h8l205 538h289l53 -538h8l125 512l84 600h258l-86 -623l-234 -811h-354l-37 549h-10l-193 -549h-354z" />
<glyph unicode="X" horiz-adv-x="1157" d="M20 0l467 748l-235 686h287l131 -422l250 422h286l-430 -686l258 -748h-289l-151 473l-285 -473h-289z" />
<glyph unicode="Y" horiz-adv-x="1122" d="M201 1434h284l160 -467l289 467h287l-486 -762l-94 -672h-264l94 672z" />
<glyph unicode="Z" horiz-adv-x="1081" d="M61 0l33 238l684 956h-518l33 240h821l-33 -236l-680 -958h549l-32 -240h-857z" />
<glyph unicode="[" horiz-adv-x="722" d="M84 -369l254 1805h457l-33 -236h-207l-188 -1333h206l-32 -236h-457z" />
<glyph unicode="\" horiz-adv-x="884" d="M190 1434h259l344 -1434h-256z" />
<glyph unicode="]" horiz-adv-x="722" d="M2 -369l33 236h207l186 1331h-207l35 236h457l-254 -1803h-457z" />
<glyph unicode="^" horiz-adv-x="1052" d="M127 666l420 768h194l201 -768h-246l-100 434h-8l-215 -434h-246z" />
<glyph unicode="_" horiz-adv-x="1005" d="M-27 -307l27 198h1004l-27 -198h-1004z" />
<glyph unicode="`" horiz-adv-x="557" d="M201 1454h315l201 -317h-236z" />
<glyph unicode="a" d="M115 276q0 20 4 56l49 360q21 148 142.5 250t291.5 102q79 0 154 -13t116.5 -26.5t108.5 -39.5l-98 -715q-3 -19 11 -32t32 -13h22l-30 -215h-60q-54 0 -101.5 25.5t-72.5 66.5q-56 -51 -123.5 -76.5t-114.5 -25.5q-153 0 -242 82.5t-89 213.5zM356 313q-1 -6 -1 -12 q-1 -39 33 -71q38 -36 95 -35q61 0 112.5 40t59.5 93l68 477q-74 24 -148 24q-62 0 -108.5 -39.5t-54.5 -93.5z" />
<glyph unicode="b" horiz-adv-x="1024" d="M96 59l195 1375h239l-63 -449q32 27 80.5 43t85.5 16q169 0 259 -100q73 -81 73 -197q0 -27 -4 -55l-52 -360q-21 -149 -141 -250.5t-291 -101.5q-80 0 -155.5 13t-117 26.5t-108.5 39.5zM358 219q57 -24 146 -24q61 0 108.5 40t55.5 93l51 368q1 9 1 18q0 42 -30 75 q-37 40 -96 40q-60 0 -110 -40t-58 -93z" />
<glyph unicode="c" horiz-adv-x="1005" d="M129 330l51 364q21 149 140.5 249.5t287.5 100.5q171 0 261 -104q70 -82 70 -208q0 -35 -5 -73h-236q2 18 2 34q0 55 -26 91q-34 47 -96 47q-57 0 -103.5 -40t-54.5 -93l-53 -372q-1 -8 -1 -15q0 -44 30 -78q35 -40 93 -40q64 0 112 48t58 130h242q-24 -181 -145.5 -286 t-294.5 -105q-168 0 -261 100q-75 81 -75 194q0 27 4 56z" />
<glyph unicode="d" horiz-adv-x="1038" d="M106 332l52 360q21 149 138.5 250.5t285.5 101.5q40 0 83 -15.5t68 -43.5l64 449h239l-166 -1176q-3 -21 10.5 -37t32.5 -16h23l-29 -215h-59q-55 0 -103.5 26t-72.5 66q-47 -44 -113 -73t-125 -29q-170 0 -260 100q-72 81 -72 196q0 27 4 56zM348 328q-1 -9 -1 -18 q0 -42 30 -75q37 -40 96 -40q60 0 110 40t58 93l51 368q1 9 1 18q1 42 -31 75q-38 40 -99 40t-108.5 -40t-55.5 -93z" />
<glyph unicode="e" horiz-adv-x="960" d="M129 330l51 364q21 148 142.5 249t289.5 101h29q131 0 222 -95q76 -79 76 -182q0 -20 -3 -42l-8 -51q-14 -101 -81.5 -165t-180.5 -106l-301 -108q3 -45 37.5 -72.5t86.5 -27.5q62 0 136.5 14.5t118.5 29.5l44 15l-32 -234q-129 -40 -293 -40q-169 0 -263 100 q-76 81 -75 195q0 27 4 55zM397 539l230 82q60 21 65 65l4 33q1 7 1 14q-1 33 -25 61q-30 34 -72 35h-29q-55 0 -100 -40.5t-51 -92.5z" />
<glyph unicode="f" horiz-adv-x="733" d="M84 -369l164 1178h-131l30 215h132l18 127q19 128 120 215.5t230 87.5q113 0 221 -80l-161 -180q-60 45 -91 45q-30 0 -51 -20t-26 -50l-21 -145h234l-31 -215h-234l-163 -1178h-240z" />
<glyph unicode="g" horiz-adv-x="1007" d="M86 -111q8 67 49 136.5t111 113.5q-75 43 -109 123q-25 58 -25 123q0 23 3 47l37 262q20 150 142 250t290 100q198 0 383 -77l-144 -1008q-21 -151 -139.5 -249.5t-296.5 -98.5q-149 0 -234 76q-70 63 -70 159q0 21 3 43zM328 -92q-1 -6 -1 -12q0 -26 19 -46 q22 -24 70 -24q62 0 112 44.5t56 96.5l20 144l-227 -138q-21 -13 -34 -31.5t-15 -33.5zM358 442q-1 -9 -1 -18q0 -40 31 -71q37 -38 95 -38q61 0 110.5 38t57.5 89l49 363q-78 24 -147 24q-57 0 -104.5 -40t-55.5 -91z" />
<glyph unicode="h" horiz-adv-x="1050" d="M82 0l201 1434h239l-61 -449q69 59 178 59q161 0 249 -102q71 -82 70 -194q0 -27 -4 -56l-61 -434q-3 -22 9 -37.5t32 -15.5h24l-30 -215h-60q-108 0 -170 74q-50 60 -50 140q0 19 3 40l64 448q1 10 1 19q0 43 -30 77q-37 42 -94 41q-65 0 -115.5 -41.5t-56.5 -93.5 l-98 -694h-240z" />
<glyph unicode="i" horiz-adv-x="557" d="M123 244l108 780h242l-106 -766q-3 -22 9.5 -37.5t33.5 -15.5h47l-31 -215h-86q-106 0 -169 74q-51 60 -51 140q0 20 3 40zM246 1171l35 263h260l-35 -263h-260z" />
<glyph unicode="j" horiz-adv-x="544" d="M-215 -295l166 189q60 -54 88 -54q27 0 48 19.5t24 48.5l157 1116h240l-156 -1112q-19 -126 -119 -213.5t-227 -87.5q-100 0 -221 94zM276 1171l37 263h262l-36 -263h-263z" />
<glyph unicode="k" horiz-adv-x="978" d="M82 0l201 1434h239l-65 -476q132 86 252 86q115 0 185 -78q56 -63 55 -150q0 -21 -3 -44q-14 -100 -82 -165t-176 -113l213 -494h-272l-168 391l-90 -41l-49 -350h-240zM403 590l222 100q76 36 82 84q1 4 1 8q0 16 -10 30q-12 16 -36 17q-32 0 -92 -28t-104 -56l-44 -28z " />
<glyph unicode="l" horiz-adv-x="550" d="M123 244l166 1190h241l-163 -1174q-3 -22 9.5 -38.5t33.5 -16.5h47l-31 -215h-84q-106 0 -170 74q-51 60 -52 141q0 19 3 39z" />
<glyph unicode="m" horiz-adv-x="1492" d="M96 0l144 1024h235l-6 -49q38 33 86 51t88 18q121 0 201 -88q126 88 256 88q138 0 224 -92q69 -75 68 -182q0 -25 -3 -51l-64 -461q-3 -22 10 -37.5t33 -15.5h21l-31 -215h-58q-108 0 -170 74q-50 60 -50 140q0 19 3 40l66 479q1 9 1 18q0 36 -24 59q-30 29 -75 29 q-47 0 -87 -31.5t-46 -74.5l-101 -723h-239l100 723q1 9 1 18q0 35 -23 59q-29 30 -74 29q-54 0 -97 -31t-49 -75l-100 -723h-240z" />
<glyph unicode="n" horiz-adv-x="1077" d="M96 0l144 1024h235l-6 -45q88 65 182 65q162 0 250 -102q70 -82 70 -194q0 -28 -4 -58l-60 -432q-3 -22 10 -37.5t33 -15.5h23l-31 -215h-59q-107 0 -169 74q-50 60 -51 140q0 19 3 40l61 448q1 10 1 19q0 43 -29 77q-36 42 -93 41q-58 0 -112 -39t-60 -88l-98 -702h-240 z" />
<glyph unicode="o" horiz-adv-x="1005" d="M129 330l51 364q21 149 141.5 249.5t292.5 100.5q170 0 262 -100q74 -82 74 -196q0 -26 -4 -54l-51 -364q-22 -151 -141 -250.5t-289 -99.5q-172 0 -265 100q-75 81 -75 194q0 27 4 56zM367 328q-1 -7 -1 -15q0 -44 32 -78q37 -40 96 -40q60 0 105.5 39.5t51.5 93.5 l54 368q1 8 1 16q0 44 -29 78q-34 40 -95 39q-58 0 -107 -40t-55 -93z" />
<glyph unicode="p" horiz-adv-x="1026" d="M57 -369l195 1393h235l-6 -41q39 29 87 45t85 16q169 0 259 -100q71 -81 71 -194q0 -28 -4 -58l-49 -360q-22 -149 -141.5 -250.5t-288.5 -101.5q-85 0 -148 51l-55 -400h-240zM393 328q-1 -7 -1 -14q0 -44 33 -79q38 -40 97 -40q61 0 109.5 40t54.5 93l53 368q1 8 1 15 q0 45 -31 79q-36 39 -95 39q-60 0 -111 -40.5t-57 -92.5z" />
<glyph unicode="q" horiz-adv-x="1046" d="M143 332l50 360q22 149 142.5 250.5t289.5 101.5q80 0 155.5 -13t117 -26.5t108.5 -39.5l-187 -1334h-241l55 398q-81 -49 -164 -49q-170 0 -259 100q-71 81 -71 194q0 28 4 58zM381 328q-1 -7 -1 -15q0 -44 32 -78q36 -40 94 -40q61 0 111.5 40t56.5 93l67 475 q-76 26 -143 26q-60 0 -109 -40t-55 -93z" />
<glyph unicode="r" horiz-adv-x="698" d="M96 0l144 1024h235l-8 -51q85 71 182 71q26 0 55.5 -4.5t45.5 -9.5l16 -4l-31 -225q-62 28 -121 28q-61 0 -118 -45.5t-66 -103.5l-94 -680h-240z" />
<glyph unicode="s" horiz-adv-x="929" d="M106 319l3 23h239l-2 -16q-1 -9 -1 -17q0 -41 24 -74q29 -40 86 -40h10q59 0 90.5 28t36.5 66q5 33 -17 59.5t-60 45.5t-84.5 38t-92 44.5t-81.5 58t-54 84.5q-12 33 -12 73q0 22 4 45q18 134 133 220.5t258 86.5q69 0 125 -20.5t90.5 -55t58.5 -78.5q24 -46 28 -94 q2 -23 1 -45q0 -25 -2 -51h-238q1 11 1 22q0 43 -22 72q-28 37 -77 37q-44 0 -79 -28t-40 -64q-4 -28 18.5 -50t61.5 -38t86.5 -33.5t93.5 -43t82 -59.5t54 -90q11 -36 12 -78q0 -24 -4 -50q-11 -84 -71.5 -157.5t-148.5 -116.5t-180 -43h-16q-156 0 -244 102 q-73 84 -73 191q0 22 3 46z" />
<glyph unicode="t" horiz-adv-x="860" d="M117 809l30 215h136l36 266h240l-37 -266h320l-31 -215h-319l-76 -549q-4 -26 15 -45.5t50 -19.5q28 0 51.5 16.5t26.5 38.5l8 63h238l-6 -45q-15 -115 -120 -201.5t-228 -86.5q-132 0 -211 88q-65 73 -65 172q0 21 3 43l74 526h-135z" />
<glyph unicode="u" horiz-adv-x="1091" d="M137 334l99 690h239l-98 -692q-1 -10 -1 -19q0 -43 30 -77q37 -42 94 -41q59 0 111.5 40t58.5 89l100 700h240l-109 -766q-3 -20 8.5 -36.5t30.5 -16.5h27l-29 -215h-59q-113 0 -177 90q-74 -59 -131 -79.5t-118 -20.5q-161 0 -249 102q-71 82 -71 196q0 27 4 56z" />
<glyph unicode="v" horiz-adv-x="1024" d="M137 307l101 717h237l-102 -731q-1 -7 -1 -13q0 -32 23 -56q28 -30 64 -29q75 0 143.5 70t83.5 169l41 301q1 7 1 14q0 33 -24 54q-30 26 -75 26l30 215q64 0 123 -20.5t105 -59t69 -100.5q16 -44 16 -94q0 -22 -3 -45l-39 -272q-17 -120 -84 -227.5t-178 -176.5 t-238 -69q-140 0 -226 94q-70 77 -71 183q0 24 4 50z" />
<glyph unicode="w" horiz-adv-x="1476" d="M137 309l101 715h237l-102 -731q-1 -7 -1 -13q0 -32 24 -56q29 -30 65 -29q69 0 116.5 48.5t59.5 137.5l90 643h238l-103 -731q-1 -7 -1 -13q0 -32 24 -56q29 -30 65 -29q71 0 124.5 67.5t68.5 171.5l41 301q1 7 1 14q1 35 -25 55q-30 26 -79 25l31 215q64 0 123 -20.5 t105 -59t68 -100.5q16 -43 16 -94q0 -22 -3 -45l-39 -272q-13 -91 -49 -174.5t-93 -151t-140 -107.5t-180 -40q-139 0 -226 96q-118 -96 -262 -96q-142 0 -228 95q-70 77 -71 183q0 25 4 51z" />
<glyph unicode="x" horiz-adv-x="958" d="M14 0l363 524l-209 500h272l109 -272l180 272h275l-351 -500l215 -524h-268l-117 293l-198 -293h-271z" />
<glyph unicode="y" horiz-adv-x="1011" d="M121 -111q8 64 50 134.5t110 117.5q-75 42 -109 121q-25 59 -25 124q0 23 3 46l83 592h242l-82 -582q-1 -9 -1 -18q0 -40 30 -71q38 -38 96 -38q61 0 110.5 38t57.5 89l82 582h242l-150 -1065q-22 -152 -141.5 -250t-296.5 -98q-149 0 -234 76q-70 63 -70 159q0 21 3 43z M362 -92q-1 -6 -1 -11q0 -26 20 -47q24 -24 72 -24q62 0 110.5 44.5t54.5 96.5l21 144l-219 -134q-52 -30 -58 -69z" />
<glyph unicode="z" horiz-adv-x="927" d="M41 -152q0 93 44.5 165.5t139.5 133.5l219 142h-221l29 200l299 314h-375l31 221h688l-29 -209l-299 -307q117 -24 183.5 -101.5t66.5 -183.5q0 -31 -2 -47l-31 -217q-22 -151 -141 -249.5t-295 -98.5q-136 0 -221.5 64.5t-85.5 172.5zM285 -106q0 -29 24.5 -48.5 t67.5 -19.5q60 0 109 44.5t57 96.5l20 146l-223 -140q-25 -15 -40 -37t-15 -42z" />
<glyph unicode="{" horiz-adv-x="741" d="M102 418l33 231q42 0 74 23.5t37 56.5l47 334q15 106 88.5 195.5t186 141.5t237.5 52l-33 -240q-88 0 -155 -44.5t-76 -106.5l-49 -359q-13 -97 -101 -170q65 -72 51 -170l-51 -360q-8 -65 46 -109.5t143 -44.5l-33 -237q-190 0 -307.5 115t-94.5 278l45 334 q6 34 -19.5 57t-68.5 23z" />
<glyph unicode="|" horiz-adv-x="579" d="M74 -369l254 1803h252l-254 -1803h-252z" />
<glyph unicode="}" horiz-adv-x="741" d="M10 -389l33 237q90 0 155.5 44.5t73.5 109.5l52 360q14 98 100 170q-65 80 -51 170l49 359q9 63 -44 107t-142 44l32 240q190 0 307.5 -114t94.5 -275l-47 -334q-5 -33 21.5 -56.5t68.5 -23.5l-33 -231q-42 0 -74.5 -23t-38.5 -57l-45 -334q-15 -107 -88.5 -197.5 t-186 -143t-237.5 -52.5z" />
<glyph unicode="~" horiz-adv-x="1251" d="M150 410q21 125 123.5 225t228.5 100q58 0 131 -26t135 -52t92 -26t55 27t35 61h228q-20 -123 -123 -223.5t-228 -100.5q-60 0 -134.5 26.5t-136 52.5t-89.5 26q-30 0 -55 -27t-37 -63h-225z" />
<glyph unicode="&#xa1;" horiz-adv-x="606" d="M94 -412l144 1014h256l-144 -1014h-256zM246 743l39 279h278l-39 -279h-278z" />
<glyph unicode="&#xa2;" horiz-adv-x="1015" d="M133 332l51 364q17 119 103.5 210.5t212.5 123.5l12 90h246l-15 -94q110 -40 163 -137.5t34 -229.5h-238q10 73 -23 121.5t-91 48.5q-60 0 -109 -40t-55 -93l-53 -372q-8 -53 29.5 -92t97.5 -39t109 51.5t59 126.5h241q-20 -141 -103 -241t-204 -134l-14 -92h-246l14 90 q-118 31 -178 124t-43 214z" />
<glyph unicode="&#xa3;" horiz-adv-x="1081" d="M113 0l32 236h66l41 299h-127l33 235h127l47 332q22 148 140.5 250t270.5 102q151 0 242.5 -102.5t69.5 -249.5l-8 -58h-254l10 74q6 41 -20.5 71t-69.5 30q-44 0 -80.5 -30t-42.5 -71l-49 -348h239l-32 -235h-240l-41 -299h473l-33 -236h-794z" />
<glyph unicode="&#xa4;" horiz-adv-x="1286" d="M123 221l143 123q-40 90 -24 203q17 131 84 225l-107 127l199 172l104 -125q108 53 213 53q119 0 213 -51l144 119l147 -168l-139 -127q38 -92 24 -213q-16 -104 -84 -213l103 -125l-191 -168l-112 123q-106 -59 -217 -59q-115 0 -211 57l-140 -123zM483 559 q-12 -80 39 -139.5t135 -59.5q80 0 146 58t78 141q11 80 -37.5 139.5t-126.5 59.5q-87 0 -155.5 -57.5t-78.5 -141.5z" />
<glyph unicode="&#xa5;" horiz-adv-x="1165" d="M150 326l32 229h297l15 98h-297l32 232h203l-180 549h283l133 -478l268 478h276l-327 -549h200l-32 -232h-301l-15 -98h301l-32 -229h-301l-46 -326h-258l45 326h-296z" />
<glyph unicode="&#xa6;" horiz-adv-x="579" d="M74 -369l106 756h252l-106 -756h-252zM219 672l109 762h252l-109 -762h-252z" />
<glyph unicode="&#xa7;" horiz-adv-x="1095" d="M172 338h248q-5 -43 19.5 -82t78.5 -39q62 0 90.5 22t32.5 50q4 26 -22 50.5t-69.5 47.5t-96 49t-104.5 60t-93 74.5t-61.5 99.5t-10.5 129q16 119 123 219q-21 42 -10 139q18 128 124.5 212.5t287.5 84.5q190 0 264 -96.5t51 -263.5h-250q7 46 -17.5 85.5t-78.5 39.5 q-59 0 -89.5 -22t-35.5 -52q-4 -27 22 -52t69.5 -48t96.5 -48.5t104.5 -59t92.5 -74t62.5 -99t11.5 -127.5q-18 -121 -127 -223q26 -60 14 -135q-18 -127 -126 -213t-286 -86q-97 0 -165.5 28t-103 78.5t-46 113t-0.5 138.5zM432 815q-5 -33 25.5 -66.5t71.5 -56.5 t105 -58.5t101 -62.5q22 14 25 45q6 39 -24 72t-72.5 54.5t-106.5 56t-104 65.5q-18 -23 -21 -49z" />
<glyph unicode="&#xa8;" horiz-adv-x="720" d="M72 1171l37 263h258l-37 -263h-258zM532 1171l37 263h260l-36 -263h-261z" />
<glyph unicode="&#xa9;" horiz-adv-x="1511" d="M205 545v344q0 115 48.5 220t129.5 180.5t190.5 120t227.5 44.5h33q159 0 296 -75.5t218.5 -206t81.5 -283.5v-344q0 -154 -81.5 -284.5t-218.5 -205.5t-296 -75h-33q-158 0 -295 75t-219 205.5t-82 284.5zM408 561q0 -98 55 -190t150.5 -150.5t203.5 -58.5q82 0 158 35 t130 90.5t86 128t32 145.5v316q0 73 -32 144.5t-86 127t-130 89.5t-158 34q-108 0 -203.5 -57.5t-150.5 -148.5t-55 -189v-316zM545 578v290q0 110 78 187.5t202 77.5q117 0 189.5 -88t72.5 -228h-186q0 123 -80 123q-43 0 -66.5 -23.5t-23.5 -56.5v-274q0 -32 23.5 -57 t66.5 -25q41 0 64.5 33t23.5 92h185q0 -142 -74.5 -229t-194.5 -87q-125 0 -202.5 76t-77.5 189z" />
<glyph unicode="&#xaa;" horiz-adv-x="737" d="M127 578l16 118h486l-17 -118h-485zM170 997q12 85 89 146t175 67l135 9l2 14q6 39 -19 70.5t-69 31.5q-80 0 -106 -78h-139q28 96 95.5 146.5t166.5 50.5q109 0 164 -60.5t43 -154.5l-64 -440h-133l4 26q-59 -39 -135 -39q-95 2 -158 62t-51 149zM301 999 q-4 -35 27 -63.5t71 -28.5q50 0 92.5 27t47.5 59l14 105l-131 -8q-43 -3 -79 -29t-42 -62z" />
<glyph unicode="&#xab;" horiz-adv-x="1323" d="M164 588l311 344h291l-309 -344l217 -342h-295zM680 588l311 344h291l-311 -344l221 -342h-297z" />
<glyph unicode="&#xac;" horiz-adv-x="1236" d="M182 647l35 244h940l-88 -617h-242l54 373h-699z" />
<glyph unicode="&#xad;" horiz-adv-x="1705" />
<glyph unicode="&#xae;" horiz-adv-x="1511" d="M205 545v344q0 115 48.5 220t129.5 180.5t190.5 120t227.5 44.5h33q159 0 296 -75.5t218.5 -206t81.5 -283.5v-344q0 -154 -81.5 -284.5t-218.5 -205.5t-296 -75h-33q-158 0 -295 75t-219 205.5t-82 284.5zM408 561q0 -98 55 -190t150.5 -150.5t203.5 -58.5q82 0 158 35 t130 90.5t86 128t32 145.5v316q0 73 -32 144.5t-86 127t-130 89.5t-158 34q-108 0 -203.5 -57.5t-150.5 -148.5t-55 -189v-316zM563 360v736h295q92 0 154.5 -59.5t62.5 -145.5v-125q0 -47 -21.5 -88t-52.5 -64l123 -254h-213l-86 201h-61v-201h-201zM760 745h86 q13 0 23 9.5t10 23.5v84q0 13 -10.5 23t-22.5 10h-86v-150z" />
<glyph unicode="&#xaf;" horiz-adv-x="657" d="M72 1151l32 231h658l-33 -231h-657z" />
<glyph unicode="&#xb0;" horiz-adv-x="884" d="M184 1120q0 140 100 240t240 100t240 -100t100 -240t-100 -240t-240 -100t-240 100t-100 240zM395 1120q0 -53 37.5 -91t89.5 -38q54 0 92.5 38t38.5 91t-38.5 91t-92.5 38q-52 0 -89.5 -38t-37.5 -91z" />
<glyph unicode="&#xb1;" horiz-adv-x="1210" d="M94 0l35 242h944l-35 -242h-944zM178 594l35 242h348l33 235h248l-33 -235h346l-35 -242h-346l-33 -238h-247l32 238h-348z" />
<glyph unicode="&#xb2;" horiz-adv-x="808" d="M111 567l18 142q9 61 54 122t103.5 110t116.5 93.5t100 86.5t46 75q3 23 -11.5 37t-37.5 14q-27 0 -49 -23.5t-27 -56.5h-219q21 141 113.5 214t216.5 73q117 0 185.5 -72.5t53.5 -187.5q-8 -56 -44 -110.5t-85 -97.5t-98.5 -80t-93.5 -72.5t-60 -59.5h330l-29 -207h-583 z" />
<glyph unicode="&#xb3;" horiz-adv-x="817" d="M150 844h227l-4 -33q-3 -22 15.5 -37.5t41.5 -15.5q26 0 49.5 15.5t26.5 37.5l16 115q3 22 -10 36.5t-35 14.5h-125l21 139l127 119l2 12h-250l27 187h518l-23 -164l-125 -129q59 -25 87 -82t20 -119l-17 -117q-15 -108 -112.5 -189t-210.5 -81h-23q-118 0 -189 83.5 t-54 207.5z" />
<glyph unicode="&#xb4;" horiz-adv-x="559" d="M158 1137l286 317h316l-367 -317h-235z" />
<glyph unicode="&#xb5;" d="M57 -369l197 1393h240l-99 -692q-8 -54 29 -95.5t94 -41.5q59 0 111.5 40t58.5 89l100 700h240l-108 -766q-3 -20 8 -36.5t30 -16.5h27l-29 -215h-59q-112 0 -176 90q-74 -58 -131.5 -79t-118.5 -21q-71 0 -121 32l-53 -381h-240z" />
<glyph unicode="&#xb6;" horiz-adv-x="1138" d="M188 1024q15 112 85 207t174 149t217 54h475l-254 -1803h-193l221 1571h-102l-221 -1571h-254l141 1000q-140 27 -225 137t-64 256z" />
<glyph unicode="&#xb7;" horiz-adv-x="544" d="M154 449l39 278h278l-39 -278h-278z" />
<glyph unicode="&#xb8;" horiz-adv-x="466" d="M29 -389l18 129h127q18 0 31 11.5t16 29.5q3 15 -7.5 27t-27.5 12h-106l24 180h175l-7 -51q64 -6 103.5 -54.5t30.5 -113.5q-10 -72 -69 -121t-130 -49h-178z" />
<glyph unicode="&#xb9;" horiz-adv-x="579" d="M193 1227l30 207h365l-123 -867h-240l92 660h-124z" />
<glyph unicode="&#xba;" horiz-adv-x="737" d="M127 578l16 118h486l-17 -118h-485zM170 1001l35 238q12 91 92 153t190 62q108 0 170 -61.5t50 -153.5l-35 -238q-12 -92 -90.5 -153.5t-186.5 -61.5q-109 0 -173 62t-52 153zM309 1001q-5 -38 26 -68t77 -30q45 0 83.5 30.5t43.5 67.5l34 238q5 37 -26 65.5t-78 28.5 q-45 0 -82.5 -28.5t-42.5 -65.5z" />
<glyph unicode="&#xbb;" horiz-adv-x="1323" d="M115 246l319 342l-217 344h291l217 -344l-313 -342h-297zM633 246l315 342l-215 344h291l217 -344l-313 -342h-295z" />
<glyph unicode="&#xbc;" horiz-adv-x="1851" d="M254 1227l29 207h364l-121 -867h-239l92 660h-125zM281 0l946 1436h254l-942 -1436h-258zM942 156l23 168l329 540h252l-293 -502h160l27 193h231l-26 -193h73l-28 -206h-74l-23 -156h-231l22 156h-442z" />
<glyph unicode="&#xbd;" horiz-adv-x="1839" d="M254 1227l29 207h364l-121 -867h-239l92 660h-125zM281 0l946 1436h254l-942 -1436h-258zM1071 0l21 141q9 61 53.5 122.5t102.5 110t115.5 93t99.5 87t46 75.5q3 23 -11 37t-36 14q-28 0 -50.5 -24t-27.5 -56h-219q21 141 113.5 214t216.5 73q118 0 187.5 -72.5 t52.5 -187.5q-8 -56 -43.5 -110t-84.5 -97.5t-98 -80.5t-93.5 -72.5t-61.5 -59.5h329l-28 -207h-584z" />
<glyph unicode="&#xbe;" horiz-adv-x="1994" d="M201 844h227l-4 -33q-4 -22 14.5 -37.5t42.5 -15.5q26 0 49 15t27 38l14 115q3 22 -9 36.5t-34 14.5h-125l21 139l127 119v12h-250l27 187h518l-23 -164l-125 -129q60 -25 88 -82t19 -119l-17 -117q-15 -108 -111.5 -189t-209.5 -81h-23q-118 0 -190 84t-53 207zM424 0 l946 1436h254l-942 -1436h-258zM1085 156l23 168l330 540h252l-293 -502h159l27 193h232l-27 -193h74l-29 -206h-74l-22 -156h-232l23 156h-443z" />
<glyph unicode="&#xbf;" horiz-adv-x="1054" d="M92 -104q0 80 19.5 141t51 99.5t70.5 71t80.5 66.5t78 74.5t65.5 105.5t41 150h256q-11 -101 -39.5 -180t-64 -127t-76.5 -86t-80 -66t-70.5 -57t-50.5 -70t-19 -94q0 -52 36.5 -86.5t92.5 -34.5q68 0 119 54t64 147h256q-30 -204 -162.5 -320t-308.5 -116 q-159 0 -259 89t-100 239zM496 741l41 281h288l-41 -281h-288z" />
<glyph unicode="&#xc0;" horiz-adv-x="1163" d="M102 0l88 627l336 807h410l111 -807l-89 -627h-253l59 426h-348l-60 -426h-254zM373 1864h315l201 -318h-236zM473 666h303l-55 528h-45z" />
<glyph unicode="&#xc1;" horiz-adv-x="1163" d="M102 0l88 627l336 807h410l111 -807l-89 -627h-253l59 426h-348l-60 -426h-254zM473 666h303l-55 528h-45zM602 1546l287 318h315l-366 -318h-236z" />
<glyph unicode="&#xc2;" horiz-adv-x="1163" d="M102 0l88 627l336 807h410l111 -807l-89 -627h-253l59 426h-348l-60 -426h-254zM369 1546l313 318h219l223 -318h-256l-102 133l-137 -133h-260zM473 666h303l-55 528h-45z" />
<glyph unicode="&#xc3;" horiz-adv-x="1163" d="M102 0l88 627l336 807h410l111 -807l-89 -627h-253l59 426h-348l-60 -426h-254zM385 1544q15 114 88.5 195.5t167.5 81.5q42 0 84.5 -19t78 -38t60.5 -19q26 0 46.5 20t23.5 43h219q-15 -114 -89 -195t-167 -81q-42 0 -84.5 19t-78 38t-60.5 19q-26 0 -45.5 -19.5 t-24.5 -44.5h-219zM473 666h303l-55 528h-45z" />
<glyph unicode="&#xc4;" horiz-adv-x="1163" d="M102 0l88 627l336 807h410l111 -807l-89 -627h-253l59 426h-348l-60 -426h-254zM393 1581l37 262h258l-37 -262h-258zM473 666h303l-55 528h-45zM854 1581l37 262h260l-37 -262h-260z" />
<glyph unicode="&#xc5;" horiz-adv-x="1163" d="M102 0l88 627l336 807h410l111 -807l-89 -627h-253l59 426h-348l-60 -426h-254zM473 666h303l-55 528h-45zM561 1716q0 90 59 150.5t148 60.5q87 0 150 -61.5t63 -149.5q0 -87 -63 -149t-150 -62q-89 0 -148 61t-59 150zM698 1718q0 -29 20.5 -50t49.5 -21q30 0 51 20.5 t21 50.5q0 28 -21 50t-51 22q-29 0 -49.5 -22t-20.5 -50z" />
<glyph unicode="&#xc6;" horiz-adv-x="1447" d="M102 0l88 627l338 807h953l-33 -240h-414l-47 -326h369l-33 -239h-369l-55 -389h428l-33 -240h-688l60 426h-248l-60 -426h-256zM471 666h229l74 528h-98z" />
<glyph unicode="&#xc7;" horiz-adv-x="1116" d="M160 383l92 670q25 165 165 283t316 118h8q180 0 282.5 -118.5t76.5 -305.5h-258q12 81 -27.5 132.5t-107.5 51.5q-71 0 -125.5 -43t-63.5 -106l-96 -694q-9 -63 32 -107.5t111 -44.5q67 0 121.5 44t63.5 106l10 77h258l-10 -65q-20 -151 -138 -264t-276 -133l-4 -35 q64 -6 103 -54.5t30 -113.5q-10 -72 -68.5 -121t-128.5 -49h-178l17 129h127q18 0 32 11.5t15 29.5q3 15 -7.5 27t-27.5 12h-107l25 174q-134 32 -208 141t-54 248z" />
<glyph unicode="&#xc8;" horiz-adv-x="1052" d="M113 0l200 1434h770l-32 -240h-512l-47 -326h466l-32 -239h-467l-56 -389h529l-33 -240h-786zM395 1864h316l200 -318h-235z" />
<glyph unicode="&#xc9;" horiz-adv-x="1052" d="M113 0l200 1434h770l-32 -240h-512l-47 -326h466l-32 -239h-467l-56 -389h529l-33 -240h-786zM553 1546l287 318h315l-367 -318h-235z" />
<glyph unicode="&#xca;" horiz-adv-x="1052" d="M113 0l200 1434h770l-32 -240h-512l-47 -326h466l-32 -239h-467l-56 -389h529l-33 -240h-786zM344 1546l313 318h220l223 -318h-256l-103 133l-137 -133h-260z" />
<glyph unicode="&#xcb;" horiz-adv-x="1052" d="M113 0l200 1434h770l-32 -240h-512l-47 -326h466l-32 -239h-467l-56 -389h529l-33 -240h-786zM360 1581l37 262h258l-37 -262h-258zM821 1581l37 262h260l-37 -262h-260z" />
<glyph unicode="&#xcc;" horiz-adv-x="589" d="M113 0l200 1434h262l-200 -1434h-262zM115 1864h315l201 -318h-236z" />
<glyph unicode="&#xcd;" horiz-adv-x="589" d="M113 0l200 1434h262l-200 -1434h-262zM330 1546l286 318h316l-367 -318h-235z" />
<glyph unicode="&#xce;" horiz-adv-x="589" d="M84 1546l313 318h219l224 -318h-256l-103 133l-137 -133h-260zM113 0l200 1434h262l-200 -1434h-262z" />
<glyph unicode="&#xcf;" horiz-adv-x="589" d="M104 1581l37 262h258l-37 -262h-258zM113 0l200 1434h262l-200 -1434h-262zM565 1581l37 262h260l-37 -262h-260z" />
<glyph unicode="&#xd0;" horiz-adv-x="1175" d="M119 629l33 239h116l80 566h422q168 0 273.5 -117.5t82.5 -282.5l-90 -635q-23 -165 -161 -282t-306 -117h-422l89 629h-117zM438 240h158q66 0 116.5 43t59.5 106l90 651q9 65 -28 109.5t-103 44.5h-158l-47 -326h199l-33 -239h-198z" />
<glyph unicode="&#xd1;" horiz-adv-x="1183" d="M113 0l200 1434h269l209 -840h8l116 840h254l-200 -1434h-269l-206 840h-9l-118 -840h-254zM401 1544q15 114 88.5 195.5t167.5 81.5q42 0 84.5 -19t78.5 -38t61 -19q26 0 46 20t23 43h219q-15 -114 -89 -195t-167 -81q-42 0 -84.5 19t-78 38t-60.5 19q-26 0 -45 -19.5 t-24 -44.5h-220z" />
<glyph unicode="&#xd2;" horiz-adv-x="1161" d="M145 383l95 670q15 108 84.5 200.5t175 146.5t219.5 54h33q174 0 279.5 -118t82.5 -283l-94 -672q-15 -108 -84 -200.5t-174 -146.5t-219 -54h-33q-174 0 -281 119t-84 284zM399 1864h316l200 -318h-235zM403 371q-7 -63 36.5 -107.5t111.5 -44.5h20q68 0 124 44t65 106 l98 696q9 62 -34 105.5t-111 43.5h-23q-68 0 -123.5 -43.5t-64.5 -105.5z" />
<glyph unicode="&#xd3;" horiz-adv-x="1161" d="M145 383l95 670q15 108 84.5 200.5t175 146.5t219.5 54h33q174 0 279.5 -118t82.5 -283l-94 -672q-15 -108 -84 -200.5t-174 -146.5t-219 -54h-33q-174 0 -281 119t-84 284zM403 371q-7 -63 36.5 -107.5t111.5 -44.5h20q68 0 124 44t65 106l98 696q9 62 -34 105.5 t-111 43.5h-23q-68 0 -123.5 -43.5t-64.5 -105.5zM621 1546l286 318h316l-367 -318h-235z" />
<glyph unicode="&#xd4;" horiz-adv-x="1161" d="M145 383l95 670q15 108 84.5 200.5t175 146.5t219.5 54h33q174 0 279.5 -118t82.5 -283l-94 -672q-15 -108 -84 -200.5t-174 -146.5t-219 -54h-33q-174 0 -281 119t-84 284zM377 1546l313 318h219l224 -318h-256l-103 133l-137 -133h-260zM403 371q-7 -63 36.5 -107.5 t111.5 -44.5h20q68 0 124 44t65 106l98 696q9 62 -34 105.5t-111 43.5h-23q-68 0 -123.5 -43.5t-64.5 -105.5z" />
<glyph unicode="&#xd5;" horiz-adv-x="1161" d="M145 383l95 670q15 108 84.5 200.5t175 146.5t219.5 54h33q174 0 279.5 -118t82.5 -283l-94 -672q-15 -108 -84 -200.5t-174 -146.5t-219 -54h-33q-174 0 -281 119t-84 284zM399 1544q15 114 88.5 195.5t167.5 81.5q42 0 84.5 -19t78.5 -38t61 -19q26 0 46 20t23 43h219 q-15 -114 -89 -195t-167 -81q-42 0 -84.5 19t-78 38t-60.5 19q-26 0 -45.5 -19.5t-24.5 -44.5h-219zM403 371q-7 -63 36.5 -107.5t111.5 -44.5h20q68 0 124 44t65 106l98 696q9 62 -34 105.5t-111 43.5h-23q-68 0 -123.5 -43.5t-64.5 -105.5z" />
<glyph unicode="&#xd6;" horiz-adv-x="1161" d="M145 383l95 670q15 108 84.5 200.5t175 146.5t219.5 54h33q174 0 279.5 -118t82.5 -283l-94 -672q-15 -108 -84 -200.5t-174 -146.5t-219 -54h-33q-174 0 -281 119t-84 284zM401 1581l37 262h258l-37 -262h-258zM403 371q-7 -63 36.5 -107.5t111.5 -44.5h20q68 0 124 44 t65 106l98 696q9 62 -34 105.5t-111 43.5h-23q-68 0 -123.5 -43.5t-64.5 -105.5zM862 1581l37 262h260l-37 -262h-260z" />
<glyph unicode="&#xd7;" horiz-adv-x="1122" d="M137 332l293 258l-219 258l192 170l224 -256l291 256l147 -172l-291 -258l217 -256l-194 -172l-219 258l-291 -254z" />
<glyph unicode="&#xd8;" horiz-adv-x="1202" d="M72 0l116 186q-39 91 -24 197l94 670q15 108 84.5 200.5t175 146.5t219.5 54h33q106 0 184 -43l13 23h262l-119 -191q38 -88 23 -190l-95 -672q-15 -108 -84 -200.5t-174 -146.5t-219 -54h-33q-103 0 -184 43l-12 -23h-260zM455 596l37 78l325 518q-39 22 -86 22h-22 q-68 0 -124 -43.5t-65 -105.5zM485 244q39 -25 84 -25h21q68 0 123.5 44t64.5 106l66 469l-37 -78z" />
<glyph unicode="&#xd9;" horiz-adv-x="1187" d="M158 383l147 1051h260l-149 -1057q-9 -65 34 -111.5t113 -46.5h21q69 0 125 46t65 110l150 1059h262l-150 -1053q-23 -165 -163 -283t-316 -118h-33q-176 0 -283.5 119t-82.5 284zM377 1864h315l201 -318h-236z" />
<glyph unicode="&#xda;" horiz-adv-x="1187" d="M158 383l147 1051h260l-149 -1057q-9 -65 34 -111.5t113 -46.5h21q69 0 125 46t65 110l150 1059h262l-150 -1053q-23 -165 -163 -283t-316 -118h-33q-176 0 -283.5 119t-82.5 284zM623 1546l286 318h316l-367 -318h-235z" />
<glyph unicode="&#xdb;" horiz-adv-x="1187" d="M158 383l147 1051h260l-149 -1057q-9 -65 34 -111.5t113 -46.5h21q69 0 125 46t65 110l150 1059h262l-150 -1053q-23 -165 -163 -283t-316 -118h-33q-176 0 -283.5 119t-82.5 284zM385 1546l313 318h220l223 -318h-256l-103 133l-137 -133h-260z" />
<glyph unicode="&#xdc;" horiz-adv-x="1187" d="M158 383l147 1051h260l-149 -1057q-9 -65 34 -111.5t113 -46.5h21q69 0 125 46t65 110l150 1059h262l-150 -1053q-23 -165 -163 -283t-316 -118h-33q-176 0 -283.5 119t-82.5 284zM397 1581l37 262h258l-37 -262h-258zM858 1581l37 262h260l-37 -262h-260z" />
<glyph unicode="&#xdd;" horiz-adv-x="1122" d="M201 1434h284l160 -467l289 467h287l-486 -762l-94 -672h-264l94 672zM614 1546l287 318h316l-367 -318h-236z" />
<glyph unicode="&#xde;" horiz-adv-x="1054" d="M113 0l200 1434h262l-26 -193h172q148 0 237.5 -101t67.5 -245l-39 -279q-20 -145 -137.5 -245.5t-265.5 -100.5h-172l-37 -270h-262zM446 510h162q42 0 74.5 27.5t36.5 66.5l43 297q6 41 -19.5 69.5t-66.5 28.5h-162z" />
<glyph unicode="&#xdf;" horiz-adv-x="1222" d="M53 -369l197 1407q25 170 164.5 293t308.5 123h63q111 0 199.5 -53.5t131.5 -140t30 -181.5l-21 -147q-88 -5 -155 -44.5t-74 -94.5q-5 -35 22.5 -72.5t68.5 -75.5t81 -83t63.5 -112t12.5 -145q-19 -134 -130 -228.5t-251 -94.5q-137 0 -217.5 94.5t-61.5 228.5l4 35h240 l-6 -45q-4 -35 20.5 -60.5t61.5 -25.5q34 0 65 25.5t35 60.5q5 31 -8.5 60.5t-37.5 54.5t-54 52t-59 59t-52 68.5t-33 87.5t-2 109q13 99 79.5 177t158.5 106q0 70 -45.5 113t-130.5 43q-79 0 -149 -55.5t-80 -133.5l-197 -1405h-242z" />
<glyph unicode="&#xe0;" d="M115 276q0 20 4 56l49 360q21 148 142.5 250t291.5 102q79 0 154 -13t116.5 -26.5t108.5 -39.5l-98 -715q-3 -19 11 -32t32 -13h22l-30 -215h-60q-54 0 -101.5 25.5t-72.5 66.5q-56 -51 -123.5 -76.5t-114.5 -25.5q-153 0 -242 82.5t-89 213.5zM221 1454h316l200 -317 h-235zM356 313q-6 -47 32.5 -82.5t94.5 -35.5q61 0 112.5 40t59.5 93l68 477q-74 24 -148 24q-62 0 -108.5 -39.5t-54.5 -93.5z" />
<glyph unicode="&#xe1;" d="M115 276q0 20 4 56l49 360q21 148 142.5 250t291.5 102q79 0 154 -13t116.5 -26.5t108.5 -39.5l-98 -715q-3 -19 11 -32t32 -13h22l-30 -215h-60q-54 0 -101.5 25.5t-72.5 66.5q-56 -51 -123.5 -76.5t-114.5 -25.5q-153 0 -242 82.5t-89 213.5zM356 313 q-6 -47 32.5 -82.5t94.5 -35.5q61 0 112.5 40t59.5 93l68 477q-74 24 -148 24q-62 0 -108.5 -39.5t-54.5 -93.5zM479 1137l287 317h315l-366 -317h-236z" />
<glyph unicode="&#xe2;" d="M115 276q0 20 4 56l49 360q21 148 142.5 250t291.5 102q79 0 154 -13t116.5 -26.5t108.5 -39.5l-98 -715q-3 -19 11 -32t32 -13h22l-30 -215h-60q-54 0 -101.5 25.5t-72.5 66.5q-56 -51 -123.5 -76.5t-114.5 -25.5q-153 0 -242 82.5t-89 213.5zM240 1137l313 317h219 l223 -317h-256l-102 133l-137 -133h-260zM356 313q-6 -47 32.5 -82.5t94.5 -35.5q61 0 112.5 40t59.5 93l68 477q-74 24 -148 24q-62 0 -108.5 -39.5t-54.5 -93.5z" />
<glyph unicode="&#xe3;" d="M115 276q0 20 4 56l49 360q21 148 142.5 250t291.5 102q79 0 154 -13t116.5 -26.5t108.5 -39.5l-98 -715q-3 -19 11 -32t32 -13h22l-30 -215h-60q-54 0 -101.5 25.5t-72.5 66.5q-56 -51 -123.5 -76.5t-114.5 -25.5q-153 0 -242 82.5t-89 213.5zM244 1135q15 114 88.5 195 t167.5 81q42 0 84.5 -19t78 -38t60.5 -19q26 0 46.5 20.5t23.5 43.5h219q-15 -114 -89 -195.5t-167 -81.5q-42 0 -84.5 19t-78.5 38t-61 19q-26 0 -45 -19t-24 -44h-219zM356 313q-6 -47 32.5 -82.5t94.5 -35.5q61 0 112.5 40t59.5 93l68 477q-74 24 -148 24 q-62 0 -108.5 -39.5t-54.5 -93.5z" />
<glyph unicode="&#xe4;" d="M115 276q0 20 4 56l49 360q21 148 142.5 250t291.5 102q79 0 154 -13t116.5 -26.5t108.5 -39.5l-98 -715q-3 -19 11 -32t32 -13h22l-30 -215h-60q-54 0 -101.5 25.5t-72.5 66.5q-56 -51 -123.5 -76.5t-114.5 -25.5q-153 0 -242 82.5t-89 213.5zM260 1171l37 263h258 l-37 -263h-258zM356 313q-6 -47 32.5 -82.5t94.5 -35.5q61 0 112.5 40t59.5 93l68 477q-74 24 -148 24q-62 0 -108.5 -39.5t-54.5 -93.5zM721 1171l37 263h260l-37 -263h-260z" />
<glyph unicode="&#xe5;" d="M115 276q0 20 4 56l49 360q21 148 142.5 250t291.5 102q79 0 154 -13t116.5 -26.5t108.5 -39.5l-98 -715q-3 -19 11 -32t32 -13h22l-30 -215h-60q-54 0 -101.5 25.5t-72.5 66.5q-56 -51 -123.5 -76.5t-114.5 -25.5q-153 0 -242 82.5t-89 213.5zM356 313 q-6 -47 32.5 -82.5t94.5 -35.5q61 0 112.5 40t59.5 93l68 477q-74 24 -148 24q-62 0 -108.5 -39.5t-54.5 -93.5zM428 1307q0 90 59 150.5t148 60.5q87 0 150 -61.5t63 -149.5q0 -87 -63 -149t-150 -62q-89 0 -148 61t-59 150zM565 1309q0 -29 20.5 -50.5t49.5 -21.5 q30 0 51 21t21 51q0 28 -21 49.5t-51 21.5q-29 0 -49.5 -21.5t-20.5 -49.5z" />
<glyph unicode="&#xe6;" horiz-adv-x="1421" d="M133 332l49 360q23 151 133 251.5t279 100.5q158 0 276 -49q91 49 211 49h9q132 0 222 -94.5t72 -224.5l-8 -51q-14 -103 -85 -169.5t-197 -115.5l-244 -94q2 -46 30.5 -73t77.5 -27q63 0 132.5 15.5t107.5 30.5l39 15l-33 -231q-13 -5 -37 -12.5t-95.5 -20t-139.5 -12.5 q-95 0 -152 40l-4 -30h-209l6 37q-75 -47 -135 -47q-169 0 -248.5 99t-56.5 253zM371 328q-6 -56 20.5 -94.5t83.5 -38.5q55 0 92 39t45 96l66 475q-58 24 -115 24q-59 0 -96 -38.5t-43 -94.5zM883 545l196 78q62 25 64 45l6 51q6 41 -24.5 75.5t-73.5 34.5h-9 q-50 0 -89.5 -36.5t-45.5 -83.5z" />
<glyph unicode="&#xe7;" horiz-adv-x="1013" d="M145 330l52 364q21 149 140.5 249.5t287.5 100.5q171 0 261.5 -104.5t65.5 -280.5h-235q10 78 -25 125t-98 47q-57 0 -103.5 -40t-54.5 -93l-51 -372q-8 -53 27.5 -93t93.5 -40q64 0 112 48t60 130h242q-23 -163 -124.5 -264.5t-250.5 -122.5l-4 -35q64 -6 103 -54.5 t30 -113.5q-10 -72 -68.5 -121t-128.5 -49h-178l16 129h127q18 0 32 11.5t15 29.5q3 15 -7 27t-27 12h-107l25 172q-122 29 -183.5 121.5t-44.5 216.5z" />
<glyph unicode="&#xe8;" horiz-adv-x="960" d="M129 330l51 364q21 148 142.5 249t289.5 101h29q131 0 222 -95t73 -224l-8 -51q-14 -101 -81.5 -165t-180.5 -106l-301 -108q3 -45 37.5 -72.5t86.5 -27.5q62 0 136.5 14.5t118.5 29.5l44 15l-32 -234q-129 -40 -293 -40q-169 0 -262.5 100.5t-71.5 249.5zM221 1454h316 l200 -317h-235zM397 539l230 82q60 21 65 65l4 33q6 41 -23.5 75.5t-72.5 34.5h-29q-55 0 -100 -40.5t-51 -92.5z" />
<glyph unicode="&#xe9;" horiz-adv-x="960" d="M129 330l51 364q21 148 142.5 249t289.5 101h29q131 0 222 -95t73 -224l-8 -51q-14 -101 -81.5 -165t-180.5 -106l-301 -108q3 -45 37.5 -72.5t86.5 -27.5q62 0 136.5 14.5t118.5 29.5l44 15l-32 -234q-129 -40 -293 -40q-169 0 -262.5 100.5t-71.5 249.5zM397 539 l230 82q60 21 65 65l4 33q6 41 -23.5 75.5t-72.5 34.5h-29q-55 0 -100 -40.5t-51 -92.5zM459 1137l286 317h316l-367 -317h-235z" />
<glyph unicode="&#xea;" horiz-adv-x="960" d="M129 330l51 364q21 148 142.5 249t289.5 101h29q131 0 222 -95t73 -224l-8 -51q-14 -101 -81.5 -165t-180.5 -106l-301 -108q3 -45 37.5 -72.5t86.5 -27.5q62 0 136.5 14.5t118.5 29.5l44 15l-32 -234q-129 -40 -293 -40q-169 0 -262.5 100.5t-71.5 249.5zM242 1137 l313 317h219l223 -317h-256l-102 133l-137 -133h-260zM397 539l230 82q60 21 65 65l4 33q6 41 -23.5 75.5t-72.5 34.5h-29q-55 0 -100 -40.5t-51 -92.5z" />
<glyph unicode="&#xeb;" horiz-adv-x="960" d="M129 330l51 364q21 148 142.5 249t289.5 101h29q131 0 222 -95t73 -224l-8 -51q-14 -101 -81.5 -165t-180.5 -106l-301 -108q3 -45 37.5 -72.5t86.5 -27.5q62 0 136.5 14.5t118.5 29.5l44 15l-32 -234q-129 -40 -293 -40q-169 0 -262.5 100.5t-71.5 249.5zM252 1171 l37 263h258l-37 -263h-258zM397 539l230 82q60 21 65 65l4 33q6 41 -23.5 75.5t-72.5 34.5h-29q-55 0 -100 -40.5t-51 -92.5zM713 1171l37 263h260l-37 -263h-260z" />
<glyph unicode="&#xec;" horiz-adv-x="573" d="M-20 1454h315l201 -317h-236zM133 244l111 780h241l-108 -766q-2 -22 11 -37.5t34 -15.5h47l-31 -215h-86q-106 0 -169.5 74t-49.5 180z" />
<glyph unicode="&#xed;" horiz-adv-x="573" d="M133 244l111 780h241l-108 -766q-2 -22 11 -37.5t34 -15.5h47l-31 -215h-86q-106 0 -169.5 74t-49.5 180zM258 1137l287 317h315l-366 -317h-236z" />
<glyph unicode="&#xee;" horiz-adv-x="573" d="M10 1137l314 317h219l223 -317h-256l-102 133l-138 -133h-260zM133 244l111 780h241l-108 -766q-2 -22 11 -37.5t34 -15.5h47l-31 -215h-86q-106 0 -169.5 74t-49.5 180z" />
<glyph unicode="&#xef;" horiz-adv-x="573" d="M41 1171l35 263h258l-35 -263h-258zM135 244l109 780h241l-106 -766q-3 -22 9.5 -37.5t33.5 -15.5h47l-31 -215h-86q-106 0 -169 74t-48 180zM502 1171l35 263h260l-35 -263h-260z" />
<glyph unicode="&#xf0;" horiz-adv-x="1058" d="M119 330l41 295q20 143 139 243.5t274 100.5q42 0 91.5 -17t68.5 -37l21 144l-150 -49l27 188l74 25q-22 16 -62 16h-151l30 215h152q94 0 170 -39.5t123 -107.5l180 57l-27 -188l-119 -39q0 -40 -8 -72l-102 -735q-22 -149 -144.5 -249.5t-289.5 -100.5 q-170 0 -265 100.5t-73 249.5zM358 324q-8 -51 30.5 -90t98.5 -39q57 0 105.5 39t56.5 90l43 307q8 51 -30 89t-97 38q-58 0 -107 -38t-57 -89z" />
<glyph unicode="&#xf1;" horiz-adv-x="1073" d="M106 0l144 1024h235l-6 -45q88 65 183 65q162 0 249.5 -102t65.5 -252l-59 -432q-3 -22 10 -37.5t33 -15.5h22l-31 -215h-59q-107 0 -169.5 74t-47.5 180l61 448q8 54 -28 95.5t-93 41.5q-58 0 -112 -39t-60 -88l-98 -702h-240zM276 1135q15 114 88.5 195t167.5 81 q42 0 84.5 -19t78.5 -38t61 -19q26 0 46 20t23 44h219q-15 -114 -89 -195.5t-167 -81.5q-42 0 -84.5 19t-78 38t-60.5 19q-26 0 -45 -19t-24 -44h-220z" />
<glyph unicode="&#xf2;" horiz-adv-x="1005" d="M129 330q-22 -150 71 -250t265 -100q170 0 289 99.5t141 250.5l51 364q21 149 -70.5 249.5t-261.5 100.5q-172 0 -292.5 -100.5t-141.5 -249.5zM244 1454h315l201 -317h-236zM367 328l53 368q6 53 55 93t107 40q61 0 95 -39.5t28 -93.5l-54 -368q-6 -54 -51.5 -93.5 t-105.5 -39.5q-59 0 -96 40t-31 93z" />
<glyph unicode="&#xf3;" horiz-adv-x="1005" d="M129 330q-22 -150 71 -250t265 -100q170 0 289 99.5t141 250.5l51 364q21 149 -70.5 249.5t-261.5 100.5q-172 0 -292.5 -100.5t-141.5 -249.5zM367 328l53 368q6 53 55 93t107 40q61 0 95 -39.5t28 -93.5l-54 -368q-6 -54 -51.5 -93.5t-105.5 -39.5q-59 0 -96 40t-31 93 zM475 1137l287 317h315l-366 -317h-236z" />
<glyph unicode="&#xf4;" horiz-adv-x="1005" d="M129 330q-22 -150 71 -250t265 -100q170 0 289 99.5t141 250.5l51 364q21 149 -70.5 249.5t-261.5 100.5q-172 0 -292.5 -100.5t-141.5 -249.5zM238 1137l313 317h219l223 -317h-256l-102 133l-137 -133h-260zM367 328l53 368q6 53 55 93t107 40q61 0 95 -39.5t28 -93.5 l-54 -368q-6 -54 -51.5 -93.5t-105.5 -39.5q-59 0 -96 40t-31 93z" />
<glyph unicode="&#xf5;" horiz-adv-x="1005" d="M129 330q-22 -150 71 -250t265 -100q170 0 289 99.5t141 250.5l51 364q21 149 -70.5 249.5t-261.5 100.5q-172 0 -292.5 -100.5t-141.5 -249.5zM244 1135q15 114 88.5 195t167.5 81q42 0 84.5 -19t78 -38t60.5 -19q26 0 46.5 20.5t23.5 43.5h219q-15 -114 -89 -195.5 t-167 -81.5q-42 0 -84.5 19t-78.5 38t-61 19q-26 0 -45 -19t-24 -44h-219zM367 328l53 368q6 53 55 93t107 40q61 0 95 -39.5t28 -93.5l-54 -368q-6 -54 -51.5 -93.5t-105.5 -39.5q-59 0 -96 40t-31 93z" />
<glyph unicode="&#xf6;" horiz-adv-x="1005" d="M129 330q-22 -150 71 -250t265 -100q170 0 289 99.5t141 250.5l51 364q21 149 -70.5 249.5t-261.5 100.5q-172 0 -292.5 -100.5t-141.5 -249.5zM256 1171l37 263h258l-37 -263h-258zM367 328l53 368q6 53 55 93t107 40q61 0 95 -39.5t28 -93.5l-54 -368 q-6 -54 -51.5 -93.5t-105.5 -39.5q-59 0 -96 40t-31 93zM717 1171l37 263h260l-37 -263h-260z" />
<glyph unicode="&#xf7;" horiz-adv-x="1204" d="M154 440l34 246h938l-34 -246h-938zM430 80l39 278h285l-39 -278h-285zM526 764l39 280h285l-39 -280h-285z" />
<glyph unicode="&#xf8;" horiz-adv-x="1056" d="M86 0l100 137q-44 78 -28 193l51 364q21 149 141.5 249.5t292.5 100.5q106 0 174 -36l10 16h213l-98 -137q45 -88 33 -193l-51 -364q-22 -151 -141 -250.5t-289 -99.5q-107 0 -181 38l-12 -18h-215zM412 436l30 56l234 323q-32 14 -66 14q-58 0 -106.5 -40t-54.5 -93z M455 213q27 -18 67 -18q60 0 106 39.5t52 93.5l37 260l-33 -56z" />
<glyph unicode="&#xf9;" horiz-adv-x="1091" d="M137 334l99 690h239l-98 -692q-8 -54 29 -95.5t94 -41.5q59 0 111.5 40t58.5 89l100 700h240l-109 -766q-3 -20 8.5 -36.5t30.5 -16.5h27l-29 -215h-59q-113 0 -177 90q-74 -59 -131 -79.5t-118 -20.5q-161 0 -249 101.5t-67 252.5zM236 1454h315l201 -317h-236z" />
<glyph unicode="&#xfa;" horiz-adv-x="1091" d="M137 334l99 690h239l-98 -692q-8 -54 29 -95.5t94 -41.5q59 0 111.5 40t58.5 89l100 700h240l-109 -766q-3 -20 8.5 -36.5t30.5 -16.5h27l-29 -215h-59q-113 0 -177 90q-74 -59 -131 -79.5t-118 -20.5q-161 0 -249 101.5t-67 252.5zM483 1137l287 317h315l-366 -317h-236 z" />
<glyph unicode="&#xfb;" horiz-adv-x="1091" d="M137 334l99 690h239l-98 -692q-8 -54 29 -95.5t94 -41.5q59 0 111.5 40t58.5 89l100 700h240l-109 -766q-3 -20 8.5 -36.5t30.5 -16.5h27l-29 -215h-59q-113 0 -177 90q-74 -59 -131 -79.5t-118 -20.5q-161 0 -249 101.5t-67 252.5zM244 1137l313 317h219l223 -317h-256 l-102 133l-137 -133h-260z" />
<glyph unicode="&#xfc;" horiz-adv-x="1091" d="M137 334l99 690h239l-98 -692q-8 -54 29 -95.5t94 -41.5q59 0 111.5 40t58.5 89l100 700h240l-109 -766q-3 -20 8.5 -36.5t30.5 -16.5h27l-29 -215h-59q-113 0 -177 90q-74 -59 -131 -79.5t-118 -20.5q-161 0 -249 101.5t-67 252.5zM250 1171l37 263h258l-37 -263h-258z M711 1171l37 263h260l-37 -263h-260z" />
<glyph unicode="&#xfd;" horiz-adv-x="1011" d="M121 -111q8 64 50 134.5t110 117.5q-75 42 -109 121.5t-22 169.5l83 592h242l-82 -582q-8 -51 29.5 -89t95.5 -38q61 0 110.5 38t57.5 89l82 582h242l-150 -1065q-22 -152 -141.5 -250t-296.5 -98q-149 0 -234 76t-67 202zM362 -92q-5 -33 19 -57.5t72 -24.5 q62 0 110.5 44.5t54.5 96.5l21 144l-219 -134q-52 -30 -58 -69zM473 1137l287 317h315l-366 -317h-236z" />
<glyph unicode="&#xfe;" horiz-adv-x="1009" d="M29 -369l254 1803h235l-63 -441q87 49 170 49q168 0 258 -100.5t69 -251.5l-51 -360q-21 -149 -140 -251t-288 -102q-82 0 -149 48l-56 -394h-239zM367 326q-8 -53 30 -93t97 -40q61 0 109 40t56 93l52 368q8 53 -29 93t-96 40q-60 0 -110 -40t-58 -93z" />
<glyph unicode="&#xff;" horiz-adv-x="1011" d="M121 -111q8 64 50 134.5t110 117.5q-75 42 -109 121.5t-22 169.5l83 592h242l-82 -582q-8 -51 29.5 -89t95.5 -38q61 0 110.5 38t57.5 89l82 582h242l-150 -1065q-22 -152 -141.5 -250t-296.5 -98q-149 0 -234 76t-67 202zM254 1171l37 263h258l-37 -263h-258zM362 -92 q-5 -33 19 -57.5t72 -24.5q62 0 110.5 44.5t54.5 96.5l21 144l-219 -134q-52 -30 -58 -69zM715 1171l37 263h260l-37 -263h-260z" />
<glyph unicode="&#x152;" horiz-adv-x="1476" d="M150 406l88 624q15 110 84 203t174 147t221 54h790l-32 -240h-408l-45 -320h360l-34 -239h-361l-55 -395h424l-33 -240h-807q-116 0 -206 54t-133 147.5t-27 204.5zM408 393q-9 -64 31 -108.5t108 -44.5h125l135 950h-125q-67 0 -121 -44.5t-63 -107.5z" />
<glyph unicode="&#x153;" horiz-adv-x="1409" d="M133 330l51 364q21 147 132.5 248.5t267.5 101.5q133 0 223 -90q124 90 260 90q135 0 229 -95t76 -224l-8 -51q-14 -103 -86.5 -168.5t-200.5 -116.5l-241 -94q3 -45 30.5 -72.5t75.5 -27.5q62 0 131 14.5t107 28.5l39 14l-33 -234q-117 -38 -271 -38q-143 0 -231 88 q-122 -88 -250 -88q-157 0 -240 100.5t-61 249.5zM371 328q-6 -55 20 -94t72 -39q56 0 92.5 38.5t42.5 94.5l55 381q6 50 -20.5 85t-81.5 35q-45 0 -82 -39.5t-45 -93.5zM868 545l199 78q27 10 43 26t18 29l7 41q6 42 -24 76t-75 34q-54 0 -95.5 -36.5t-49.5 -85.5z" />
<glyph unicode="&#x178;" horiz-adv-x="1122" d="M201 1434h284l160 -467l289 467h287l-486 -762l-94 -672h-264l94 672zM352 1581l37 262h258l-37 -262h-258zM813 1581l37 262h260l-37 -262h-260z" />
<glyph unicode="&#x2c6;" horiz-adv-x="755" d="M160 1137l313 317h219l223 -317h-256l-102 133l-137 -133h-260z" />
<glyph unicode="&#x2dc;" horiz-adv-x="731" d="M70 1135q15 114 88.5 195t167.5 81q42 0 84.5 -19t78 -38t60.5 -19q26 0 46 20t23 44h220q-15 -114 -89 -195.5t-167 -81.5q-42 0 -84.5 19t-78.5 38t-61 19q-26 0 -45 -19t-24 -44h-219z" />
<glyph unicode="&#x2000;" horiz-adv-x="963" />
<glyph unicode="&#x2001;" horiz-adv-x="1927" />
<glyph unicode="&#x2002;" horiz-adv-x="963" />
<glyph unicode="&#x2003;" horiz-adv-x="1927" />
<glyph unicode="&#x2004;" horiz-adv-x="642" />
<glyph unicode="&#x2005;" horiz-adv-x="481" />
<glyph unicode="&#x2006;" horiz-adv-x="321" />
<glyph unicode="&#x2007;" horiz-adv-x="321" />
<glyph unicode="&#x2008;" horiz-adv-x="240" />
<glyph unicode="&#x2009;" horiz-adv-x="385" />
<glyph unicode="&#x200a;" horiz-adv-x="107" />
<glyph unicode="&#x2010;" horiz-adv-x="835" d="M156 444l32 240h570l-33 -240h-569z" />
<glyph unicode="&#x2011;" horiz-adv-x="835" d="M156 444l32 240h570l-33 -240h-569z" />
<glyph unicode="&#x2012;" horiz-adv-x="835" d="M156 444l32 240h570l-33 -240h-569z" />
<glyph unicode="&#x2013;" horiz-adv-x="827" d="M23 446l32 236h828l-33 -236h-827z" />
<glyph unicode="&#x2014;" horiz-adv-x="1458" d="M23 446l32 236h1458l-32 -236h-1458z" />
<glyph unicode="&#x2018;" horiz-adv-x="524" d="M184 973l219 463h162l-141 -463h-240z" />
<glyph unicode="&#x2019;" horiz-adv-x="483" d="M225 973l142 463h239l-219 -463h-162z" />
<glyph unicode="&#x201a;" horiz-adv-x="624" d="M61 -231l140 462h239l-217 -462h-162z" />
<glyph unicode="&#x201c;" horiz-adv-x="929" d="M184 973l219 463h162l-141 -463h-240zM590 973l219 463h162l-142 -463h-239z" />
<glyph unicode="&#x201d;" horiz-adv-x="888" d="M225 973l142 463h239l-219 -463h-162zM631 973l141 463h240l-219 -463h-162z" />
<glyph unicode="&#x201e;" horiz-adv-x="1030" d="M61 -231l140 462h239l-217 -462h-162zM467 -231l139 462h240l-217 -462h-162z" />
<glyph unicode="&#x2022;" horiz-adv-x="942" d="M195 715q0 135 95.5 231t233.5 96q133 0 229.5 -96.5t96.5 -230.5q0 -136 -96.5 -233t-229.5 -97q-138 0 -233.5 96.5t-95.5 233.5z" />
<glyph unicode="&#x2026;" horiz-adv-x="1611" d="M123 0l39 279h278l-39 -279h-278zM668 0l39 279h278l-39 -279h-278zM1192 0l39 279h276l-39 -279h-276z" />
<glyph unicode="&#x202f;" horiz-adv-x="385" />
<glyph unicode="&#x2039;" horiz-adv-x="804" d="M164 588l313 344h291l-311 -344l217 -342h-293z" />
<glyph unicode="&#x203a;" horiz-adv-x="804" d="M117 246l313 342l-219 344h293l219 -344l-315 -342h-291z" />
<glyph unicode="&#x205f;" horiz-adv-x="481" />
<glyph unicode="&#x20ac;" horiz-adv-x="1159" d="M119 485l26 189h88l13 88h-88l26 186h88l17 111q15 107 82.5 197.5t168.5 143t212 52.5h10q173 0 273.5 -111t74.5 -290h-256q10 75 -28.5 120.5t-104.5 45.5q-64 0 -115.5 -44t-60.5 -108l-17 -117h430l-26 -186h-430l-13 -88h371l-26 -189h-371l-17 -116 q-7 -63 33 -107.5t103 -44.5q65 0 117 43.5t61 106.5l2 16h256l-2 -14q-15 -107 -82 -196.5t-167.5 -141t-211.5 -51.5h-10q-169 0 -272 115.5t-80 279.5l14 110h-88z" />
<glyph unicode="&#x2122;" horiz-adv-x="1613" d="M223 1223l29 211h539l-29 -211h-164l-90 -633h-221l90 633h-154zM762 590l119 844h221l106 -281l189 281h223l-119 -844h-221l68 471l-101 -141h-141l-59 143l-68 -473h-217z" />
<glyph unicode="&#x25fc;" horiz-adv-x="1024" d="M0 0v1024h1024v-1024h-1024z" />
<glyph unicode="&#xfb01;" horiz-adv-x="1306" d="M82 -369l164 1178h-131l30 215h131l19 127q19 128 120 215.5t230 87.5q113 0 221 -80l-161 -180q-60 45 -91 45q-30 0 -51 -20t-26 -50l-21 -145h715l-107 -766q-3 -22 9.5 -37.5t33.5 -15.5h47l-30 -215h-86q-106 0 -169 74t-48 180l77 565h-473l-163 -1178h-240z M1001 1171l37 263h260l-36 -263h-261z" />
<glyph unicode="&#xfb02;" horiz-adv-x="1298" d="M82 -369l166 1178h-131l30 215h132l16 127q18 126 117.5 204.5t230.5 78.5h639l-166 -1174q-3 -22 9.5 -38.5t33.5 -16.5h47l-28 -215h-84q-107 0 -172 74t-50 180l138 975h-398q-30 0 -51 -20t-26 -50l-17 -125h234l-31 -215h-234l-165 -1178h-240z" />
</font>
</defs>
</svg>
