<?xml version="1.0" encoding="UTF-8" standalone="no"?>
<svg width="96px" height="96px" viewBox="0 0 96 96" version="1.1" xmlns="http://www.w3.org/2000/svg" xmlns:xlink="http://www.w3.org/1999/xlink" xmlns:sketch="http://www.bohemiancoding.com/sketch/ns">
    <!-- Generator: Sketch 3.3 (11970) - http://www.bohemiancoding.com/sketch -->
    <title>Shape</title>
    <desc>Created with Sketch.</desc>
    <defs></defs>
    <g id="Page-1" stroke="none" stroke-width="1" fill="none" fill-rule="evenodd" sketch:type="MSPage">
        <g id="cross" sketch:type="MSLayerGroup" fill="#000000">
            <g id="Page-1" sketch:type="MSShapeGroup">
                <g id="cross">
                    <path d="M62.819,47.97 L95.352,15.436 C96.133,14.655 96.133,13.389 95.352,12.608 L83.333,0.586 C82.958,0.211 82.448,0 81.919,0 C81.389,0 80.88,0.211 80.505,0.586 L47.97,33.121 L15.435,0.586 C14.685,-0.164 13.357,-0.164 12.607,0.586 L0.587,12.608 C-0.194,13.389 -0.194,14.655 0.587,15.436 L33.121,47.97 L0.587,80.504 C-0.194,81.285 -0.194,82.551 0.587,83.332 L12.607,95.353 C12.982,95.728 13.491,95.939 14.021,95.939 C14.551,95.939 15.06,95.728 15.435,95.353 L47.97,62.818 L80.505,95.353 C80.88,95.728 81.389,95.939 81.919,95.939 C82.448,95.939 82.958,95.728 83.333,95.353 L95.353,83.332 C96.134,82.551 96.134,81.284 95.353,80.504 L62.819,47.97 L62.819,47.97 Z" id="Shape"></path>
                </g>
            </g>
        </g>
    </g>
</svg>