<?xml version="1.0" encoding="UTF-8" standalone="no"?>
<svg width="18px" height="17px" viewBox="0 0 18 17" version="1.1" xmlns="http://www.w3.org/2000/svg" xmlns:xlink="http://www.w3.org/1999/xlink" xmlns:sketch="http://www.bohemiancoding.com/sketch/ns">
    <!-- Generator: Sketch 3.3 (11970) - http://www.bohemiancoding.com/sketch -->
    <title>path-1</title>
    <desc>Created with Sketch.</desc>
    <defs></defs>
    <g id="Page-1" stroke="none" stroke-width="1" fill="none" fill-rule="evenodd" sketch:type="MSPage">
        <g id="rss" sketch:type="MSLayerGroup" fill="#000000">
            <g id="Page-1" sketch:type="MSShapeGroup">
                <g id="web43">
                    <g id="Group">
                        <g id="Shape">
                            <g id="path-1-link">
                                <path d="M16.5475862,0.0434444444 L1.76027586,0.0434444444 C-0.170068966,0.0434444444 0.00434482759,0.965222222 0.00434482759,1.64018519 L0.00434482759,15.6821852 C0.00434482759,16.3546296 0.376758621,16.9005185 0.836689655,16.9005185 L17.1124138,16.9005185 C17.5729655,16.9005185 17.9441379,16.3552593 17.9441379,15.6821852 L17.9441379,1.94933333 C17.9441379,1.275 18.0204828,0.0434444444 16.5475862,0.0434444444 L16.5475862,0.0434444444 L16.5475862,0.0434444444 Z M4.11889655,15.4133333 C3.00351724,15.4133333 2.09793103,14.4940741 2.09793103,13.3651481 C2.09793103,12.2337037 3.00351724,11.3138148 4.11889655,11.3138148 C5.23241379,11.3138148 6.13924138,12.2337037 6.13924138,13.3651481 C6.13924138,14.4940741 5.23241379,15.4133333 4.11889655,15.4133333 L4.11889655,15.4133333 L4.11889655,15.4133333 Z M11.0681379,15.4133333 L11.0594483,15.4133333 L8.49351724,15.4133333 C8.37682759,15.4133333 8.28434483,15.3182593 8.28434483,15.2005185 C8.28434483,11.8584444 5.60234483,9.13781481 2.30834483,9.13781481 C2.19227586,9.13781481 2.09793103,9.04274074 2.09793103,8.925 L2.09793103,6.324 C2.09793103,6.20562963 2.19227586,6.10992593 2.30834483,6.10992593 C7.22544828,6.10992593 11.2326207,10.1521481 11.2692414,15.1331481 L11.2791724,15.2005185 C11.2785517,15.3176296 11.1842069,15.4133333 11.0681379,15.4133333 L11.0681379,15.4133333 L11.0681379,15.4133333 Z M15.5178621,15.4133333 L15.5066897,15.4133333 L12.8662759,15.4133333 C12.7514483,15.4133333 12.6571034,15.3182593 12.6571034,15.2005185 C12.6571034,9.41107407 8.01372414,4.70144444 2.30772414,4.70144444 C2.19165517,4.70144444 2.09731034,4.60574074 2.09731034,4.48862963 L2.09731034,1.80955556 C2.09731034,1.69181481 2.19165517,1.59611111 2.30772414,1.59611111 C9.67903448,1.59611111 15.6811034,7.66133333 15.7177241,15.1331481 L15.7288966,15.2005185 C15.7288966,15.3176296 15.6333103,15.4133333 15.5178621,15.4133333 L15.5178621,15.4133333 L15.5178621,15.4133333 Z" id="path-1"></path>
                            </g>
                        </g>
                    </g>
                </g>
            </g>
        </g>
    </g>
</svg>